%TF.GenerationSoftware,KiCad,Pcbnew,(6.0.7)*%
%TF.CreationDate,2023-03-12T18:49:50+01:00*%
%TF.ProjectId,Amon_board,416d6f6e-5f62-46f6-9172-642e6b696361,2.2*%
%TF.SameCoordinates,Original*%
%TF.FileFunction,Paste,Top*%
%TF.FilePolarity,Positive*%
%FSLAX46Y46*%
G04 Gerber Fmt 4.6, Leading zero omitted, Abs format (unit mm)*
G04 Created by KiCad (PCBNEW (6.0.7)) date 2023-03-12 18:49:50*
%MOMM*%
%LPD*%
G01*
G04 APERTURE LIST*
G04 Aperture macros list*
%AMRoundRect*
0 Rectangle with rounded corners*
0 $1 Rounding radius*
0 $2 $3 $4 $5 $6 $7 $8 $9 X,Y pos of 4 corners*
0 Add a 4 corners polygon primitive as box body*
4,1,4,$2,$3,$4,$5,$6,$7,$8,$9,$2,$3,0*
0 Add four circle primitives for the rounded corners*
1,1,$1+$1,$2,$3*
1,1,$1+$1,$4,$5*
1,1,$1+$1,$6,$7*
1,1,$1+$1,$8,$9*
0 Add four rect primitives between the rounded corners*
20,1,$1+$1,$2,$3,$4,$5,0*
20,1,$1+$1,$4,$5,$6,$7,0*
20,1,$1+$1,$6,$7,$8,$9,0*
20,1,$1+$1,$8,$9,$2,$3,0*%
G04 Aperture macros list end*
%ADD10RoundRect,0.200000X0.200000X0.275000X-0.200000X0.275000X-0.200000X-0.275000X0.200000X-0.275000X0*%
%ADD11RoundRect,0.225000X-0.225000X-0.250000X0.225000X-0.250000X0.225000X0.250000X-0.225000X0.250000X0*%
%ADD12RoundRect,0.200000X0.275000X-0.200000X0.275000X0.200000X-0.275000X0.200000X-0.275000X-0.200000X0*%
%ADD13RoundRect,0.250000X0.625000X-0.312500X0.625000X0.312500X-0.625000X0.312500X-0.625000X-0.312500X0*%
%ADD14RoundRect,0.200000X-0.275000X0.200000X-0.275000X-0.200000X0.275000X-0.200000X0.275000X0.200000X0*%
%ADD15R,3.600000X2.700000*%
%ADD16RoundRect,0.225000X0.225000X0.250000X-0.225000X0.250000X-0.225000X-0.250000X0.225000X-0.250000X0*%
%ADD17RoundRect,0.225000X0.250000X-0.225000X0.250000X0.225000X-0.250000X0.225000X-0.250000X-0.225000X0*%
%ADD18R,1.800000X2.500000*%
%ADD19RoundRect,0.225000X-0.250000X0.225000X-0.250000X-0.225000X0.250000X-0.225000X0.250000X0.225000X0*%
%ADD20RoundRect,0.150000X-0.650000X-0.150000X0.650000X-0.150000X0.650000X0.150000X-0.650000X0.150000X0*%
%ADD21R,0.500000X0.350000*%
%ADD22RoundRect,0.200000X-0.200000X-0.275000X0.200000X-0.275000X0.200000X0.275000X-0.200000X0.275000X0*%
%ADD23RoundRect,0.250000X-0.450000X-0.425000X0.450000X-0.425000X0.450000X0.425000X-0.450000X0.425000X0*%
%ADD24R,1.150000X0.300000*%
%ADD25R,1.560000X0.650000*%
%ADD26R,1.600000X0.700000*%
%ADD27R,1.400000X1.200000*%
%ADD28R,1.400000X1.600000*%
%ADD29R,2.200000X1.200000*%
%ADD30R,1.000000X0.900000*%
%ADD31RoundRect,0.250000X0.455000X-0.280000X0.455000X0.280000X-0.455000X0.280000X-0.455000X-0.280000X0*%
%ADD32RoundRect,0.150000X0.150000X-0.820000X0.150000X0.820000X-0.150000X0.820000X-0.150000X-0.820000X0*%
%ADD33RoundRect,0.250000X0.362500X0.700000X-0.362500X0.700000X-0.362500X-0.700000X0.362500X-0.700000X0*%
%ADD34R,0.800000X1.000000*%
%ADD35R,1.500000X0.700000*%
%ADD36RoundRect,0.250000X-1.050000X-0.550000X1.050000X-0.550000X1.050000X0.550000X-1.050000X0.550000X0*%
%ADD37RoundRect,0.218750X0.256250X-0.218750X0.256250X0.218750X-0.256250X0.218750X-0.256250X-0.218750X0*%
%ADD38RoundRect,0.250000X-0.625000X0.312500X-0.625000X-0.312500X0.625000X-0.312500X0.625000X0.312500X0*%
%ADD39R,1.000000X0.800000*%
%ADD40RoundRect,0.150000X0.150000X-0.587500X0.150000X0.587500X-0.150000X0.587500X-0.150000X-0.587500X0*%
%ADD41RoundRect,0.075000X-0.700000X-0.075000X0.700000X-0.075000X0.700000X0.075000X-0.700000X0.075000X0*%
%ADD42RoundRect,0.075000X-0.075000X-0.700000X0.075000X-0.700000X0.075000X0.700000X-0.075000X0.700000X0*%
%ADD43RoundRect,0.075000X-0.075000X0.350000X-0.075000X-0.350000X0.075000X-0.350000X0.075000X0.350000X0*%
%ADD44RoundRect,0.075000X-0.350000X-0.075000X0.350000X-0.075000X0.350000X0.075000X-0.350000X0.075000X0*%
%ADD45RoundRect,0.218750X-0.218750X-0.256250X0.218750X-0.256250X0.218750X0.256250X-0.218750X0.256250X0*%
G04 APERTURE END LIST*
D10*
X212915000Y-63360300D03*
X211265000Y-63360300D03*
D11*
X211315000Y-58305700D03*
X212865000Y-58305700D03*
D12*
X203403200Y-138442200D03*
X203403200Y-136792200D03*
D10*
X212915000Y-55778400D03*
X211265000Y-55778400D03*
D13*
X177952400Y-118749000D03*
X177952400Y-115824000D03*
D10*
X184009800Y-97993200D03*
X182359800Y-97993200D03*
D14*
X184912000Y-121044200D03*
X184912000Y-122694200D03*
D15*
X197408800Y-129930800D03*
X197408800Y-121630800D03*
D12*
X168893000Y-122592600D03*
X168893000Y-120942600D03*
X189484000Y-122694200D03*
X189484000Y-121044200D03*
D16*
X211798200Y-92760800D03*
X210248200Y-92760800D03*
D17*
X162774600Y-122542600D03*
X162774600Y-120992600D03*
D10*
X212915000Y-60833000D03*
X211265000Y-60833000D03*
D18*
X169531000Y-128898400D03*
X169531000Y-124898400D03*
D13*
X165760400Y-81929700D03*
X165760400Y-79004700D03*
D19*
X210261200Y-86601000D03*
X210261200Y-88151000D03*
D20*
X214128800Y-115849400D03*
X214128800Y-117119400D03*
X214128800Y-118389400D03*
X214128800Y-119659400D03*
X221328800Y-119659400D03*
X221328800Y-118389400D03*
X221328800Y-117119400D03*
X221328800Y-115849400D03*
D10*
X215435200Y-81280000D03*
X213785200Y-81280000D03*
D17*
X183388000Y-122644200D03*
X183388000Y-121094200D03*
D21*
X219113200Y-88655800D03*
X219113200Y-88005800D03*
X219113200Y-87355800D03*
X219113200Y-86705800D03*
X220713200Y-86705800D03*
X220713200Y-87355800D03*
X220713200Y-88005800D03*
X220713200Y-88655800D03*
D12*
X192582800Y-138442200D03*
X192582800Y-136792200D03*
D14*
X197662800Y-136792200D03*
X197662800Y-138442200D03*
X162610800Y-62307200D03*
X162610800Y-63957200D03*
D22*
X206349600Y-108661200D03*
X207999600Y-108661200D03*
D23*
X185035200Y-132029200D03*
X187735200Y-132029200D03*
D10*
X184009800Y-99568000D03*
X182359800Y-99568000D03*
D12*
X189484000Y-119717000D03*
X189484000Y-118067000D03*
D16*
X179376300Y-94234000D03*
X177826300Y-94234000D03*
X182435800Y-86156800D03*
X180885800Y-86156800D03*
D23*
X164269400Y-132130800D03*
X166969400Y-132130800D03*
D24*
X218712600Y-81988400D03*
X218712600Y-81188400D03*
X218712600Y-79888400D03*
X218712600Y-78888400D03*
X218712600Y-78388400D03*
X218712600Y-77388400D03*
X218712600Y-76088400D03*
X218712600Y-75288400D03*
X218712600Y-75588400D03*
X218712600Y-76388400D03*
X218712600Y-76888400D03*
X218712600Y-77888400D03*
X218712600Y-79388400D03*
X218712600Y-80388400D03*
X218712600Y-80888400D03*
X218712600Y-81688400D03*
D16*
X179376300Y-92710000D03*
X177826300Y-92710000D03*
X179376300Y-91186000D03*
X177826300Y-91186000D03*
D18*
X190195200Y-128949200D03*
X190195200Y-124949200D03*
D11*
X219798600Y-113995200D03*
X221348600Y-113995200D03*
D25*
X215909400Y-79588400D03*
X215909400Y-78638400D03*
X215909400Y-77688400D03*
X213209400Y-77688400D03*
X213209400Y-78638400D03*
X213209400Y-79588400D03*
D10*
X199757800Y-89560400D03*
X198107800Y-89560400D03*
D17*
X170422600Y-122542600D03*
X170422600Y-120992600D03*
D26*
X210321200Y-101991600D03*
X210321200Y-103091600D03*
X210321200Y-104191600D03*
X210321200Y-105291600D03*
X210321200Y-106391600D03*
X210321200Y-107491600D03*
X210321200Y-108591600D03*
X210321200Y-109691600D03*
X210321200Y-110791600D03*
D27*
X210821200Y-111991600D03*
D28*
X210821200Y-97391600D03*
D29*
X220421200Y-111991600D03*
X220421200Y-96491600D03*
D17*
X191008000Y-122644200D03*
X191008000Y-121094200D03*
D16*
X185737800Y-82550000D03*
X184187800Y-82550000D03*
D19*
X210261200Y-89649000D03*
X210261200Y-91199000D03*
D17*
X219100400Y-91605400D03*
X219100400Y-90055400D03*
D22*
X185438600Y-99568000D03*
X187088600Y-99568000D03*
D10*
X215333600Y-75996800D03*
X213683600Y-75996800D03*
D22*
X206337400Y-107086400D03*
X207987400Y-107086400D03*
D14*
X208483200Y-136792200D03*
X208483200Y-138442200D03*
X167363400Y-120942600D03*
X167363400Y-122592600D03*
D30*
X170726000Y-89542400D03*
X170726000Y-93642400D03*
X169126000Y-93642400D03*
X169126000Y-89542400D03*
D11*
X198157800Y-85344000D03*
X199707800Y-85344000D03*
D31*
X164123400Y-127756600D03*
X165873400Y-126446600D03*
X165873400Y-127756600D03*
X164123400Y-126446600D03*
D32*
X163093400Y-129581600D03*
X164363400Y-129581600D03*
X165633400Y-129581600D03*
X166903400Y-129581600D03*
X166903400Y-124621600D03*
X165633400Y-124621600D03*
X164363400Y-124621600D03*
X163093400Y-124621600D03*
D22*
X206337400Y-102514400D03*
X207987400Y-102514400D03*
D33*
X180263800Y-96215200D03*
X176938800Y-96215200D03*
D22*
X206337400Y-104038400D03*
X207987400Y-104038400D03*
D11*
X206375200Y-105562400D03*
X207925200Y-105562400D03*
D17*
X165833800Y-122542600D03*
X165833800Y-120992600D03*
D14*
X165850600Y-117900000D03*
X165850600Y-119550000D03*
X164304200Y-120942600D03*
X164304200Y-122592600D03*
X187960000Y-121044200D03*
X187960000Y-122694200D03*
D18*
X157276800Y-119570000D03*
X157276800Y-115570000D03*
D17*
X186436000Y-122644200D03*
X186436000Y-121094200D03*
D34*
X155846800Y-65207400D03*
X158056800Y-65207400D03*
X155846800Y-57907400D03*
X158056800Y-57907400D03*
D35*
X158706800Y-59307400D03*
X158706800Y-62307400D03*
X158706800Y-63807400D03*
D27*
X179998300Y-87807800D03*
X177798300Y-87807800D03*
X177798300Y-89507800D03*
X179998300Y-89507800D03*
D11*
X177837800Y-98196400D03*
X179387800Y-98196400D03*
D36*
X187590800Y-72428000D03*
X191190800Y-72428000D03*
D37*
X187960000Y-119659500D03*
X187960000Y-118084500D03*
D19*
X183235600Y-131660600D03*
X183235600Y-133210600D03*
D38*
X175666400Y-115824000D03*
X175666400Y-118749000D03*
D39*
X183357200Y-103186000D03*
X183357200Y-104586000D03*
X185857200Y-104586000D03*
X185857200Y-103186000D03*
D36*
X171414400Y-72377200D03*
X175014400Y-72377200D03*
D40*
X194172800Y-138554700D03*
X196072800Y-138554700D03*
X195122800Y-136679700D03*
D15*
X176834800Y-129829200D03*
X176834800Y-121529200D03*
D11*
X195059000Y-98247200D03*
X196609000Y-98247200D03*
D41*
X184367800Y-86343800D03*
X184367800Y-86843800D03*
X184367800Y-87343800D03*
X184367800Y-87843800D03*
X184367800Y-88343800D03*
X184367800Y-88843800D03*
X184367800Y-89343800D03*
X184367800Y-89843800D03*
X184367800Y-90343800D03*
X184367800Y-90843800D03*
X184367800Y-91343800D03*
X184367800Y-91843800D03*
X184367800Y-92343800D03*
X184367800Y-92843800D03*
X184367800Y-93343800D03*
X184367800Y-93843800D03*
D42*
X186292800Y-95768800D03*
X186792800Y-95768800D03*
X187292800Y-95768800D03*
X187792800Y-95768800D03*
X188292800Y-95768800D03*
X188792800Y-95768800D03*
X189292800Y-95768800D03*
X189792800Y-95768800D03*
X190292800Y-95768800D03*
X190792800Y-95768800D03*
X191292800Y-95768800D03*
X191792800Y-95768800D03*
X192292800Y-95768800D03*
X192792800Y-95768800D03*
X193292800Y-95768800D03*
X193792800Y-95768800D03*
D41*
X195717800Y-93843800D03*
X195717800Y-93343800D03*
X195717800Y-92843800D03*
X195717800Y-92343800D03*
X195717800Y-91843800D03*
X195717800Y-91343800D03*
X195717800Y-90843800D03*
X195717800Y-90343800D03*
X195717800Y-89843800D03*
X195717800Y-89343800D03*
X195717800Y-88843800D03*
X195717800Y-88343800D03*
X195717800Y-87843800D03*
X195717800Y-87343800D03*
X195717800Y-86843800D03*
X195717800Y-86343800D03*
D42*
X193792800Y-84418800D03*
X193292800Y-84418800D03*
X192792800Y-84418800D03*
X192292800Y-84418800D03*
X191792800Y-84418800D03*
X191292800Y-84418800D03*
X190792800Y-84418800D03*
X190292800Y-84418800D03*
X189792800Y-84418800D03*
X189292800Y-84418800D03*
X188792800Y-84418800D03*
X188292800Y-84418800D03*
X187792800Y-84418800D03*
X187292800Y-84418800D03*
X186792800Y-84418800D03*
X186292800Y-84418800D03*
D37*
X167374600Y-119512500D03*
X167374600Y-117937500D03*
D14*
X186436000Y-118067000D03*
X186436000Y-119717000D03*
D11*
X195059000Y-96723200D03*
X196609000Y-96723200D03*
D16*
X187058600Y-97993200D03*
X185508600Y-97993200D03*
D43*
X215219600Y-87356400D03*
X214719600Y-87356400D03*
X214219600Y-87356400D03*
X213719600Y-87356400D03*
X213219600Y-87356400D03*
X212719600Y-87356400D03*
D44*
X212019600Y-88056400D03*
X212019600Y-88556400D03*
X212019600Y-89056400D03*
X212019600Y-89556400D03*
X212019600Y-90056400D03*
X212019600Y-90556400D03*
D43*
X212719600Y-91256400D03*
X213219600Y-91256400D03*
X213719600Y-91256400D03*
X214219600Y-91256400D03*
X214719600Y-91256400D03*
X215219600Y-91256400D03*
D44*
X215919600Y-90556400D03*
X215919600Y-90056400D03*
X215919600Y-89556400D03*
X215919600Y-89056400D03*
X215919600Y-88556400D03*
X215919600Y-88056400D03*
D40*
X204993200Y-138554700D03*
X206893200Y-138554700D03*
X205943200Y-136679700D03*
D19*
X220624400Y-90055400D03*
X220624400Y-91605400D03*
D10*
X199757800Y-91135200D03*
X198107800Y-91135200D03*
D19*
X162368200Y-131711400D03*
X162368200Y-133261400D03*
D16*
X182435800Y-84632800D03*
X180885800Y-84632800D03*
D31*
X184799000Y-127807400D03*
X184799000Y-126497400D03*
X186549000Y-127807400D03*
X186549000Y-126497400D03*
D32*
X183769000Y-129632400D03*
X185039000Y-129632400D03*
X186309000Y-129632400D03*
X187579000Y-129632400D03*
X187579000Y-124672400D03*
X186309000Y-124672400D03*
X185039000Y-124672400D03*
X183769000Y-124672400D03*
D10*
X184009800Y-101092000D03*
X182359800Y-101092000D03*
D19*
X217525600Y-90055400D03*
X217525600Y-91605400D03*
D45*
X185496100Y-101092000D03*
X187071100Y-101092000D03*
D11*
X198157800Y-86868000D03*
X199707800Y-86868000D03*
D12*
X168898600Y-119562200D03*
X168898600Y-117912200D03*
D13*
X165760400Y-77256100D03*
X165760400Y-74331100D03*
D10*
X212915000Y-65887600D03*
X211265000Y-65887600D03*
D16*
X179376300Y-86156800D03*
X177826300Y-86156800D03*
M02*
