%TF.GenerationSoftware,KiCad,Pcbnew,(6.0.7)*%
%TF.CreationDate,2023-03-12T18:49:50+01:00*%
%TF.ProjectId,Amon_board,416d6f6e-5f62-46f6-9172-642e6b696361,2.2*%
%TF.SameCoordinates,Original*%
%TF.FileFunction,Soldermask,Top*%
%TF.FilePolarity,Negative*%
%FSLAX46Y46*%
G04 Gerber Fmt 4.6, Leading zero omitted, Abs format (unit mm)*
G04 Created by KiCad (PCBNEW (6.0.7)) date 2023-03-12 18:49:50*
%MOMM*%
%LPD*%
G01*
G04 APERTURE LIST*
G04 Aperture macros list*
%AMRoundRect*
0 Rectangle with rounded corners*
0 $1 Rounding radius*
0 $2 $3 $4 $5 $6 $7 $8 $9 X,Y pos of 4 corners*
0 Add a 4 corners polygon primitive as box body*
4,1,4,$2,$3,$4,$5,$6,$7,$8,$9,$2,$3,0*
0 Add four circle primitives for the rounded corners*
1,1,$1+$1,$2,$3*
1,1,$1+$1,$4,$5*
1,1,$1+$1,$6,$7*
1,1,$1+$1,$8,$9*
0 Add four rect primitives between the rounded corners*
20,1,$1+$1,$2,$3,$4,$5,0*
20,1,$1+$1,$4,$5,$6,$7,0*
20,1,$1+$1,$6,$7,$8,$9,0*
20,1,$1+$1,$8,$9,$2,$3,0*%
%AMFreePoly0*
4,1,22,0.550000,-0.750000,0.000000,-0.750000,0.000000,-0.745033,-0.079941,-0.743568,-0.215256,-0.701293,-0.333266,-0.622738,-0.424486,-0.514219,-0.481581,-0.384460,-0.499164,-0.250000,-0.500000,-0.250000,-0.500000,0.250000,-0.499164,0.250000,-0.499963,0.256109,-0.478152,0.396186,-0.417904,0.524511,-0.324060,0.630769,-0.204165,0.706417,-0.067858,0.745374,0.000000,0.744959,0.000000,0.750000,
0.550000,0.750000,0.550000,-0.750000,0.550000,-0.750000,$1*%
%AMFreePoly1*
4,1,20,0.000000,0.744959,0.073905,0.744508,0.209726,0.703889,0.328688,0.626782,0.421226,0.519385,0.479903,0.390333,0.500000,0.250000,0.500000,-0.250000,0.499851,-0.262216,0.476331,-0.402017,0.414519,-0.529596,0.319384,-0.634700,0.198574,-0.708877,0.061801,-0.746166,0.000000,-0.745033,0.000000,-0.750000,-0.550000,-0.750000,-0.550000,0.750000,0.000000,0.750000,0.000000,0.744959,
0.000000,0.744959,$1*%
%AMFreePoly2*
4,1,6,1.000000,0.000000,0.500000,-0.750000,-0.500000,-0.750000,-0.500000,0.750000,0.500000,0.750000,1.000000,0.000000,1.000000,0.000000,$1*%
%AMFreePoly3*
4,1,6,0.500000,-0.750000,-0.650000,-0.750000,-0.150000,0.000000,-0.650000,0.750000,0.500000,0.750000,0.500000,-0.750000,0.500000,-0.750000,$1*%
G04 Aperture macros list end*
%ADD10FreePoly0,90.000000*%
%ADD11R,1.500000X1.000000*%
%ADD12FreePoly1,90.000000*%
%ADD13C,0.800000*%
%ADD14C,6.400000*%
%ADD15RoundRect,0.200000X0.200000X0.275000X-0.200000X0.275000X-0.200000X-0.275000X0.200000X-0.275000X0*%
%ADD16RoundRect,0.225000X-0.225000X-0.250000X0.225000X-0.250000X0.225000X0.250000X-0.225000X0.250000X0*%
%ADD17R,5.516000X5.516000*%
%ADD18C,5.516000*%
%ADD19R,1.700000X1.700000*%
%ADD20O,1.700000X1.700000*%
%ADD21RoundRect,0.200000X0.275000X-0.200000X0.275000X0.200000X-0.275000X0.200000X-0.275000X-0.200000X0*%
%ADD22RoundRect,0.250000X0.625000X-0.312500X0.625000X0.312500X-0.625000X0.312500X-0.625000X-0.312500X0*%
%ADD23RoundRect,0.200000X-0.275000X0.200000X-0.275000X-0.200000X0.275000X-0.200000X0.275000X0.200000X0*%
%ADD24R,3.600000X2.700000*%
%ADD25RoundRect,0.225000X0.225000X0.250000X-0.225000X0.250000X-0.225000X-0.250000X0.225000X-0.250000X0*%
%ADD26RoundRect,0.225000X0.250000X-0.225000X0.250000X0.225000X-0.250000X0.225000X-0.250000X-0.225000X0*%
%ADD27R,1.800000X2.500000*%
%ADD28RoundRect,0.225000X-0.250000X0.225000X-0.250000X-0.225000X0.250000X-0.225000X0.250000X0.225000X0*%
%ADD29R,2.500000X2.500000*%
%ADD30C,2.500000*%
%ADD31RoundRect,0.150000X-0.650000X-0.150000X0.650000X-0.150000X0.650000X0.150000X-0.650000X0.150000X0*%
%ADD32R,0.500000X0.350000*%
%ADD33RoundRect,0.200000X-0.200000X-0.275000X0.200000X-0.275000X0.200000X0.275000X-0.200000X0.275000X0*%
%ADD34RoundRect,0.250000X-0.450000X-0.425000X0.450000X-0.425000X0.450000X0.425000X-0.450000X0.425000X0*%
%ADD35RoundRect,0.250000X0.600000X0.600000X-0.600000X0.600000X-0.600000X-0.600000X0.600000X-0.600000X0*%
%ADD36C,1.700000*%
%ADD37C,0.650000*%
%ADD38O,1.600000X1.000000*%
%ADD39R,1.150000X0.300000*%
%ADD40O,2.100000X1.000000*%
%ADD41FreePoly2,90.000000*%
%ADD42FreePoly3,90.000000*%
%ADD43R,1.560000X0.650000*%
%ADD44RoundRect,0.250000X0.725000X-0.600000X0.725000X0.600000X-0.725000X0.600000X-0.725000X-0.600000X0*%
%ADD45O,1.950000X1.700000*%
%ADD46R,1.600000X0.700000*%
%ADD47R,1.400000X1.200000*%
%ADD48R,1.400000X1.600000*%
%ADD49R,2.200000X1.200000*%
%ADD50R,1.000000X0.900000*%
%ADD51RoundRect,0.150000X0.150000X-0.820000X0.150000X0.820000X-0.150000X0.820000X-0.150000X-0.820000X0*%
%ADD52R,3.510000X2.620000*%
%ADD53RoundRect,0.250000X0.362500X0.700000X-0.362500X0.700000X-0.362500X-0.700000X0.362500X-0.700000X0*%
%ADD54R,0.800000X1.000000*%
%ADD55C,0.900000*%
%ADD56R,1.500000X0.700000*%
%ADD57RoundRect,0.250000X0.600000X0.725000X-0.600000X0.725000X-0.600000X-0.725000X0.600000X-0.725000X0*%
%ADD58O,1.700000X1.950000*%
%ADD59RoundRect,0.250000X-1.050000X-0.550000X1.050000X-0.550000X1.050000X0.550000X-1.050000X0.550000X0*%
%ADD60RoundRect,0.218750X0.256250X-0.218750X0.256250X0.218750X-0.256250X0.218750X-0.256250X-0.218750X0*%
%ADD61RoundRect,0.250000X-0.625000X0.312500X-0.625000X-0.312500X0.625000X-0.312500X0.625000X0.312500X0*%
%ADD62R,1.000000X0.800000*%
%ADD63RoundRect,0.150000X0.150000X-0.587500X0.150000X0.587500X-0.150000X0.587500X-0.150000X-0.587500X0*%
%ADD64RoundRect,0.075000X-0.700000X-0.075000X0.700000X-0.075000X0.700000X0.075000X-0.700000X0.075000X0*%
%ADD65RoundRect,0.075000X-0.075000X-0.700000X0.075000X-0.700000X0.075000X0.700000X-0.075000X0.700000X0*%
%ADD66RoundRect,0.075000X-0.075000X0.350000X-0.075000X-0.350000X0.075000X-0.350000X0.075000X0.350000X0*%
%ADD67RoundRect,0.075000X-0.350000X-0.075000X0.350000X-0.075000X0.350000X0.075000X-0.350000X0.075000X0*%
%ADD68RoundRect,0.218750X-0.218750X-0.256250X0.218750X-0.256250X0.218750X0.256250X-0.218750X0.256250X0*%
%ADD69C,3.200000*%
G04 APERTURE END LIST*
D10*
X223418400Y-90200000D03*
D11*
X223418400Y-88900000D03*
D12*
X223418400Y-87600000D03*
D13*
X221762656Y-32237344D03*
X221762656Y-35631456D03*
X220065600Y-31534400D03*
X217665600Y-33934400D03*
D14*
X220065600Y-33934400D03*
D13*
X222465600Y-33934400D03*
X220065600Y-36334400D03*
X218368544Y-32237344D03*
X218368544Y-35631456D03*
D15*
X212915000Y-63360300D03*
X211265000Y-63360300D03*
D16*
X211315000Y-58305700D03*
X212865000Y-58305700D03*
D17*
X159969200Y-74174800D03*
D18*
X159969200Y-81374800D03*
D19*
X205232000Y-97068800D03*
D20*
X205232000Y-94528800D03*
X205232000Y-91988800D03*
X205232000Y-89448800D03*
D21*
X203403200Y-138442200D03*
X203403200Y-136792200D03*
D15*
X212915000Y-55778400D03*
X211265000Y-55778400D03*
D22*
X177952400Y-118749000D03*
X177952400Y-115824000D03*
D15*
X184009800Y-97993200D03*
X182359800Y-97993200D03*
D23*
X184912000Y-121044200D03*
X184912000Y-122694200D03*
D24*
X197408800Y-129930800D03*
X197408800Y-121630800D03*
D21*
X168893000Y-122592600D03*
X168893000Y-120942600D03*
X189484000Y-122694200D03*
X189484000Y-121044200D03*
D25*
X211798200Y-92760800D03*
X210248200Y-92760800D03*
D26*
X162774600Y-122542600D03*
X162774600Y-120992600D03*
D15*
X212915000Y-60833000D03*
X211265000Y-60833000D03*
D27*
X169531000Y-128898400D03*
X169531000Y-124898400D03*
D22*
X165760400Y-81929700D03*
X165760400Y-79004700D03*
D28*
X210261200Y-86601000D03*
X210261200Y-88151000D03*
D29*
X192521200Y-144424400D03*
D30*
X197521200Y-144424400D03*
D31*
X214128800Y-115849400D03*
X214128800Y-117119400D03*
X214128800Y-118389400D03*
X214128800Y-119659400D03*
X221328800Y-119659400D03*
X221328800Y-118389400D03*
X221328800Y-117119400D03*
X221328800Y-115849400D03*
D15*
X215435200Y-81280000D03*
X213785200Y-81280000D03*
D26*
X183388000Y-122644200D03*
X183388000Y-121094200D03*
D19*
X189531200Y-65550000D03*
D20*
X189531200Y-68090000D03*
X192071200Y-65550000D03*
X192071200Y-68090000D03*
X194611200Y-65550000D03*
X194611200Y-68090000D03*
X197151200Y-65550000D03*
X197151200Y-68090000D03*
D32*
X219113200Y-88655800D03*
X219113200Y-88005800D03*
X219113200Y-87355800D03*
X219113200Y-86705800D03*
X220713200Y-86705800D03*
X220713200Y-87355800D03*
X220713200Y-88005800D03*
X220713200Y-88655800D03*
D21*
X192582800Y-138442200D03*
X192582800Y-136792200D03*
D23*
X197662800Y-136792200D03*
X197662800Y-138442200D03*
D29*
X160020000Y-110866800D03*
D30*
X160020000Y-105866800D03*
D23*
X162610800Y-62307200D03*
X162610800Y-63957200D03*
D19*
X180873400Y-140716000D03*
D20*
X180873400Y-143256000D03*
X180873400Y-145796000D03*
D33*
X206349600Y-108661200D03*
X207999600Y-108661200D03*
D13*
X159918400Y-31534400D03*
D14*
X159918400Y-33934400D03*
D13*
X162318400Y-33934400D03*
X159918400Y-36334400D03*
X158221344Y-35631456D03*
X157518400Y-33934400D03*
X161615456Y-35631456D03*
X158221344Y-32237344D03*
X161615456Y-32237344D03*
D34*
X185035200Y-132029200D03*
X187735200Y-132029200D03*
D35*
X220421200Y-65887600D03*
D36*
X217881200Y-65887600D03*
X220421200Y-63347600D03*
X217881200Y-63347600D03*
X220421200Y-60807600D03*
X217881200Y-60807600D03*
X220421200Y-58267600D03*
X217881200Y-58267600D03*
X220421200Y-55727600D03*
X217881200Y-55727600D03*
D15*
X184009800Y-99568000D03*
X182359800Y-99568000D03*
D21*
X189484000Y-119717000D03*
X189484000Y-118067000D03*
D25*
X179376300Y-94234000D03*
X177826300Y-94234000D03*
D29*
X203900400Y-144424400D03*
D30*
X208900400Y-144424400D03*
D25*
X182435800Y-86156800D03*
X180885800Y-86156800D03*
D19*
X184607200Y-140716000D03*
D20*
X184607200Y-143256000D03*
X184607200Y-145796000D03*
D34*
X164269400Y-132130800D03*
X166969400Y-132130800D03*
D37*
X219777600Y-75748400D03*
X219777600Y-81528400D03*
D38*
X223457600Y-82958400D03*
X223457600Y-74318400D03*
D39*
X218712600Y-81988400D03*
X218712600Y-81188400D03*
X218712600Y-79888400D03*
X218712600Y-78888400D03*
X218712600Y-78388400D03*
X218712600Y-77388400D03*
X218712600Y-76088400D03*
X218712600Y-75288400D03*
X218712600Y-75588400D03*
X218712600Y-76388400D03*
X218712600Y-76888400D03*
X218712600Y-77888400D03*
X218712600Y-79388400D03*
X218712600Y-80388400D03*
X218712600Y-80888400D03*
X218712600Y-81688400D03*
D40*
X219277600Y-74318400D03*
X219277600Y-82958400D03*
D25*
X179376300Y-92710000D03*
X177826300Y-92710000D03*
D41*
X165252400Y-63971000D03*
D42*
X165252400Y-62521000D03*
D25*
X179376300Y-91186000D03*
X177826300Y-91186000D03*
D27*
X190195200Y-128949200D03*
X190195200Y-124949200D03*
D16*
X219798600Y-113995200D03*
X221348600Y-113995200D03*
D13*
X221711856Y-142473344D03*
X222414800Y-144170400D03*
X218317744Y-145867456D03*
X220014800Y-146570400D03*
X220014800Y-141770400D03*
X221711856Y-145867456D03*
X217614800Y-144170400D03*
X218317744Y-142473344D03*
D14*
X220014800Y-144170400D03*
D43*
X215909400Y-79588400D03*
X215909400Y-78638400D03*
X215909400Y-77688400D03*
X213209400Y-77688400D03*
X213209400Y-78638400D03*
X213209400Y-79588400D03*
D15*
X199757800Y-89560400D03*
X198107800Y-89560400D03*
D44*
X217148800Y-136653600D03*
D45*
X217148800Y-134153600D03*
X217148800Y-131653600D03*
X217148800Y-129153600D03*
X217148800Y-126653600D03*
X217148800Y-124153600D03*
D19*
X173405800Y-140716000D03*
D20*
X173405800Y-143256000D03*
X173405800Y-145796000D03*
D26*
X170422600Y-122542600D03*
X170422600Y-120992600D03*
D46*
X210321200Y-101991600D03*
X210321200Y-103091600D03*
X210321200Y-104191600D03*
X210321200Y-105291600D03*
X210321200Y-106391600D03*
X210321200Y-107491600D03*
X210321200Y-108591600D03*
X210321200Y-109691600D03*
X210321200Y-110791600D03*
D47*
X210821200Y-111991600D03*
D48*
X210821200Y-97391600D03*
D49*
X220421200Y-111991600D03*
X220421200Y-96491600D03*
D26*
X191008000Y-122644200D03*
X191008000Y-121094200D03*
D25*
X185737800Y-82550000D03*
X184187800Y-82550000D03*
D28*
X210261200Y-89649000D03*
X210261200Y-91199000D03*
D26*
X219100400Y-91605400D03*
X219100400Y-90055400D03*
D33*
X185438600Y-99568000D03*
X187088600Y-99568000D03*
D15*
X215333600Y-75996800D03*
X213683600Y-75996800D03*
D33*
X206337400Y-107086400D03*
X207987400Y-107086400D03*
D23*
X208483200Y-136792200D03*
X208483200Y-138442200D03*
X167363400Y-120942600D03*
X167363400Y-122592600D03*
D50*
X170726000Y-89542400D03*
X170726000Y-93642400D03*
X169126000Y-93642400D03*
X169126000Y-89542400D03*
D16*
X198157800Y-85344000D03*
X199707800Y-85344000D03*
D19*
X173122800Y-65550000D03*
D20*
X173122800Y-68090000D03*
X175662800Y-65550000D03*
X175662800Y-68090000D03*
X178202800Y-65550000D03*
X178202800Y-68090000D03*
X180742800Y-65550000D03*
X180742800Y-68090000D03*
D51*
X163093400Y-129581600D03*
X164363400Y-129581600D03*
X165633400Y-129581600D03*
X166903400Y-129581600D03*
X166903400Y-124621600D03*
X165633400Y-124621600D03*
X164363400Y-124621600D03*
X163093400Y-124621600D03*
D52*
X164998400Y-127101600D03*
D33*
X206337400Y-102514400D03*
X207987400Y-102514400D03*
D53*
X180263800Y-96215200D03*
X176938800Y-96215200D03*
D33*
X206337400Y-104038400D03*
X207987400Y-104038400D03*
D16*
X206375200Y-105562400D03*
X207925200Y-105562400D03*
D26*
X165833800Y-122542600D03*
X165833800Y-120992600D03*
D23*
X165850600Y-117900000D03*
X165850600Y-119550000D03*
X164304200Y-120942600D03*
X164304200Y-122592600D03*
X187960000Y-121044200D03*
X187960000Y-122694200D03*
D27*
X157276800Y-119570000D03*
X157276800Y-115570000D03*
D26*
X186436000Y-122644200D03*
X186436000Y-121094200D03*
D54*
X155846800Y-65207400D03*
X158056800Y-65207400D03*
D55*
X156946800Y-63057400D03*
D54*
X155846800Y-57907400D03*
D55*
X156946800Y-60057400D03*
D54*
X158056800Y-57907400D03*
D56*
X158706800Y-59307400D03*
X158706800Y-62307400D03*
X158706800Y-63807400D03*
D57*
X212842800Y-38603600D03*
D58*
X210342800Y-38603600D03*
X207842800Y-38603600D03*
X205342800Y-38603600D03*
D47*
X179998300Y-87807800D03*
X177798300Y-87807800D03*
X177798300Y-89507800D03*
X179998300Y-89507800D03*
D16*
X177837800Y-98196400D03*
X179387800Y-98196400D03*
D59*
X187590800Y-72428000D03*
X191190800Y-72428000D03*
D60*
X187960000Y-119659500D03*
X187960000Y-118084500D03*
D28*
X183235600Y-131660600D03*
X183235600Y-133210600D03*
D61*
X175666400Y-115824000D03*
X175666400Y-118749000D03*
D62*
X183357200Y-103186000D03*
X183357200Y-104586000D03*
X185857200Y-104586000D03*
X185857200Y-103186000D03*
D59*
X171414400Y-72377200D03*
X175014400Y-72377200D03*
D63*
X194172800Y-138554700D03*
X196072800Y-138554700D03*
X195122800Y-136679700D03*
D24*
X176834800Y-129829200D03*
X176834800Y-121529200D03*
D13*
X158221344Y-145918256D03*
X162318400Y-144221200D03*
X158221344Y-142524144D03*
X159918400Y-146621200D03*
X159918400Y-141821200D03*
X161615456Y-142524144D03*
D14*
X159918400Y-144221200D03*
D13*
X161615456Y-145918256D03*
X157518400Y-144221200D03*
D16*
X195059000Y-98247200D03*
X196609000Y-98247200D03*
D64*
X184367800Y-86343800D03*
X184367800Y-86843800D03*
X184367800Y-87343800D03*
X184367800Y-87843800D03*
X184367800Y-88343800D03*
X184367800Y-88843800D03*
X184367800Y-89343800D03*
X184367800Y-89843800D03*
X184367800Y-90343800D03*
X184367800Y-90843800D03*
X184367800Y-91343800D03*
X184367800Y-91843800D03*
X184367800Y-92343800D03*
X184367800Y-92843800D03*
X184367800Y-93343800D03*
X184367800Y-93843800D03*
D65*
X186292800Y-95768800D03*
X186792800Y-95768800D03*
X187292800Y-95768800D03*
X187792800Y-95768800D03*
X188292800Y-95768800D03*
X188792800Y-95768800D03*
X189292800Y-95768800D03*
X189792800Y-95768800D03*
X190292800Y-95768800D03*
X190792800Y-95768800D03*
X191292800Y-95768800D03*
X191792800Y-95768800D03*
X192292800Y-95768800D03*
X192792800Y-95768800D03*
X193292800Y-95768800D03*
X193792800Y-95768800D03*
D64*
X195717800Y-93843800D03*
X195717800Y-93343800D03*
X195717800Y-92843800D03*
X195717800Y-92343800D03*
X195717800Y-91843800D03*
X195717800Y-91343800D03*
X195717800Y-90843800D03*
X195717800Y-90343800D03*
X195717800Y-89843800D03*
X195717800Y-89343800D03*
X195717800Y-88843800D03*
X195717800Y-88343800D03*
X195717800Y-87843800D03*
X195717800Y-87343800D03*
X195717800Y-86843800D03*
X195717800Y-86343800D03*
D65*
X193792800Y-84418800D03*
X193292800Y-84418800D03*
X192792800Y-84418800D03*
X192292800Y-84418800D03*
X191792800Y-84418800D03*
X191292800Y-84418800D03*
X190792800Y-84418800D03*
X190292800Y-84418800D03*
X189792800Y-84418800D03*
X189292800Y-84418800D03*
X188792800Y-84418800D03*
X188292800Y-84418800D03*
X187792800Y-84418800D03*
X187292800Y-84418800D03*
X186792800Y-84418800D03*
X186292800Y-84418800D03*
D60*
X167374600Y-119512500D03*
X167374600Y-117937500D03*
D17*
X160020000Y-90492000D03*
D18*
X160020000Y-97692000D03*
D23*
X186436000Y-118067000D03*
X186436000Y-119717000D03*
D16*
X195059000Y-96723200D03*
X196609000Y-96723200D03*
D25*
X187058600Y-97993200D03*
X185508600Y-97993200D03*
D66*
X215219600Y-87356400D03*
X214719600Y-87356400D03*
X214219600Y-87356400D03*
X213719600Y-87356400D03*
X213219600Y-87356400D03*
X212719600Y-87356400D03*
D67*
X212019600Y-88056400D03*
X212019600Y-88556400D03*
X212019600Y-89056400D03*
X212019600Y-89556400D03*
X212019600Y-90056400D03*
X212019600Y-90556400D03*
D66*
X212719600Y-91256400D03*
X213219600Y-91256400D03*
X213719600Y-91256400D03*
X214219600Y-91256400D03*
X214719600Y-91256400D03*
X215219600Y-91256400D03*
D67*
X215919600Y-90556400D03*
X215919600Y-90056400D03*
X215919600Y-89556400D03*
X215919600Y-89056400D03*
X215919600Y-88556400D03*
X215919600Y-88056400D03*
D63*
X204993200Y-138554700D03*
X206893200Y-138554700D03*
X205943200Y-136679700D03*
D19*
X169672000Y-140716000D03*
D20*
X169672000Y-143256000D03*
X169672000Y-145796000D03*
D11*
X167436800Y-108712000D03*
X167436800Y-107412000D03*
D28*
X220624400Y-90055400D03*
X220624400Y-91605400D03*
D15*
X199757800Y-91135200D03*
X198107800Y-91135200D03*
D28*
X162368200Y-131711400D03*
X162368200Y-133261400D03*
D25*
X182435800Y-84632800D03*
X180885800Y-84632800D03*
D19*
X177139600Y-140716000D03*
D20*
X177139600Y-143256000D03*
X177139600Y-145796000D03*
D19*
X205282800Y-114452400D03*
D20*
X202742800Y-114452400D03*
X200202800Y-114452400D03*
X197662800Y-114452400D03*
X195122800Y-114452400D03*
X192582800Y-114452400D03*
D51*
X183769000Y-129632400D03*
X185039000Y-129632400D03*
X186309000Y-129632400D03*
X187579000Y-129632400D03*
X187579000Y-124672400D03*
X186309000Y-124672400D03*
X185039000Y-124672400D03*
X183769000Y-124672400D03*
D52*
X185674000Y-127152400D03*
D15*
X184009800Y-101092000D03*
X182359800Y-101092000D03*
D28*
X217525600Y-90055400D03*
X217525600Y-91605400D03*
D68*
X185496100Y-101092000D03*
X187071100Y-101092000D03*
D69*
X176821200Y-42913200D03*
D16*
X198157800Y-86868000D03*
X199707800Y-86868000D03*
D21*
X168898600Y-119562200D03*
X168898600Y-117912200D03*
D22*
X165760400Y-77256100D03*
X165760400Y-74331100D03*
D15*
X212915000Y-65887600D03*
X211265000Y-65887600D03*
D25*
X179376300Y-86156800D03*
X177826300Y-86156800D03*
D69*
X193077200Y-43014800D03*
M02*
