M48
; DRILL file {KiCad (6.0.7)} date Sun Mar 12 18:49:48 2023
; FORMAT={-:-/ absolute / metric / decimal}
; #@! TF.CreationDate,2023-03-12T18:49:48+01:00
; #@! TF.GenerationSoftware,Kicad,Pcbnew,(6.0.7)
; #@! TF.FileFunction,Plated,1,4,PTH
FMAT,2
METRIC
; #@! TA.AperFunction,Plated,PTH,ViaDrill
T1C0.200
; #@! TA.AperFunction,Plated,PTH,ViaDrill
T2C0.400
; #@! TA.AperFunction,Plated,PTH,ComponentDrill
T3C0.500
; #@! TA.AperFunction,Plated,PTH,ComponentDrill
T4C0.600
; #@! TA.AperFunction,Plated,PTH,ComponentDrill
T5C0.950
; #@! TA.AperFunction,Plated,PTH,ComponentDrill
T6C1.000
; #@! TA.AperFunction,Plated,PTH,ComponentDrill
T7C1.300
; #@! TA.AperFunction,Plated,PTH,ComponentDrill
T8C3.200
; #@! TA.AperFunction,Plated,PTH,ComponentDrill
T9C4.500
%
G90
G05
T1
X157.988Y-55.22
X159.969Y-122.53
X159.969Y-125.12
X159.969Y-127.711
X159.969Y-130.302
X160.579Y-55.22
X162.368Y-134.135
X163.17Y-55.22
X165.583Y-133.756
X165.76Y-55.22
X166.878Y-64.008
X167.234Y-78.994
X169.126Y-90.729
X170.434Y-118.516
X170.434Y-119.329
X170.434Y-120.142
X171.399Y-118.516
X171.399Y-119.329
X173.025Y-62.433
X175.616Y-62.433
X178.206Y-62.433
X180.543Y-121.006
X180.543Y-122.919
X180.543Y-124.833
X180.543Y-126.746
X180.543Y-128.659
X180.543Y-130.573
X180.543Y-132.486
X180.797Y-62.433
X181.508Y-90.729
X181.661Y-93.116
X182.436Y-83.765
X183.083Y-65.532
X183.236Y-134.112
X183.388Y-120.091
X185.293Y-65.532
X185.471Y-96.164
X185.725Y-81.636
X186.385Y-91.846
X186.995Y-103.175
X187.3Y-94.132
X187.503Y-65.532
X187.817Y-97.993
X188.062Y-93.523
X188.773Y-93.523
X189.433Y-62.535
X189.484Y-93.523
X189.586Y-74.117
X190.348Y-93.523
X191.008Y-118.567
X191.008Y-119.38
X191.008Y-120.193
X191.11Y-82.093
X191.211Y-93.523
X191.77Y-99.628
X191.973Y-118.567
X191.973Y-119.38
X192.024Y-62.535
X192.075Y-94.285
X192.532Y-99.628
X192.583Y-135.89
X192.837Y-125.679
X193.142Y-97.688
X193.243Y-93.218
X193.751Y-99.974
X194.513Y-99.974
X194.615Y-62.535
X195.072Y-95.809
X196.647Y-100.279
X196.723Y-125.679
X197.206Y-62.535
X197.968Y-93.269
X198.171Y-84.379
X199.657Y-80.15
X200.609Y-121.92
X200.609Y-125.679
X200.609Y-129.896
X200.699Y-89.51
X201.498Y-78.511
X203.34Y-76.873
X203.403Y-135.839
X205.181Y-75.235
X205.384Y-105.562
X205.435Y-104.191
X205.435Y-108.661
X206.959Y-109.728
X207.023Y-73.596
X207.62Y-91.897
X208.382Y-109.728
X210.261Y-85.723
X210.312Y-60.833
X211.531Y-107.493
X211.633Y-104.191
X211.734Y-106.375
X211.798Y-93.523
X211.867Y-78.638
X212.801Y-118.364
X212.852Y-102.667
X213.766Y-86.055
X214.559Y-77.521
X214.559Y-79.705
X216.967Y-87.63
X217.006Y-88.556
X217.506Y-81.178
X217.557Y-76.098
X218.135Y-88.646
X218.338Y-39.878
X220.015Y-105.359
X220.015Y-108.204
X221.539Y-90.068
X221.844Y-39.827
X222.047Y-76.911
X222.047Y-80.061
X222.25Y-113.995
X222.606Y-99.67
X223.418Y-86.411
X223.418Y-91.999
T2
X160.104Y-59.271
X177.851Y-99.212
X186.334Y-133.553
X195.123Y-135.331
X205.943Y-135.331
T3
X157.518Y-33.934
X157.518Y-144.221
X158.221Y-32.237
X158.221Y-35.631
X158.221Y-142.524
X158.221Y-145.918
X159.918Y-31.534
X159.918Y-36.334
X159.918Y-141.821
X159.918Y-146.621
X161.615Y-32.237
X161.615Y-35.631
X161.615Y-142.524
X161.615Y-145.918
X162.318Y-33.934
X162.318Y-144.221
X217.615Y-144.17
X217.666Y-33.934
X218.318Y-142.473
X218.318Y-145.867
X218.369Y-32.237
X218.369Y-35.631
X220.015Y-141.77
X220.015Y-146.57
X220.066Y-31.534
X220.066Y-36.334
X221.712Y-142.473
X221.712Y-145.867
X221.763Y-32.237
X221.763Y-35.631
X222.415Y-144.17
X222.466Y-33.934
T5
X205.343Y-38.604
X207.843Y-38.604
X210.343Y-38.604
X212.843Y-38.604
X217.149Y-124.154
X217.149Y-126.654
X217.149Y-129.154
X217.149Y-131.654
X217.149Y-134.154
X217.149Y-136.654
T6
X169.672Y-140.716
X169.672Y-143.256
X169.672Y-145.796
X173.123Y-65.55
X173.123Y-68.09
X173.406Y-140.716
X173.406Y-143.256
X173.406Y-145.796
X175.663Y-65.55
X175.663Y-68.09
X177.14Y-140.716
X177.14Y-143.256
X177.14Y-145.796
X178.203Y-65.55
X178.203Y-68.09
X180.743Y-65.55
X180.743Y-68.09
X180.873Y-140.716
X180.873Y-143.256
X180.873Y-145.796
X184.607Y-140.716
X184.607Y-143.256
X184.607Y-145.796
X189.531Y-65.55
X189.531Y-68.09
X192.071Y-65.55
X192.071Y-68.09
X192.583Y-114.452
X194.611Y-65.55
X194.611Y-68.09
X195.123Y-114.452
X197.151Y-65.55
X197.151Y-68.09
X197.663Y-114.452
X200.203Y-114.452
X202.743Y-114.452
X205.232Y-89.449
X205.232Y-91.989
X205.232Y-94.529
X205.232Y-97.069
X205.283Y-114.452
X217.881Y-55.728
X217.881Y-58.268
X217.881Y-60.808
X217.881Y-63.348
X217.881Y-65.888
X220.421Y-55.728
X220.421Y-58.268
X220.421Y-60.808
X220.421Y-63.348
X220.421Y-65.888
T7
X160.02Y-105.867
X160.02Y-110.867
X192.521Y-144.424
X197.521Y-144.424
X203.9Y-144.424
X208.9Y-144.424
T8
X159.918Y-33.934
X159.918Y-144.221
X220.015Y-144.17
X220.066Y-33.934
T9
X159.969Y-74.175
X159.969Y-81.375
X160.02Y-90.492
X160.02Y-97.692
T4
G00X218.728Y-74.318
M15
G01X219.828Y-74.318
M16
G05
G00X218.728Y-82.958
M15
G01X219.828Y-82.958
M16
G05
G00X223.158Y-74.318
M15
G01X223.758Y-74.318
M16
G05
G00X223.158Y-82.958
M15
G01X223.758Y-82.958
M16
G05
T0
M30
