%TF.GenerationSoftware,KiCad,Pcbnew,(6.0.2-0)*%
%TF.CreationDate,2022-08-03T15:23:41+02:00*%
%TF.ProjectId,Amon_led_board,416d6f6e-5f6c-4656-945f-626f6172642e,2*%
%TF.SameCoordinates,Original*%
%TF.FileFunction,Copper,L2,Bot*%
%TF.FilePolarity,Positive*%
%FSLAX46Y46*%
G04 Gerber Fmt 4.6, Leading zero omitted, Abs format (unit mm)*
G04 Created by KiCad (PCBNEW (6.0.2-0)) date 2022-08-03 15:23:41*
%MOMM*%
%LPD*%
G01*
G04 APERTURE LIST*
%TA.AperFunction,ComponentPad*%
%ADD10R,1.700000X1.700000*%
%TD*%
%TA.AperFunction,ComponentPad*%
%ADD11O,1.700000X1.700000*%
%TD*%
%TA.AperFunction,ViaPad*%
%ADD12C,0.700000*%
%TD*%
G04 APERTURE END LIST*
D10*
%TO.P,J1,1,Pin_1*%
%TO.N,GND*%
X139192000Y-96809800D03*
D11*
%TO.P,J1,2,Pin_2*%
%TO.N,Net-(J1-Pad2)*%
X139192000Y-94269800D03*
%TO.P,J1,3,Pin_3*%
%TO.N,Net-(J1-Pad3)*%
X139192000Y-91729800D03*
%TD*%
D12*
%TO.N,GND*%
X138379200Y-99500000D03*
X140055600Y-99500000D03*
X138430000Y-88800000D03*
X141833600Y-99500000D03*
X151600000Y-91300000D03*
X140055600Y-88800000D03*
X151600000Y-96800000D03*
X146913600Y-94335600D03*
X146913600Y-92405200D03*
%TD*%
%TA.AperFunction,Conductor*%
%TO.N,GND*%
G36*
X147863287Y-87904002D02*
G01*
X147909780Y-87957658D01*
X147919884Y-88027932D01*
X147890390Y-88092512D01*
X147880937Y-88102300D01*
X147759378Y-88215260D01*
X147577287Y-88437732D01*
X147427073Y-88682858D01*
X147311517Y-88946102D01*
X147232756Y-89222594D01*
X147192249Y-89507216D01*
X147192227Y-89511505D01*
X147192226Y-89511512D01*
X147190765Y-89790417D01*
X147190743Y-89794703D01*
X147228268Y-90079734D01*
X147304129Y-90357036D01*
X147305813Y-90360984D01*
X147397657Y-90576307D01*
X147416923Y-90621476D01*
X147564561Y-90868161D01*
X147744313Y-91092528D01*
X147761397Y-91108740D01*
X147919849Y-91259105D01*
X147952851Y-91290423D01*
X148186317Y-91458186D01*
X148190112Y-91460195D01*
X148190113Y-91460196D01*
X148211869Y-91471715D01*
X148440392Y-91592712D01*
X148710373Y-91691511D01*
X148991264Y-91752755D01*
X149019841Y-91755004D01*
X149214282Y-91770307D01*
X149214291Y-91770307D01*
X149216739Y-91770500D01*
X149372271Y-91770500D01*
X149374407Y-91770354D01*
X149374418Y-91770354D01*
X149582548Y-91756165D01*
X149582554Y-91756164D01*
X149586825Y-91755873D01*
X149591020Y-91755004D01*
X149591022Y-91755004D01*
X149727584Y-91726723D01*
X149868342Y-91697574D01*
X150139343Y-91601607D01*
X150322329Y-91507161D01*
X150391005Y-91471715D01*
X150391006Y-91471715D01*
X150394812Y-91469750D01*
X150398313Y-91467289D01*
X150398317Y-91467287D01*
X150512417Y-91387096D01*
X150630023Y-91304441D01*
X150840622Y-91108740D01*
X151022713Y-90886268D01*
X151172927Y-90641142D01*
X151288483Y-90377898D01*
X151289966Y-90372694D01*
X151366068Y-90105534D01*
X151367244Y-90101406D01*
X151407751Y-89816784D01*
X151407845Y-89798951D01*
X151409235Y-89533583D01*
X151409235Y-89533576D01*
X151409257Y-89529297D01*
X151371732Y-89244266D01*
X151295871Y-88966964D01*
X151183077Y-88702524D01*
X151035439Y-88455839D01*
X150855687Y-88231472D01*
X150852580Y-88228524D01*
X150852574Y-88228517D01*
X150718617Y-88101397D01*
X150682972Y-88039997D01*
X150686181Y-87969073D01*
X150727225Y-87911143D01*
X150793073Y-87884599D01*
X150805349Y-87884000D01*
X152366000Y-87884000D01*
X152434121Y-87904002D01*
X152480614Y-87957658D01*
X152492000Y-88010000D01*
X152492000Y-100366000D01*
X152471998Y-100434121D01*
X152418342Y-100480614D01*
X152366000Y-100492000D01*
X150677329Y-100492000D01*
X150609208Y-100471998D01*
X150562715Y-100418342D01*
X150552611Y-100348068D01*
X150582105Y-100283488D01*
X150604879Y-100262913D01*
X150626512Y-100247710D01*
X150626525Y-100247699D01*
X150630023Y-100245241D01*
X150840622Y-100049540D01*
X151022713Y-99827068D01*
X151172927Y-99581942D01*
X151288483Y-99318698D01*
X151367244Y-99042206D01*
X151407751Y-98757584D01*
X151407845Y-98739751D01*
X151409235Y-98474383D01*
X151409235Y-98474376D01*
X151409257Y-98470097D01*
X151371732Y-98185066D01*
X151295871Y-97907764D01*
X151240268Y-97777406D01*
X151184763Y-97647276D01*
X151184761Y-97647272D01*
X151183077Y-97643324D01*
X151035439Y-97396639D01*
X150855687Y-97172272D01*
X150647149Y-96974377D01*
X150413683Y-96806614D01*
X150391843Y-96795050D01*
X150368654Y-96782772D01*
X150159608Y-96672088D01*
X149889627Y-96573289D01*
X149608736Y-96512045D01*
X149577685Y-96509601D01*
X149385718Y-96494493D01*
X149385709Y-96494493D01*
X149383261Y-96494300D01*
X149227729Y-96494300D01*
X149225593Y-96494446D01*
X149225582Y-96494446D01*
X149017452Y-96508635D01*
X149017446Y-96508636D01*
X149013175Y-96508927D01*
X149008980Y-96509796D01*
X149008978Y-96509796D01*
X148874307Y-96537685D01*
X148731658Y-96567226D01*
X148460657Y-96663193D01*
X148205188Y-96795050D01*
X148201687Y-96797511D01*
X148201683Y-96797513D01*
X148191594Y-96804604D01*
X147969977Y-96960359D01*
X147759378Y-97156060D01*
X147577287Y-97378532D01*
X147427073Y-97623658D01*
X147311517Y-97886902D01*
X147232756Y-98163394D01*
X147192249Y-98448016D01*
X147192227Y-98452305D01*
X147192226Y-98452312D01*
X147190765Y-98731217D01*
X147190743Y-98735503D01*
X147228268Y-99020534D01*
X147304129Y-99297836D01*
X147416923Y-99562276D01*
X147564561Y-99808961D01*
X147744313Y-100033328D01*
X147952851Y-100231223D01*
X147998019Y-100263680D01*
X148041665Y-100319672D01*
X148048111Y-100390375D01*
X148015308Y-100453340D01*
X147953672Y-100488574D01*
X147924491Y-100492000D01*
X137634000Y-100492000D01*
X137565879Y-100471998D01*
X137519386Y-100418342D01*
X137508000Y-100366000D01*
X137508000Y-97704469D01*
X137834001Y-97704469D01*
X137834371Y-97711290D01*
X137839895Y-97762152D01*
X137843521Y-97777404D01*
X137888676Y-97897854D01*
X137897214Y-97913449D01*
X137973715Y-98015524D01*
X137986276Y-98028085D01*
X138088351Y-98104586D01*
X138103946Y-98113124D01*
X138224394Y-98158278D01*
X138239649Y-98161905D01*
X138290514Y-98167431D01*
X138297328Y-98167800D01*
X138919885Y-98167800D01*
X138935124Y-98163325D01*
X138936329Y-98161935D01*
X138938000Y-98154252D01*
X138938000Y-98149684D01*
X139446000Y-98149684D01*
X139450475Y-98164923D01*
X139451865Y-98166128D01*
X139459548Y-98167799D01*
X140086669Y-98167799D01*
X140093490Y-98167429D01*
X140144352Y-98161905D01*
X140159604Y-98158279D01*
X140280054Y-98113124D01*
X140295649Y-98104586D01*
X140397724Y-98028085D01*
X140410285Y-98015524D01*
X140486786Y-97913449D01*
X140495324Y-97897854D01*
X140540478Y-97777406D01*
X140544105Y-97762151D01*
X140549631Y-97711286D01*
X140550000Y-97704472D01*
X140550000Y-97081915D01*
X140545525Y-97066676D01*
X140544135Y-97065471D01*
X140536452Y-97063800D01*
X139464115Y-97063800D01*
X139448876Y-97068275D01*
X139447671Y-97069665D01*
X139446000Y-97077348D01*
X139446000Y-98149684D01*
X138938000Y-98149684D01*
X138938000Y-97081915D01*
X138933525Y-97066676D01*
X138932135Y-97065471D01*
X138924452Y-97063800D01*
X137852116Y-97063800D01*
X137836877Y-97068275D01*
X137835672Y-97069665D01*
X137834001Y-97077348D01*
X137834001Y-97704469D01*
X137508000Y-97704469D01*
X137508000Y-94236495D01*
X137829251Y-94236495D01*
X137829548Y-94241648D01*
X137829548Y-94241651D01*
X137835011Y-94336390D01*
X137842110Y-94459515D01*
X137843247Y-94464561D01*
X137843248Y-94464567D01*
X137863119Y-94552739D01*
X137891222Y-94677439D01*
X137975266Y-94884416D01*
X138091987Y-95074888D01*
X138238250Y-95243738D01*
X138242225Y-95247038D01*
X138242231Y-95247044D01*
X138247425Y-95251356D01*
X138287059Y-95310260D01*
X138288555Y-95381241D01*
X138251439Y-95441762D01*
X138211168Y-95466280D01*
X138103946Y-95506476D01*
X138088351Y-95515014D01*
X137986276Y-95591515D01*
X137973715Y-95604076D01*
X137897214Y-95706151D01*
X137888676Y-95721746D01*
X137843522Y-95842194D01*
X137839895Y-95857449D01*
X137834369Y-95908314D01*
X137834000Y-95915128D01*
X137834000Y-96537685D01*
X137838475Y-96552924D01*
X137839865Y-96554129D01*
X137847548Y-96555800D01*
X140531884Y-96555800D01*
X140547123Y-96551325D01*
X140548328Y-96549935D01*
X140549999Y-96542252D01*
X140549999Y-95915131D01*
X140549629Y-95908310D01*
X140544105Y-95857448D01*
X140540479Y-95842196D01*
X140495324Y-95721746D01*
X140486786Y-95706151D01*
X140410285Y-95604076D01*
X140397724Y-95591515D01*
X140295649Y-95515014D01*
X140280054Y-95506476D01*
X140169813Y-95465148D01*
X140113049Y-95422506D01*
X140088349Y-95355945D01*
X140103557Y-95286596D01*
X140125104Y-95257915D01*
X140226430Y-95156944D01*
X140226440Y-95156932D01*
X140230096Y-95153289D01*
X140289594Y-95070489D01*
X140357435Y-94976077D01*
X140360453Y-94971877D01*
X140459430Y-94771611D01*
X140524370Y-94557869D01*
X140553529Y-94336390D01*
X140555156Y-94269800D01*
X140536852Y-94047161D01*
X140482431Y-93830502D01*
X140393354Y-93625640D01*
X140272014Y-93438077D01*
X140121670Y-93272851D01*
X140117619Y-93269652D01*
X140117615Y-93269648D01*
X139950414Y-93137600D01*
X139950410Y-93137598D01*
X139946359Y-93134398D01*
X139905053Y-93111596D01*
X139855084Y-93061164D01*
X139840312Y-92991721D01*
X139865428Y-92925316D01*
X139892780Y-92898709D01*
X139936603Y-92867450D01*
X140071860Y-92770973D01*
X140230096Y-92613289D01*
X140289594Y-92530489D01*
X140357435Y-92436077D01*
X140360453Y-92431877D01*
X140459430Y-92231611D01*
X140524370Y-92017869D01*
X140553529Y-91796390D01*
X140554595Y-91752755D01*
X140555074Y-91733165D01*
X140555074Y-91733161D01*
X140555156Y-91729800D01*
X140536852Y-91507161D01*
X140482431Y-91290502D01*
X140393354Y-91085640D01*
X140272014Y-90898077D01*
X140121670Y-90732851D01*
X140117619Y-90729652D01*
X140117615Y-90729648D01*
X139950414Y-90597600D01*
X139950410Y-90597598D01*
X139946359Y-90594398D01*
X139750789Y-90486438D01*
X139745920Y-90484714D01*
X139745916Y-90484712D01*
X139545087Y-90413595D01*
X139545083Y-90413594D01*
X139540212Y-90411869D01*
X139535119Y-90410962D01*
X139535116Y-90410961D01*
X139325373Y-90373600D01*
X139325367Y-90373599D01*
X139320284Y-90372694D01*
X139246452Y-90371792D01*
X139102081Y-90370028D01*
X139102079Y-90370028D01*
X139096911Y-90369965D01*
X138876091Y-90403755D01*
X138663756Y-90473157D01*
X138465607Y-90576307D01*
X138461474Y-90579410D01*
X138461471Y-90579412D01*
X138374384Y-90644799D01*
X138286965Y-90710435D01*
X138132629Y-90871938D01*
X138006743Y-91056480D01*
X137912688Y-91259105D01*
X137852989Y-91474370D01*
X137829251Y-91696495D01*
X137829548Y-91701648D01*
X137829548Y-91701651D01*
X137835011Y-91796390D01*
X137842110Y-91919515D01*
X137843247Y-91924561D01*
X137843248Y-91924567D01*
X137863119Y-92012739D01*
X137891222Y-92137439D01*
X137975266Y-92344416D01*
X138091987Y-92534888D01*
X138238250Y-92703738D01*
X138410126Y-92846432D01*
X138480595Y-92887611D01*
X138483445Y-92889276D01*
X138532169Y-92940914D01*
X138545240Y-93010697D01*
X138518509Y-93076469D01*
X138478055Y-93109827D01*
X138465607Y-93116307D01*
X138461474Y-93119410D01*
X138461471Y-93119412D01*
X138437247Y-93137600D01*
X138286965Y-93250435D01*
X138132629Y-93411938D01*
X138006743Y-93596480D01*
X137912688Y-93799105D01*
X137852989Y-94014370D01*
X137829251Y-94236495D01*
X137508000Y-94236495D01*
X137508000Y-88010000D01*
X137528002Y-87941879D01*
X137581658Y-87895386D01*
X137634000Y-87884000D01*
X147795166Y-87884000D01*
X147863287Y-87904002D01*
G37*
%TD.AperFunction*%
%TD*%
M02*
