%TF.GenerationSoftware,KiCad,Pcbnew,(6.0.2-0)*%
%TF.CreationDate,2022-08-03T15:23:41+02:00*%
%TF.ProjectId,Amon_led_board,416d6f6e-5f6c-4656-945f-626f6172642e,2*%
%TF.SameCoordinates,Original*%
%TF.FileFunction,Copper,L1,Top*%
%TF.FilePolarity,Positive*%
%FSLAX46Y46*%
G04 Gerber Fmt 4.6, Leading zero omitted, Abs format (unit mm)*
G04 Created by KiCad (PCBNEW (6.0.2-0)) date 2022-08-03 15:23:41*
%MOMM*%
%LPD*%
G01*
G04 APERTURE LIST*
G04 Aperture macros list*
%AMRoundRect*
0 Rectangle with rounded corners*
0 $1 Rounding radius*
0 $2 $3 $4 $5 $6 $7 $8 $9 X,Y pos of 4 corners*
0 Add a 4 corners polygon primitive as box body*
4,1,4,$2,$3,$4,$5,$6,$7,$8,$9,$2,$3,0*
0 Add four circle primitives for the rounded corners*
1,1,$1+$1,$2,$3*
1,1,$1+$1,$4,$5*
1,1,$1+$1,$6,$7*
1,1,$1+$1,$8,$9*
0 Add four rect primitives between the rounded corners*
20,1,$1+$1,$2,$3,$4,$5,0*
20,1,$1+$1,$4,$5,$6,$7,0*
20,1,$1+$1,$6,$7,$8,$9,0*
20,1,$1+$1,$8,$9,$2,$3,0*%
G04 Aperture macros list end*
%ADD10C,0.300000*%
%TA.AperFunction,NonConductor*%
%ADD11C,0.300000*%
%TD*%
%TA.AperFunction,NonConductor*%
%ADD12C,0.200000*%
%TD*%
%TA.AperFunction,SMDPad,CuDef*%
%ADD13R,2.200000X2.200000*%
%TD*%
%TA.AperFunction,SMDPad,CuDef*%
%ADD14R,2.200000X1.250000*%
%TD*%
%TA.AperFunction,SMDPad,CuDef*%
%ADD15RoundRect,0.200000X-0.200000X-0.275000X0.200000X-0.275000X0.200000X0.275000X-0.200000X0.275000X0*%
%TD*%
%TA.AperFunction,ComponentPad*%
%ADD16R,1.700000X1.700000*%
%TD*%
%TA.AperFunction,ComponentPad*%
%ADD17O,1.700000X1.700000*%
%TD*%
%TA.AperFunction,ViaPad*%
%ADD18C,0.700000*%
%TD*%
%TA.AperFunction,Conductor*%
%ADD19C,0.254000*%
%TD*%
%TA.AperFunction,Conductor*%
%ADD20C,0.600000*%
%TD*%
G04 APERTURE END LIST*
D10*
D11*
X133548315Y-100219218D02*
X133544655Y-101076353D01*
X133546485Y-100647785D02*
X132046499Y-100641379D01*
X132260172Y-100785150D01*
X132402418Y-100928616D01*
X132473236Y-101071777D01*
X132050464Y-99712816D02*
X132054430Y-98784253D01*
X132623718Y-99286689D01*
X132624633Y-99072405D01*
X132696671Y-98929855D01*
X132768404Y-98858732D01*
X132911565Y-98787914D01*
X133268704Y-98789439D01*
X133411255Y-98861477D01*
X133482378Y-98933210D01*
X133553196Y-99076371D01*
X133551366Y-99504938D01*
X133479328Y-99647489D01*
X133407595Y-99718612D01*
X133414306Y-98147198D02*
X133486039Y-98076075D01*
X133557161Y-98147808D01*
X133485428Y-98218931D01*
X133414306Y-98147198D01*
X133557161Y-98147808D01*
X132062971Y-96784272D02*
X132061751Y-97069983D01*
X132132569Y-97213144D01*
X132203691Y-97284877D01*
X132417365Y-97428648D01*
X132702772Y-97501296D01*
X133274195Y-97503736D01*
X133417356Y-97432919D01*
X133489089Y-97361796D01*
X133561127Y-97219245D01*
X133562347Y-96933533D01*
X133491529Y-96790372D01*
X133420406Y-96718639D01*
X133277856Y-96646601D01*
X132920716Y-96645076D01*
X132777555Y-96715894D01*
X132705822Y-96787017D01*
X132633784Y-96929568D01*
X132632564Y-97215279D01*
X132703382Y-97358440D01*
X132774505Y-97430173D01*
X132917055Y-97502211D01*
X132065716Y-96141420D02*
X132069987Y-95141429D01*
X133567228Y-95790687D01*
X132575168Y-93929290D02*
X133575159Y-93933561D01*
X132002219Y-94283989D02*
X133072113Y-94645705D01*
X133076079Y-93717142D01*
X133578819Y-93076426D02*
X133580040Y-92790714D01*
X133509222Y-92647553D01*
X133438099Y-92575820D01*
X133224425Y-92432049D01*
X132939019Y-92359401D01*
X132367595Y-92356961D01*
X132224434Y-92427779D01*
X132152701Y-92498901D01*
X132080663Y-92641452D01*
X132079443Y-92927164D01*
X132150261Y-93070325D01*
X132221384Y-93142058D01*
X132363935Y-93214096D01*
X132721074Y-93215621D01*
X132864235Y-93144803D01*
X132935968Y-93073680D01*
X133008006Y-92931129D01*
X133009226Y-92645418D01*
X132938408Y-92502257D01*
X132867286Y-92430524D01*
X132724735Y-92358486D01*
X133589496Y-90576448D02*
X132589505Y-90572178D01*
X132732361Y-90572788D02*
X132661238Y-90501055D01*
X132590420Y-90357894D01*
X132591335Y-90143610D01*
X132663373Y-90001059D01*
X132806534Y-89930242D01*
X133592241Y-89933597D01*
X132806534Y-89930242D02*
X132663983Y-89858204D01*
X132593165Y-89715043D01*
X132594081Y-89500759D01*
X132666119Y-89358208D01*
X132809279Y-89287390D01*
X133594987Y-89290746D01*
X133598037Y-88576467D02*
X132598046Y-88572196D01*
X132740902Y-88572806D02*
X132669779Y-88501073D01*
X132598961Y-88357912D01*
X132599876Y-88143629D01*
X132671914Y-88001078D01*
X132815075Y-87930260D01*
X133600782Y-87933615D01*
X132815075Y-87930260D02*
X132672524Y-87858222D01*
X132601707Y-87715061D01*
X132602622Y-87500777D01*
X132674660Y-87358226D01*
X132817821Y-87287409D01*
X133603528Y-87290764D01*
D12*
X136558405Y-87323065D02*
X134138449Y-87312730D01*
X136500005Y-100997865D02*
X134080049Y-100987530D01*
X134724863Y-87315234D02*
X134666463Y-100990034D01*
X134724863Y-87315234D02*
X134666463Y-100990034D01*
X134724863Y-87315234D02*
X134133637Y-88439223D01*
X134724863Y-87315234D02*
X135306468Y-88444232D01*
X134666463Y-100990034D02*
X135257689Y-99866045D01*
X134666463Y-100990034D02*
X134084858Y-99861036D01*
D10*
D11*
X138928571Y-83054171D02*
X138071428Y-83054171D01*
X138500000Y-83054171D02*
X138500000Y-81554171D01*
X138357142Y-81768457D01*
X138214285Y-81911314D01*
X138071428Y-81982742D01*
X140214285Y-81554171D02*
X139928571Y-81554171D01*
X139785714Y-81625600D01*
X139714285Y-81697028D01*
X139571428Y-81911314D01*
X139500000Y-82197028D01*
X139500000Y-82768457D01*
X139571428Y-82911314D01*
X139642857Y-82982742D01*
X139785714Y-83054171D01*
X140071428Y-83054171D01*
X140214285Y-82982742D01*
X140285714Y-82911314D01*
X140357142Y-82768457D01*
X140357142Y-82411314D01*
X140285714Y-82268457D01*
X140214285Y-82197028D01*
X140071428Y-82125600D01*
X139785714Y-82125600D01*
X139642857Y-82197028D01*
X139571428Y-82268457D01*
X139500000Y-82411314D01*
X141000000Y-82911314D02*
X141071428Y-82982742D01*
X141000000Y-83054171D01*
X140928571Y-82982742D01*
X141000000Y-82911314D01*
X141000000Y-83054171D01*
X142000000Y-81554171D02*
X142142857Y-81554171D01*
X142285714Y-81625600D01*
X142357142Y-81697028D01*
X142428571Y-81839885D01*
X142500000Y-82125600D01*
X142500000Y-82482742D01*
X142428571Y-82768457D01*
X142357142Y-82911314D01*
X142285714Y-82982742D01*
X142142857Y-83054171D01*
X142000000Y-83054171D01*
X141857142Y-82982742D01*
X141785714Y-82911314D01*
X141714285Y-82768457D01*
X141642857Y-82482742D01*
X141642857Y-82125600D01*
X141714285Y-81839885D01*
X141785714Y-81697028D01*
X141857142Y-81625600D01*
X142000000Y-81554171D01*
X143428571Y-81554171D02*
X143571428Y-81554171D01*
X143714285Y-81625600D01*
X143785714Y-81697028D01*
X143857142Y-81839885D01*
X143928571Y-82125600D01*
X143928571Y-82482742D01*
X143857142Y-82768457D01*
X143785714Y-82911314D01*
X143714285Y-82982742D01*
X143571428Y-83054171D01*
X143428571Y-83054171D01*
X143285714Y-82982742D01*
X143214285Y-82911314D01*
X143142857Y-82768457D01*
X143071428Y-82482742D01*
X143071428Y-82125600D01*
X143142857Y-81839885D01*
X143214285Y-81697028D01*
X143285714Y-81625600D01*
X143428571Y-81554171D01*
X144857142Y-81554171D02*
X145000000Y-81554171D01*
X145142857Y-81625600D01*
X145214285Y-81697028D01*
X145285714Y-81839885D01*
X145357142Y-82125600D01*
X145357142Y-82482742D01*
X145285714Y-82768457D01*
X145214285Y-82911314D01*
X145142857Y-82982742D01*
X145000000Y-83054171D01*
X144857142Y-83054171D01*
X144714285Y-82982742D01*
X144642857Y-82911314D01*
X144571428Y-82768457D01*
X144500000Y-82482742D01*
X144500000Y-82125600D01*
X144571428Y-81839885D01*
X144642857Y-81697028D01*
X144714285Y-81625600D01*
X144857142Y-81554171D01*
X146285714Y-81554171D02*
X146428571Y-81554171D01*
X146571428Y-81625600D01*
X146642857Y-81697028D01*
X146714285Y-81839885D01*
X146785714Y-82125600D01*
X146785714Y-82482742D01*
X146714285Y-82768457D01*
X146642857Y-82911314D01*
X146571428Y-82982742D01*
X146428571Y-83054171D01*
X146285714Y-83054171D01*
X146142857Y-82982742D01*
X146071428Y-82911314D01*
X146000000Y-82768457D01*
X145928571Y-82482742D01*
X145928571Y-82125600D01*
X146000000Y-81839885D01*
X146071428Y-81697028D01*
X146142857Y-81625600D01*
X146285714Y-81554171D01*
X148571428Y-83054171D02*
X148571428Y-82054171D01*
X148571428Y-82197028D02*
X148642857Y-82125600D01*
X148785714Y-82054171D01*
X149000000Y-82054171D01*
X149142857Y-82125600D01*
X149214285Y-82268457D01*
X149214285Y-83054171D01*
X149214285Y-82268457D02*
X149285714Y-82125600D01*
X149428571Y-82054171D01*
X149642857Y-82054171D01*
X149785714Y-82125600D01*
X149857142Y-82268457D01*
X149857142Y-83054171D01*
X150571428Y-83054171D02*
X150571428Y-82054171D01*
X150571428Y-82197028D02*
X150642857Y-82125600D01*
X150785714Y-82054171D01*
X151000000Y-82054171D01*
X151142857Y-82125600D01*
X151214285Y-82268457D01*
X151214285Y-83054171D01*
X151214285Y-82268457D02*
X151285714Y-82125600D01*
X151428571Y-82054171D01*
X151642857Y-82054171D01*
X151785714Y-82125600D01*
X151857142Y-82268457D01*
X151857142Y-83054171D01*
D12*
X137000000Y-86876000D02*
X137000000Y-83589180D01*
X153000000Y-86876000D02*
X153000000Y-83589180D01*
X137000000Y-84175600D02*
X153000000Y-84175600D01*
X137000000Y-84175600D02*
X153000000Y-84175600D01*
X137000000Y-84175600D02*
X138126504Y-84762021D01*
X137000000Y-84175600D02*
X138126504Y-83589179D01*
X153000000Y-84175600D02*
X151873496Y-83589179D01*
X153000000Y-84175600D02*
X151873496Y-84762021D01*
D13*
%TO.P,White,1,K*%
%TO.N,GND*%
X149301200Y-93283200D03*
D14*
%TO.P,White,2,A*%
%TO.N,Net-(D2-Pad2)*%
X149301200Y-95558200D03*
%TD*%
D13*
%TO.P,Red,1,K*%
%TO.N,GND*%
X144475200Y-95083200D03*
D14*
%TO.P,Red,2,A*%
%TO.N,Net-(D1-Pad2)*%
X144475200Y-92808200D03*
%TD*%
D15*
%TO.P,R2,1*%
%TO.N,Net-(J1-Pad2)*%
X143650200Y-97891600D03*
%TO.P,R2,2*%
%TO.N,Net-(D2-Pad2)*%
X145300200Y-97891600D03*
%TD*%
D16*
%TO.P,J1,1,Pin_1*%
%TO.N,GND*%
X139192000Y-96809800D03*
D17*
%TO.P,J1,2,Pin_2*%
%TO.N,Net-(J1-Pad2)*%
X139192000Y-94269800D03*
%TO.P,J1,3,Pin_3*%
%TO.N,Net-(J1-Pad3)*%
X139192000Y-91729800D03*
%TD*%
D15*
%TO.P,R1,1*%
%TO.N,Net-(J1-Pad3)*%
X143599400Y-90220800D03*
%TO.P,R1,2*%
%TO.N,Net-(D1-Pad2)*%
X145249400Y-90220800D03*
%TD*%
D18*
%TO.N,GND*%
X138379200Y-99500000D03*
X140055600Y-99500000D03*
X138430000Y-88800000D03*
X141833600Y-99500000D03*
X151600000Y-91300000D03*
X140055600Y-88800000D03*
X151600000Y-96800000D03*
X146913600Y-94335600D03*
X146913600Y-92405200D03*
%TD*%
D19*
%TO.N,Net-(D1-Pad2)*%
X145249400Y-90220800D02*
X145338800Y-90310200D01*
D20*
X145249400Y-91427800D02*
X145249400Y-90220800D01*
X144475200Y-92202000D02*
X145249400Y-91427800D01*
X144475200Y-92808200D02*
X144475200Y-92202000D01*
%TO.N,Net-(D2-Pad2)*%
X148129400Y-95558200D02*
X145796000Y-97891600D01*
X149301200Y-95558200D02*
X148129400Y-95558200D01*
X145796000Y-97891600D02*
X145300200Y-97891600D01*
D19*
X145338800Y-97891600D02*
X145300200Y-97891600D01*
D20*
%TO.N,Net-(J1-Pad2)*%
X139192000Y-94269800D02*
X140802600Y-94269800D01*
X142595600Y-97891600D02*
X143650200Y-97891600D01*
X141782800Y-97078800D02*
X142595600Y-97891600D01*
X141782800Y-95250000D02*
X141782800Y-97078800D01*
X140802600Y-94269800D02*
X141782800Y-95250000D01*
%TO.N,Net-(J1-Pad3)*%
X143599400Y-90220800D02*
X142443200Y-90220800D01*
X142443200Y-90220800D02*
X140934200Y-91729800D01*
X140934200Y-91729800D02*
X139192000Y-91729800D01*
%TD*%
%TA.AperFunction,Conductor*%
%TO.N,GND*%
G36*
X147863287Y-87904002D02*
G01*
X147909780Y-87957658D01*
X147919884Y-88027932D01*
X147890390Y-88092512D01*
X147880937Y-88102300D01*
X147759378Y-88215260D01*
X147577287Y-88437732D01*
X147427073Y-88682858D01*
X147311517Y-88946102D01*
X147232756Y-89222594D01*
X147192249Y-89507216D01*
X147192227Y-89511505D01*
X147192226Y-89511512D01*
X147190765Y-89790417D01*
X147190743Y-89794703D01*
X147228268Y-90079734D01*
X147304129Y-90357036D01*
X147305813Y-90360984D01*
X147397657Y-90576307D01*
X147416923Y-90621476D01*
X147564561Y-90868161D01*
X147744313Y-91092528D01*
X147803342Y-91148544D01*
X147919849Y-91259105D01*
X147952851Y-91290423D01*
X148070020Y-91374618D01*
X148177047Y-91451525D01*
X148220695Y-91507519D01*
X148227141Y-91578223D01*
X148194338Y-91641187D01*
X148132701Y-91676421D01*
X148117124Y-91679111D01*
X148098841Y-91681096D01*
X148083596Y-91684721D01*
X147963146Y-91729876D01*
X147947551Y-91738414D01*
X147845476Y-91814915D01*
X147832915Y-91827476D01*
X147756414Y-91929551D01*
X147747876Y-91945146D01*
X147702722Y-92065594D01*
X147699095Y-92080849D01*
X147693569Y-92131714D01*
X147693200Y-92138528D01*
X147693200Y-93011085D01*
X147697675Y-93026324D01*
X147699065Y-93027529D01*
X147706748Y-93029200D01*
X150891084Y-93029200D01*
X150906323Y-93024725D01*
X150907528Y-93023335D01*
X150909199Y-93015652D01*
X150909199Y-92138531D01*
X150908829Y-92131710D01*
X150903305Y-92080848D01*
X150899679Y-92065596D01*
X150854524Y-91945146D01*
X150845986Y-91929551D01*
X150769485Y-91827476D01*
X150756924Y-91814915D01*
X150654849Y-91738414D01*
X150639254Y-91729876D01*
X150518806Y-91684722D01*
X150503551Y-91681094D01*
X150481294Y-91678677D01*
X150415732Y-91651436D01*
X150375305Y-91593074D01*
X150372848Y-91522120D01*
X150409142Y-91461101D01*
X150422449Y-91450327D01*
X150626518Y-91306905D01*
X150626524Y-91306900D01*
X150630023Y-91304441D01*
X150737787Y-91204300D01*
X150837479Y-91111661D01*
X150837481Y-91111658D01*
X150840622Y-91108740D01*
X151022713Y-90886268D01*
X151172927Y-90641142D01*
X151179635Y-90625862D01*
X151286757Y-90381830D01*
X151288483Y-90377898D01*
X151289966Y-90372694D01*
X151366068Y-90105534D01*
X151367244Y-90101406D01*
X151407751Y-89816784D01*
X151407845Y-89798951D01*
X151409235Y-89533583D01*
X151409235Y-89533576D01*
X151409257Y-89529297D01*
X151406970Y-89511920D01*
X151390320Y-89385454D01*
X151371732Y-89244266D01*
X151295871Y-88966964D01*
X151183077Y-88702524D01*
X151035439Y-88455839D01*
X150855687Y-88231472D01*
X150852580Y-88228524D01*
X150852574Y-88228517D01*
X150718617Y-88101397D01*
X150682972Y-88039997D01*
X150686181Y-87969073D01*
X150727225Y-87911143D01*
X150793073Y-87884599D01*
X150805349Y-87884000D01*
X152366000Y-87884000D01*
X152434121Y-87904002D01*
X152480614Y-87957658D01*
X152492000Y-88010000D01*
X152492000Y-100366000D01*
X152471998Y-100434121D01*
X152418342Y-100480614D01*
X152366000Y-100492000D01*
X150677329Y-100492000D01*
X150609208Y-100471998D01*
X150562715Y-100418342D01*
X150552611Y-100348068D01*
X150582105Y-100283488D01*
X150604879Y-100262913D01*
X150626512Y-100247710D01*
X150626525Y-100247699D01*
X150630023Y-100245241D01*
X150840622Y-100049540D01*
X151022713Y-99827068D01*
X151172927Y-99581942D01*
X151288483Y-99318698D01*
X151367244Y-99042206D01*
X151407751Y-98757584D01*
X151407845Y-98739751D01*
X151409235Y-98474383D01*
X151409235Y-98474376D01*
X151409257Y-98470097D01*
X151371732Y-98185066D01*
X151295871Y-97907764D01*
X151240268Y-97777406D01*
X151184763Y-97647276D01*
X151184761Y-97647272D01*
X151183077Y-97643324D01*
X151095093Y-97496314D01*
X151037643Y-97400321D01*
X151037640Y-97400317D01*
X151035439Y-97396639D01*
X150855687Y-97172272D01*
X150647149Y-96974377D01*
X150527384Y-96888316D01*
X150483737Y-96832322D01*
X150477291Y-96761619D01*
X150510094Y-96698655D01*
X150556682Y-96668013D01*
X150639495Y-96636968D01*
X150639496Y-96636967D01*
X150647905Y-96633815D01*
X150764461Y-96546461D01*
X150851815Y-96429905D01*
X150902945Y-96293516D01*
X150909700Y-96231334D01*
X150909700Y-94885066D01*
X150902945Y-94822884D01*
X150900172Y-94815486D01*
X150900171Y-94815482D01*
X150857522Y-94701717D01*
X150852339Y-94630910D01*
X150857522Y-94613259D01*
X150899678Y-94500809D01*
X150903305Y-94485551D01*
X150908831Y-94434686D01*
X150909200Y-94427872D01*
X150909200Y-93555315D01*
X150904725Y-93540076D01*
X150903335Y-93538871D01*
X150895652Y-93537200D01*
X147711316Y-93537200D01*
X147696077Y-93541675D01*
X147694872Y-93543065D01*
X147693201Y-93550748D01*
X147693201Y-94427869D01*
X147693571Y-94434690D01*
X147699095Y-94485552D01*
X147702722Y-94500806D01*
X147744878Y-94613259D01*
X147750061Y-94684066D01*
X147744878Y-94701717D01*
X147702228Y-94815486D01*
X147699455Y-94822884D01*
X147698602Y-94830734D01*
X147698488Y-94831214D01*
X147663269Y-94892860D01*
X147642679Y-94908918D01*
X147624024Y-94920574D01*
X147619029Y-94925534D01*
X147619028Y-94925535D01*
X147595221Y-94949176D01*
X147594596Y-94949761D01*
X147593930Y-94950278D01*
X147567940Y-94976268D01*
X147495318Y-95048385D01*
X147494660Y-95049422D01*
X147493557Y-95050651D01*
X146298295Y-96245913D01*
X146235983Y-96279939D01*
X146165168Y-96274874D01*
X146108332Y-96232327D01*
X146083521Y-96165807D01*
X146083200Y-96156818D01*
X146083200Y-95355315D01*
X146078725Y-95340076D01*
X146077335Y-95338871D01*
X146069652Y-95337200D01*
X144747315Y-95337200D01*
X144732076Y-95341675D01*
X144730871Y-95343065D01*
X144729200Y-95350748D01*
X144729200Y-96673084D01*
X144733675Y-96688323D01*
X144735065Y-96689528D01*
X144742748Y-96691199D01*
X144860387Y-96691199D01*
X144928508Y-96711201D01*
X144975001Y-96764857D01*
X144985105Y-96835131D01*
X144955611Y-96899711D01*
X144898066Y-96937433D01*
X144813750Y-96963856D01*
X144813748Y-96963857D01*
X144806501Y-96966128D01*
X144659819Y-97054961D01*
X144564295Y-97150485D01*
X144501983Y-97184511D01*
X144431168Y-97179446D01*
X144386105Y-97150485D01*
X144290581Y-97054961D01*
X144143899Y-96966128D01*
X144136652Y-96963857D01*
X144136650Y-96963856D01*
X144052337Y-96937434D01*
X143993315Y-96897976D01*
X143964995Y-96832873D01*
X143976368Y-96762793D01*
X144023824Y-96709987D01*
X144090016Y-96691200D01*
X144203085Y-96691200D01*
X144218324Y-96686725D01*
X144219529Y-96685335D01*
X144221200Y-96677652D01*
X144221200Y-95355315D01*
X144216725Y-95340076D01*
X144215335Y-95338871D01*
X144207652Y-95337200D01*
X142885316Y-95337200D01*
X142870077Y-95341675D01*
X142868872Y-95343065D01*
X142867201Y-95350748D01*
X142867201Y-96227869D01*
X142867571Y-96234690D01*
X142873095Y-96285552D01*
X142876721Y-96300804D01*
X142921876Y-96421254D01*
X142930414Y-96436849D01*
X143006915Y-96538924D01*
X143019476Y-96551485D01*
X143121551Y-96627986D01*
X143137146Y-96636524D01*
X143257594Y-96681678D01*
X143270799Y-96684818D01*
X143332446Y-96720036D01*
X143365266Y-96782991D01*
X143358840Y-96853696D01*
X143315208Y-96909703D01*
X143279332Y-96927635D01*
X143163750Y-96963856D01*
X143163748Y-96963857D01*
X143156501Y-96966128D01*
X143150005Y-96970062D01*
X143150003Y-96970063D01*
X143027394Y-97044317D01*
X142958764Y-97062496D01*
X142891201Y-97040685D01*
X142873028Y-97025636D01*
X142628205Y-96780813D01*
X142594179Y-96718501D01*
X142591300Y-96691718D01*
X142591300Y-95259165D01*
X142591307Y-95257846D01*
X142592176Y-95174821D01*
X142592250Y-95167779D01*
X142590763Y-95160901D01*
X142590762Y-95160891D01*
X142583091Y-95125413D01*
X142581030Y-95112831D01*
X142576982Y-95076743D01*
X142576197Y-95069745D01*
X142565168Y-95038074D01*
X142561005Y-95023265D01*
X142555407Y-94997371D01*
X142555406Y-94997368D01*
X142553919Y-94990490D01*
X142535592Y-94951187D01*
X142530810Y-94939411D01*
X142516545Y-94898448D01*
X142510529Y-94888820D01*
X142498773Y-94870005D01*
X142491434Y-94856488D01*
X142480241Y-94832486D01*
X142480240Y-94832485D01*
X142477262Y-94826098D01*
X142469031Y-94815486D01*
X142450694Y-94791847D01*
X142443398Y-94781388D01*
X142424158Y-94750596D01*
X142424156Y-94750593D01*
X142420426Y-94744624D01*
X142391824Y-94715821D01*
X142391239Y-94715196D01*
X142390722Y-94714530D01*
X142364732Y-94688540D01*
X142292615Y-94615918D01*
X142291578Y-94615260D01*
X142290349Y-94614157D01*
X141380834Y-93704642D01*
X141379906Y-93703705D01*
X141321757Y-93644325D01*
X141321756Y-93644324D01*
X141316829Y-93639293D01*
X141280379Y-93615802D01*
X141270054Y-93608383D01*
X141236157Y-93581324D01*
X141205962Y-93566727D01*
X141192545Y-93559198D01*
X141179433Y-93550748D01*
X141164362Y-93541035D01*
X141157745Y-93538627D01*
X141157740Y-93538624D01*
X141123627Y-93526208D01*
X141111884Y-93521247D01*
X141079197Y-93505446D01*
X141079192Y-93505444D01*
X141072851Y-93502379D01*
X141065993Y-93500796D01*
X141065991Y-93500795D01*
X141040174Y-93494835D01*
X141025431Y-93490468D01*
X140993915Y-93478997D01*
X140986925Y-93478114D01*
X140986917Y-93478112D01*
X140950899Y-93473562D01*
X140938347Y-93471326D01*
X140902986Y-93463162D01*
X140902983Y-93463162D01*
X140896115Y-93461576D01*
X140889069Y-93461551D01*
X140889066Y-93461551D01*
X140855544Y-93461434D01*
X140854662Y-93461405D01*
X140853831Y-93461300D01*
X140817181Y-93461300D01*
X140816741Y-93461299D01*
X140718257Y-93460955D01*
X140718252Y-93460955D01*
X140714730Y-93460943D01*
X140713530Y-93461211D01*
X140711893Y-93461300D01*
X140348850Y-93461300D01*
X140280729Y-93441298D01*
X140255656Y-93420099D01*
X140125151Y-93276676D01*
X140125148Y-93276673D01*
X140121670Y-93272851D01*
X140117619Y-93269652D01*
X140117615Y-93269648D01*
X139950414Y-93137600D01*
X139950410Y-93137598D01*
X139946359Y-93134398D01*
X139905053Y-93111596D01*
X139855084Y-93061164D01*
X139840312Y-92991721D01*
X139865428Y-92925316D01*
X139892780Y-92898709D01*
X139936603Y-92867450D01*
X140071860Y-92770973D01*
X140230096Y-92613289D01*
X140233169Y-92609013D01*
X140246276Y-92590773D01*
X140302271Y-92547126D01*
X140348598Y-92538300D01*
X140924986Y-92538300D01*
X140926306Y-92538307D01*
X141016421Y-92539251D01*
X141058797Y-92530089D01*
X141071363Y-92528031D01*
X141114455Y-92523197D01*
X141121106Y-92520881D01*
X141121110Y-92520880D01*
X141146130Y-92512167D01*
X141160942Y-92508004D01*
X141186819Y-92502409D01*
X141193710Y-92500919D01*
X141233013Y-92482592D01*
X141244789Y-92477810D01*
X141285752Y-92463545D01*
X141291727Y-92459811D01*
X141291730Y-92459810D01*
X141314195Y-92445773D01*
X141327712Y-92438434D01*
X141351714Y-92427241D01*
X141351715Y-92427240D01*
X141358102Y-92424262D01*
X141392353Y-92397694D01*
X141402812Y-92390398D01*
X141433604Y-92371158D01*
X141433607Y-92371156D01*
X141439576Y-92367426D01*
X141468379Y-92338824D01*
X141469004Y-92338239D01*
X141469670Y-92337722D01*
X141495660Y-92311732D01*
X141568282Y-92239615D01*
X141568940Y-92238578D01*
X141570043Y-92237349D01*
X142741187Y-91066205D01*
X142803499Y-91032179D01*
X142830282Y-91029300D01*
X142881103Y-91029300D01*
X142949224Y-91049302D01*
X142954961Y-91053381D01*
X142959019Y-91057439D01*
X142965519Y-91061376D01*
X142965521Y-91061377D01*
X143011440Y-91089186D01*
X143105701Y-91146272D01*
X143112948Y-91148543D01*
X143112950Y-91148544D01*
X143162287Y-91164005D01*
X143269338Y-91197553D01*
X143342765Y-91204300D01*
X143345663Y-91204300D01*
X143600065Y-91204299D01*
X143856034Y-91204299D01*
X143858892Y-91204036D01*
X143858901Y-91204036D01*
X143894404Y-91200774D01*
X143929462Y-91197553D01*
X144032416Y-91165289D01*
X144103401Y-91164005D01*
X144163811Y-91201302D01*
X144194468Y-91265338D01*
X144185637Y-91335784D01*
X144159190Y-91374618D01*
X143910042Y-91623766D01*
X143909104Y-91624695D01*
X143894778Y-91638724D01*
X143832113Y-91672094D01*
X143806621Y-91674700D01*
X143327066Y-91674700D01*
X143264884Y-91681455D01*
X143128495Y-91732585D01*
X143011939Y-91819939D01*
X142924585Y-91936495D01*
X142873455Y-92072884D01*
X142866700Y-92135066D01*
X142866700Y-93481334D01*
X142873455Y-93543516D01*
X142876227Y-93550912D01*
X142876229Y-93550918D01*
X142918878Y-93664683D01*
X142924061Y-93735490D01*
X142918878Y-93753141D01*
X142876722Y-93865591D01*
X142873095Y-93880849D01*
X142867569Y-93931714D01*
X142867200Y-93938528D01*
X142867200Y-94811085D01*
X142871675Y-94826324D01*
X142873065Y-94827529D01*
X142880748Y-94829200D01*
X146065084Y-94829200D01*
X146080323Y-94824725D01*
X146081528Y-94823335D01*
X146083199Y-94815652D01*
X146083199Y-93938531D01*
X146082829Y-93931710D01*
X146077305Y-93880848D01*
X146073678Y-93865594D01*
X146031522Y-93753141D01*
X146026339Y-93682334D01*
X146031522Y-93664683D01*
X146074171Y-93550918D01*
X146074173Y-93550912D01*
X146076945Y-93543516D01*
X146083700Y-93481334D01*
X146083700Y-92135066D01*
X146076945Y-92072884D01*
X146025815Y-91936495D01*
X146020430Y-91929310D01*
X146020429Y-91929308D01*
X145998645Y-91900242D01*
X145973797Y-91833735D01*
X145981070Y-91781582D01*
X145992992Y-91748827D01*
X145997953Y-91737084D01*
X146013754Y-91704397D01*
X146013756Y-91704392D01*
X146016821Y-91698051D01*
X146019899Y-91684721D01*
X146024365Y-91665374D01*
X146028732Y-91650631D01*
X146040203Y-91619115D01*
X146041086Y-91612125D01*
X146041088Y-91612117D01*
X146045638Y-91576099D01*
X146047874Y-91563547D01*
X146056038Y-91528186D01*
X146056038Y-91528183D01*
X146057624Y-91521315D01*
X146057673Y-91507519D01*
X146057766Y-91480744D01*
X146057795Y-91479862D01*
X146057900Y-91479031D01*
X146057900Y-91442228D01*
X146058257Y-91339930D01*
X146057989Y-91338730D01*
X146057900Y-91337093D01*
X146057900Y-90893983D01*
X146076124Y-90828712D01*
X146095937Y-90795996D01*
X146099872Y-90789499D01*
X146151153Y-90625862D01*
X146157900Y-90552435D01*
X146157899Y-89889166D01*
X146151153Y-89815738D01*
X146099872Y-89652101D01*
X146011039Y-89505419D01*
X145889781Y-89384161D01*
X145743099Y-89295328D01*
X145735852Y-89293057D01*
X145735850Y-89293056D01*
X145669564Y-89272283D01*
X145579462Y-89244047D01*
X145506035Y-89237300D01*
X145503137Y-89237300D01*
X145248735Y-89237301D01*
X144992766Y-89237301D01*
X144989908Y-89237564D01*
X144989899Y-89237564D01*
X144954396Y-89240826D01*
X144919338Y-89244047D01*
X144912960Y-89246046D01*
X144912959Y-89246046D01*
X144762950Y-89293056D01*
X144762948Y-89293057D01*
X144755701Y-89295328D01*
X144609019Y-89384161D01*
X144513495Y-89479685D01*
X144451183Y-89513711D01*
X144380368Y-89508646D01*
X144335305Y-89479685D01*
X144239781Y-89384161D01*
X144093099Y-89295328D01*
X144085852Y-89293057D01*
X144085850Y-89293056D01*
X144019564Y-89272283D01*
X143929462Y-89244047D01*
X143856035Y-89237300D01*
X143853137Y-89237300D01*
X143598735Y-89237301D01*
X143342766Y-89237301D01*
X143339908Y-89237564D01*
X143339899Y-89237564D01*
X143304396Y-89240826D01*
X143269338Y-89244047D01*
X143262960Y-89246046D01*
X143262959Y-89246046D01*
X143112950Y-89293056D01*
X143112948Y-89293057D01*
X143105701Y-89295328D01*
X142959019Y-89384161D01*
X142956981Y-89386199D01*
X142892901Y-89411746D01*
X142881103Y-89412300D01*
X142452365Y-89412300D01*
X142451046Y-89412293D01*
X142360979Y-89411350D01*
X142354101Y-89412837D01*
X142354091Y-89412838D01*
X142318613Y-89420509D01*
X142306038Y-89422569D01*
X142262945Y-89427403D01*
X142231274Y-89438432D01*
X142216465Y-89442595D01*
X142190571Y-89448193D01*
X142190568Y-89448194D01*
X142183690Y-89449681D01*
X142144387Y-89468008D01*
X142132611Y-89472790D01*
X142091648Y-89487055D01*
X142085673Y-89490789D01*
X142085670Y-89490790D01*
X142063205Y-89504827D01*
X142049688Y-89512166D01*
X142025681Y-89523361D01*
X142025677Y-89523363D01*
X142019298Y-89526338D01*
X142009958Y-89533583D01*
X141985044Y-89552908D01*
X141974595Y-89560197D01*
X141937824Y-89583174D01*
X141932825Y-89588139D01*
X141932823Y-89588140D01*
X141909015Y-89611783D01*
X141908392Y-89612366D01*
X141907730Y-89612879D01*
X141881881Y-89638728D01*
X141861115Y-89659350D01*
X141809118Y-89710985D01*
X141808459Y-89712023D01*
X141807353Y-89713256D01*
X140636213Y-90884395D01*
X140573901Y-90918421D01*
X140547118Y-90921300D01*
X140348850Y-90921300D01*
X140280729Y-90901298D01*
X140255656Y-90880099D01*
X140125151Y-90736676D01*
X140125148Y-90736673D01*
X140121670Y-90732851D01*
X140117619Y-90729652D01*
X140117615Y-90729648D01*
X139950414Y-90597600D01*
X139950410Y-90597598D01*
X139946359Y-90594398D01*
X139750789Y-90486438D01*
X139745920Y-90484714D01*
X139745916Y-90484712D01*
X139545087Y-90413595D01*
X139545083Y-90413594D01*
X139540212Y-90411869D01*
X139535119Y-90410962D01*
X139535116Y-90410961D01*
X139325373Y-90373600D01*
X139325367Y-90373599D01*
X139320284Y-90372694D01*
X139246452Y-90371792D01*
X139102081Y-90370028D01*
X139102079Y-90370028D01*
X139096911Y-90369965D01*
X138876091Y-90403755D01*
X138663756Y-90473157D01*
X138633443Y-90488937D01*
X138511465Y-90552435D01*
X138465607Y-90576307D01*
X138461474Y-90579410D01*
X138461471Y-90579412D01*
X138374384Y-90644799D01*
X138286965Y-90710435D01*
X138132629Y-90871938D01*
X138129715Y-90876210D01*
X138129714Y-90876211D01*
X138088805Y-90936181D01*
X138006743Y-91056480D01*
X137959716Y-91157792D01*
X137938128Y-91204300D01*
X137912688Y-91259105D01*
X137852989Y-91474370D01*
X137829251Y-91696495D01*
X137829548Y-91701648D01*
X137829548Y-91701651D01*
X137836803Y-91827476D01*
X137842110Y-91919515D01*
X137843247Y-91924561D01*
X137843248Y-91924567D01*
X137847886Y-91945146D01*
X137891222Y-92137439D01*
X137931791Y-92237349D01*
X137971871Y-92336054D01*
X137975266Y-92344416D01*
X138007915Y-92397694D01*
X138084823Y-92523197D01*
X138091987Y-92534888D01*
X138238250Y-92703738D01*
X138410126Y-92846432D01*
X138480595Y-92887611D01*
X138483445Y-92889276D01*
X138532169Y-92940914D01*
X138545240Y-93010697D01*
X138518509Y-93076469D01*
X138478055Y-93109827D01*
X138465607Y-93116307D01*
X138461474Y-93119410D01*
X138461471Y-93119412D01*
X138437247Y-93137600D01*
X138286965Y-93250435D01*
X138132629Y-93411938D01*
X138129715Y-93416210D01*
X138129714Y-93416211D01*
X138072015Y-93500795D01*
X138006743Y-93596480D01*
X137988639Y-93635482D01*
X137934024Y-93753141D01*
X137912688Y-93799105D01*
X137852989Y-94014370D01*
X137829251Y-94236495D01*
X137829548Y-94241648D01*
X137829548Y-94241651D01*
X137840492Y-94431455D01*
X137842110Y-94459515D01*
X137843247Y-94464561D01*
X137843248Y-94464567D01*
X137851415Y-94500806D01*
X137891222Y-94677439D01*
X137918503Y-94744624D01*
X137970475Y-94872616D01*
X137975266Y-94884416D01*
X137997424Y-94920574D01*
X138084760Y-95063094D01*
X138091987Y-95074888D01*
X138238250Y-95243738D01*
X138242225Y-95247038D01*
X138242231Y-95247044D01*
X138247425Y-95251356D01*
X138287059Y-95310260D01*
X138288555Y-95381241D01*
X138251439Y-95441762D01*
X138211168Y-95466280D01*
X138103946Y-95506476D01*
X138088351Y-95515014D01*
X137986276Y-95591515D01*
X137973715Y-95604076D01*
X137897214Y-95706151D01*
X137888676Y-95721746D01*
X137843522Y-95842194D01*
X137839895Y-95857449D01*
X137834369Y-95908314D01*
X137834000Y-95915128D01*
X137834000Y-96537685D01*
X137838475Y-96552924D01*
X137839865Y-96554129D01*
X137847548Y-96555800D01*
X140531884Y-96555800D01*
X140547123Y-96551325D01*
X140548328Y-96549935D01*
X140549999Y-96542252D01*
X140549999Y-95915131D01*
X140549629Y-95908310D01*
X140544105Y-95857448D01*
X140540479Y-95842196D01*
X140495324Y-95721746D01*
X140486786Y-95706151D01*
X140410285Y-95604076D01*
X140397724Y-95591515D01*
X140295649Y-95515014D01*
X140280054Y-95506476D01*
X140169813Y-95465148D01*
X140113049Y-95422506D01*
X140088349Y-95355945D01*
X140103557Y-95286596D01*
X140125104Y-95257915D01*
X140226430Y-95156944D01*
X140226440Y-95156932D01*
X140230096Y-95153289D01*
X140233169Y-95149013D01*
X140246276Y-95130773D01*
X140302271Y-95087126D01*
X140348598Y-95078300D01*
X140415518Y-95078300D01*
X140483639Y-95098302D01*
X140504613Y-95115205D01*
X140937395Y-95547987D01*
X140971421Y-95610299D01*
X140974300Y-95637082D01*
X140974300Y-97069586D01*
X140974293Y-97070906D01*
X140973349Y-97161021D01*
X140982511Y-97203397D01*
X140984569Y-97215963D01*
X140989403Y-97259055D01*
X140991719Y-97265706D01*
X140991720Y-97265710D01*
X141000433Y-97290730D01*
X141004596Y-97305542D01*
X141011681Y-97338310D01*
X141030008Y-97377613D01*
X141034790Y-97389389D01*
X141049055Y-97430352D01*
X141052789Y-97436327D01*
X141052790Y-97436330D01*
X141066827Y-97458795D01*
X141074166Y-97472312D01*
X141085359Y-97496314D01*
X141088338Y-97502702D01*
X141092655Y-97508267D01*
X141092656Y-97508269D01*
X141114906Y-97536953D01*
X141122202Y-97547412D01*
X141145174Y-97584176D01*
X141150134Y-97589171D01*
X141150135Y-97589172D01*
X141173776Y-97612979D01*
X141174361Y-97613604D01*
X141174878Y-97614270D01*
X141200868Y-97640260D01*
X141272985Y-97712882D01*
X141274022Y-97713540D01*
X141275251Y-97714643D01*
X142017366Y-98456758D01*
X142018294Y-98457695D01*
X142057621Y-98497854D01*
X142081371Y-98522107D01*
X142117821Y-98545598D01*
X142128146Y-98553017D01*
X142162043Y-98580076D01*
X142168384Y-98583141D01*
X142168385Y-98583142D01*
X142192237Y-98594672D01*
X142205654Y-98602201D01*
X142233838Y-98620365D01*
X142240455Y-98622773D01*
X142240460Y-98622776D01*
X142274573Y-98635192D01*
X142286316Y-98640153D01*
X142319000Y-98655953D01*
X142319009Y-98655956D01*
X142325349Y-98659021D01*
X142332214Y-98660606D01*
X142358028Y-98666566D01*
X142372768Y-98670932D01*
X142404285Y-98682403D01*
X142411270Y-98683285D01*
X142411277Y-98683287D01*
X142447292Y-98687837D01*
X142459843Y-98690072D01*
X142502085Y-98699825D01*
X142509129Y-98699850D01*
X142509133Y-98699850D01*
X142542672Y-98699967D01*
X142543542Y-98699996D01*
X142544369Y-98700100D01*
X142580858Y-98700100D01*
X142581297Y-98700101D01*
X142679943Y-98700445D01*
X142679948Y-98700445D01*
X142683470Y-98700457D01*
X142684670Y-98700189D01*
X142686308Y-98700100D01*
X142931903Y-98700100D01*
X143000024Y-98720102D01*
X143005761Y-98724181D01*
X143009819Y-98728239D01*
X143016319Y-98732176D01*
X143016321Y-98732177D01*
X143051180Y-98753288D01*
X143156501Y-98817072D01*
X143163748Y-98819343D01*
X143163750Y-98819344D01*
X143230036Y-98840117D01*
X143320138Y-98868353D01*
X143393565Y-98875100D01*
X143396463Y-98875100D01*
X143650865Y-98875099D01*
X143906834Y-98875099D01*
X143909692Y-98874836D01*
X143909701Y-98874836D01*
X143945204Y-98871574D01*
X143980262Y-98868353D01*
X143986647Y-98866352D01*
X144136650Y-98819344D01*
X144136652Y-98819343D01*
X144143899Y-98817072D01*
X144290581Y-98728239D01*
X144386105Y-98632715D01*
X144448417Y-98598689D01*
X144519232Y-98603754D01*
X144564295Y-98632715D01*
X144659819Y-98728239D01*
X144806501Y-98817072D01*
X144813748Y-98819343D01*
X144813750Y-98819344D01*
X144880036Y-98840117D01*
X144970138Y-98868353D01*
X145043565Y-98875100D01*
X145046463Y-98875100D01*
X145300865Y-98875099D01*
X145556834Y-98875099D01*
X145559692Y-98874836D01*
X145559701Y-98874836D01*
X145595204Y-98871574D01*
X145630262Y-98868353D01*
X145636647Y-98866352D01*
X145786650Y-98819344D01*
X145786652Y-98819343D01*
X145793899Y-98817072D01*
X145940581Y-98728239D01*
X145966249Y-98702571D01*
X146028717Y-98668512D01*
X146048621Y-98664209D01*
X146048625Y-98664208D01*
X146055510Y-98662719D01*
X146094813Y-98644392D01*
X146106589Y-98639610D01*
X146147552Y-98625345D01*
X146153527Y-98621611D01*
X146153530Y-98621610D01*
X146175995Y-98607573D01*
X146189512Y-98600234D01*
X146213514Y-98589041D01*
X146213515Y-98589040D01*
X146219902Y-98586062D01*
X146254153Y-98559494D01*
X146264612Y-98552198D01*
X146295404Y-98532958D01*
X146295407Y-98532956D01*
X146301376Y-98529226D01*
X146330179Y-98500624D01*
X146330804Y-98500039D01*
X146331470Y-98499522D01*
X146357460Y-98473532D01*
X146430082Y-98401415D01*
X146430740Y-98400378D01*
X146431843Y-98399149D01*
X147125216Y-97705776D01*
X147187528Y-97671750D01*
X147258343Y-97676815D01*
X147315179Y-97719362D01*
X147339990Y-97785882D01*
X147329686Y-97845513D01*
X147311517Y-97886902D01*
X147232756Y-98163394D01*
X147192249Y-98448016D01*
X147192227Y-98452305D01*
X147192226Y-98452312D01*
X147190781Y-98728239D01*
X147190743Y-98735503D01*
X147228268Y-99020534D01*
X147304129Y-99297836D01*
X147416923Y-99562276D01*
X147564561Y-99808961D01*
X147744313Y-100033328D01*
X147952851Y-100231223D01*
X147998019Y-100263680D01*
X148041665Y-100319672D01*
X148048111Y-100390375D01*
X148015308Y-100453340D01*
X147953672Y-100488574D01*
X147924491Y-100492000D01*
X137634000Y-100492000D01*
X137565879Y-100471998D01*
X137519386Y-100418342D01*
X137508000Y-100366000D01*
X137508000Y-97704469D01*
X137834001Y-97704469D01*
X137834371Y-97711290D01*
X137839895Y-97762152D01*
X137843521Y-97777404D01*
X137888676Y-97897854D01*
X137897214Y-97913449D01*
X137973715Y-98015524D01*
X137986276Y-98028085D01*
X138088351Y-98104586D01*
X138103946Y-98113124D01*
X138224394Y-98158278D01*
X138239649Y-98161905D01*
X138290514Y-98167431D01*
X138297328Y-98167800D01*
X138919885Y-98167800D01*
X138935124Y-98163325D01*
X138936329Y-98161935D01*
X138938000Y-98154252D01*
X138938000Y-98149684D01*
X139446000Y-98149684D01*
X139450475Y-98164923D01*
X139451865Y-98166128D01*
X139459548Y-98167799D01*
X140086669Y-98167799D01*
X140093490Y-98167429D01*
X140144352Y-98161905D01*
X140159604Y-98158279D01*
X140280054Y-98113124D01*
X140295649Y-98104586D01*
X140397724Y-98028085D01*
X140410285Y-98015524D01*
X140486786Y-97913449D01*
X140495324Y-97897854D01*
X140540478Y-97777406D01*
X140544105Y-97762151D01*
X140549631Y-97711286D01*
X140550000Y-97704472D01*
X140550000Y-97081915D01*
X140545525Y-97066676D01*
X140544135Y-97065471D01*
X140536452Y-97063800D01*
X139464115Y-97063800D01*
X139448876Y-97068275D01*
X139447671Y-97069665D01*
X139446000Y-97077348D01*
X139446000Y-98149684D01*
X138938000Y-98149684D01*
X138938000Y-97081915D01*
X138933525Y-97066676D01*
X138932135Y-97065471D01*
X138924452Y-97063800D01*
X137852116Y-97063800D01*
X137836877Y-97068275D01*
X137835672Y-97069665D01*
X137834001Y-97077348D01*
X137834001Y-97704469D01*
X137508000Y-97704469D01*
X137508000Y-88010000D01*
X137528002Y-87941879D01*
X137581658Y-87895386D01*
X137634000Y-87884000D01*
X147795166Y-87884000D01*
X147863287Y-87904002D01*
G37*
%TD.AperFunction*%
%TD*%
M02*
