  0
SECTION
  2
HEADER
  9
$ACADVER
  1
AC1006
  9
$EXTMIN
 10
0.000000
 20
0.000000
 30
0.000000
  9
$EXTMAX
 10
673.000000
 20
134.000000
 30
0.000000
  0
ENDSEC
  0
SECTION
  2
ENTITIES
  0
POLYLINE
  8
0
 66
1
 70
1
  0
VERTEX
  8
0
 10
62.589293
 20
132.945469
 42
0.042478
  0
VERTEX
  8
0
 10
58.537683
 20
131.554599
 42
0.047318
  0
VERTEX
  8
0
 10
54.932406
 20
129.537229
 42
0.047783
  0
VERTEX
  8
0
 10
51.800105
 20
126.897797
 42
0.044905
  0
VERTEX
  8
0
 10
49.152889
 20
123.659759
 42
0.049546
  0
VERTEX
  8
0
 10
47.405419
 20
120.434897
 42
0.001065
  0
VERTEX
  8
0
 10
40.474558
 20
103.831304
 42
0.002439
  0
VERTEX
  8
0
 10
32.496297
 20
84.335308
 42
0.001642
  0
VERTEX
  8
0
 10
23.568257
 20
62.000000
 42
-0.000019
  0
VERTEX
  8
0
 10
14.803918
 20
39.866006
 42
-0.000030
  0
VERTEX
  8
0
 10
7.340726
 20
21.023438
 42
-0.000004
  0
VERTEX
  8
0
 10
0.696277
 20
4.251355
 42
-0.002256
  0
VERTEX
  8
0
 10
0.294333
 20
3.250000
 42
0.450564
  0
VERTEX
  8
0
 10
0.603731
 20
2.626179
 42
0.040068
  0
VERTEX
  8
0
 10
2.549526
 20
2.264789
 42
0.021616
  0
VERTEX
  8
0
 10
6.045572
 20
2.053658
 42
0.004273
  0
VERTEX
  8
0
 10
12.323470
 20
2.000000
 42
0.000000
  0
VERTEX
  8
0
 10
24.860917
 20
2.000000
 42
0.000000
  0
VERTEX
  8
0
 10
34.828665
 20
27.250000
 42
-0.000233
  0
VERTEX
  8
0
 10
56.777355
 20
82.773863
 42
-0.004810
  0
VERTEX
  8
0
 10
63.552319
 20
99.419470
 42
-0.010157
  0
VERTEX
  8
0
 10
67.378332
 20
108.068839
 42
-0.178481
  0
VERTEX
  8
0
 10
69.520554
 20
110.191319
 42
-0.054087
  0
VERTEX
  8
0
 10
70.605905
 20
110.550339
 42
-0.032878
  0
VERTEX
  8
0
 10
71.944506
 20
110.746703
 42
-0.032667
  0
VERTEX
  8
0
 10
73.314421
 20
110.766721
 42
-0.048840
  0
VERTEX
  8
0
 10
74.497636
 20
110.589949
 42
-0.199513
  0
VERTEX
  8
0
 10
77.111242
 20
108.644984
 42
-0.033398
  0
VERTEX
  8
0
 10
80.004091
 20
102.955827
 42
-0.010216
  0
VERTEX
  8
0
 10
84.767963
 20
91.138896
 42
-0.000475
  0
VERTEX
  8
0
 10
100.054825
 20
50.750000
 42
0.000000
  0
VERTEX
  8
0
 10
118.453369
 20
2.000000
 42
0.000000
  0
VERTEX
  8
0
 10
130.726685
 20
2.000000
 42
0.006515
  0
VERTEX
  8
0
 10
135.432685
 20
2.061318
 42
0.010829
  0
VERTEX
  8
0
 10
139.394714
 20
2.250511
 42
0.004630
  0
VERTEX
  8
0
 10
142.685933
 20
2.509844
 42
0.388698
  0
VERTEX
  8
0
 10
143.000000
 20
2.852804
 42
0.091333
  0
VERTEX
  8
0
 10
142.669291
 20
4.648161
 42
0.000042
  0
VERTEX
  8
0
 10
121.016922
 20
61.413051
 42
0.000126
  0
VERTEX
  8
0
 10
99.949824
 20
116.587943
 42
0.029042
  0
VERTEX
  8
0
 10
97.697444
 20
121.590488
 42
0.050614
  0
VERTEX
  8
0
 10
95.725857
 20
124.584929
 42
0.039888
  0
VERTEX
  8
0
 10
93.041117
 20
127.391896
 42
0.039159
  0
VERTEX
  8
0
 10
89.883260
 20
129.790709
 42
0.043703
  0
VERTEX
  8
0
 10
86.500000
 20
131.569348
 42
0.064463
  0
VERTEX
  8
0
 10
81.918199
 20
132.827102
 42
0.020421
  0
VERTEX
  8
0
 10
74.849599
 20
133.524379
 42
0.020774
  0
VERTEX
  8
0
 10
67.668487
 20
133.638906
 42
0.055101
  0
SEQEND
  0
POLYLINE
  8
0
 66
1
 70
1
  0
VERTEX
  8
0
 10
180.713480
 20
132.577822
 42
0.054737
  0
VERTEX
  8
0
 10
176.022749
 20
130.747282
 42
0.057628
  0
VERTEX
  8
0
 10
171.928833
 20
127.967087
 42
0.055052
  0
VERTEX
  8
0
 10
168.429009
 20
124.203587
 42
0.043167
  0
VERTEX
  8
0
 10
165.500000
 20
119.456561
 42
0.000000
  0
VERTEX
  8
0
 10
162.500000
 20
113.500000
 42
0.000000
  0
VERTEX
  8
0
 10
162.500000
 20
58.000000
 42
0.000000
  0
VERTEX
  8
0
 10
162.500000
 20
2.500000
 42
0.000000
  0
VERTEX
  8
0
 10
173.750000
 20
2.217249
 42
0.000000
  0
VERTEX
  8
0
 10
185.000000
 20
1.934498
 42
0.000000
  0
VERTEX
  8
0
 10
185.000000
 20
54.967249
 42
-0.000547
  0
VERTEX
  8
0
 10
185.037928
 20
89.624195
 42
-0.008792
  0
VERTEX
  8
0
 10
185.269412
 20
101.330151
 42
-0.022743
  0
VERTEX
  8
0
 10
185.777706
 20
107.452343
 42
-0.165765
  0
VERTEX
  8
0
 10
187.058961
 20
110.058961
 42
-0.116417
  0
VERTEX
  8
0
 10
189.403226
 20
111.507904
 42
-0.107038
  0
VERTEX
  8
0
 10
192.224123
 20
111.815331
 42
-0.104220
  0
VERTEX
  8
0
 10
194.980172
 20
110.925198
 42
-0.104890
  0
VERTEX
  8
0
 10
197.135312
 20
109.000000
 42
-0.062118
  0
VERTEX
  8
0
 10
198.256291
 20
106.989352
 42
-0.000943
  0
VERTEX
  8
0
 10
203.254246
 20
94.571266
 42
-0.002524
  0
VERTEX
  8
0
 10
208.964956
 20
80.093247
 42
-0.001664
  0
VERTEX
  8
0
 10
215.391649
 20
63.391543
 42
0.000966
  0
VERTEX
  8
0
 10
227.008681
 20
33.074938
 42
0.009866
  0
VERTEX
  8
0
 10
232.094656
 20
20.616867
 42
0.024408
  0
VERTEX
  8
0
 10
235.564611
 20
13.544606
 42
0.053950
  0
VERTEX
  8
0
 10
239.017888
 20
8.632408
 42
0.057035
  0
VERTEX
  8
0
 10
243.167317
 20
4.871539
 42
0.067504
  0
VERTEX
  8
0
 10
247.840959
 20
2.393263
 42
0.057862
  0
VERTEX
  8
0
 10
253.577690
 20
1.006604
 42
0.029364
  0
VERTEX
  8
0
 10
261.000000
 20
0.539420
 42
0.030312
  0
VERTEX
  8
0
 10
268.547789
 20
0.965988
 42
0.062004
  0
VERTEX
  8
0
 10
274.296844
 20
2.378424
 42
0.071201
  0
VERTEX
  8
0
 10
279.004984
 20
4.992960
 42
0.053493
  0
VERTEX
  8
0
 10
283.321882
 20
9.062943
 42
0.075878
  0
VERTEX
  8
0
 10
286.867335
 20
14.762522
 42
0.071719
  0
VERTEX
  8
0
 10
288.638316
 20
21.371392
 42
0.024746
  0
VERTEX
  8
0
 10
289.425670
 20
32.740434
 42
0.001746
  0
VERTEX
  8
0
 10
289.940864
 20
64.598175
 42
-0.001179
  0
VERTEX
  8
0
 10
290.286533
 20
87.585858
 42
-0.006201
  0
VERTEX
  8
0
 10
290.662671
 20
100.206615
 42
-0.005535
  0
VERTEX
  8
0
 10
291.099893
 20
108.407239
 42
-0.158545
  0
VERTEX
  8
0
 10
291.872445
 20
110.348175
 42
-0.137702
  0
VERTEX
  8
0
 10
293.602667
 20
111.541645
 42
-0.085468
  0
VERTEX
  8
0
 10
296.054953
 20
111.936460
 42
-0.079471
  0
VERTEX
  8
0
 10
298.675205
 20
111.488023
 42
-0.091514
  0
VERTEX
  8
0
 10
300.885229
 20
110.250000
 42
-0.123724
  0
VERTEX
  8
0
 10
302.314860
 20
108.295185
 42
-0.002082
  0
VERTEX
  8
0
 10
307.325126
 20
95.790701
 42
-0.004274
  0
VERTEX
  8
0
 10
313.748077
 20
79.150958
 42
-0.001517
  0
VERTEX
  8
0
 10
322.657198
 20
55.250000
 42
0.000000
  0
VERTEX
  8
0
 10
342.322369
 20
2.000000
 42
0.000000
  0
VERTEX
  8
0
 10
354.161185
 20
2.000000
 42
0.006650
  0
VERTEX
  8
0
 10
359.018103
 20
2.064599
 42
0.014224
  0
VERTEX
  8
0
 10
362.762584
 20
2.270921
 42
0.009127
  0
VERTEX
  8
0
 10
365.620490
 20
2.562704
 42
0.379488
  0
VERTEX
  8
0
 10
366.000000
 20
2.990724
 42
0.089446
  0
VERTEX
  8
0
 10
365.636762
 20
5.004961
 42
0.000056
  0
VERTEX
  8
0
 10
345.400909
 20
59.267920
 42
0.000168
  0
VERTEX
  8
0
 10
325.778701
 20
111.813196
 42
0.028764
  0
VERTEX
  8
0
 10
323.341500
 20
117.341207
 42
0.056281
  0
VERTEX
  8
0
 10
318.882654
 20
124.070268
 42
0.071980
  0
VERTEX
  8
0
 10
313.345557
 20
129.019948
 42
0.071866
  0
VERTEX
  8
0
 10
306.625027
 20
132.202287
 42
0.055876
  0
VERTEX
  8
0
 10
298.668934
 20
133.708677
 42
0.058740
  0
VERTEX
  8
0
 10
289.110968
 20
133.308354
 42
0.077425
  0
VERTEX
  8
0
 10
280.825923
 20
130.620158
 42
0.083676
  0
VERTEX
  8
0
 10
274.229152
 20
125.757082
 42
0.083649
  0
VERTEX
  8
0
 10
269.589787
 20
119.000000
 42
0.070889
  0
VERTEX
  8
0
 10
268.353639
 20
114.905769
 42
0.024813
  0
VERTEX
  8
0
 10
267.725681
 20
108.774624
 42
0.009516
  0
VERTEX
  8
0
 10
267.359553
 20
97.822799
 42
0.000809
  0
VERTEX
  8
0
 10
267.000000
 20
69.668245
 42
-0.000719
  0
VERTEX
  8
0
 10
266.643235
 20
41.334546
 42
-0.009676
  0
VERTEX
  8
0
 10
266.296761
 20
30.958976
 42
-0.021721
  0
VERTEX
  8
0
 10
265.763299
 20
25.428876
 42
-0.202764
  0
VERTEX
  8
0
 10
264.558870
 20
23.418245
 42
-0.112154
  0
VERTEX
  8
0
 10
261.650200
 20
22.162294
 42
-0.121280
  0
VERTEX
  8
0
 10
258.572343
 20
22.338367
 42
-0.112980
  0
VERTEX
  8
0
 10
255.764562
 20
23.959185
 42
-0.088034
  0
VERTEX
  8
0
 10
253.635334
 20
26.779644
 42
-0.024972
  0
VERTEX
  8
0
 10
252.699316
 20
28.869501
 42
-0.000357
  0
VERTEX
  8
0
 10
247.745021
 20
41.625896
 42
-0.000988
  0
VERTEX
  8
0
 10
242.037154
 20
56.440610
 42
-0.000651
  0
VERTEX
  8
0
 10
235.528616
 20
73.500000
 42
0.001381
  0
VERTEX
  8
0
 10
228.977918
 20
90.594996
 42
0.002051
  0
VERTEX
  8
0
 10
223.139139
 20
105.524629
 42
0.000888
  0
VERTEX
  8
0
 10
218.074273
 20
118.254236
 42
0.041990
  0
VERTEX
  8
0
 10
216.832717
 20
120.732778
 42
0.094464
  0
VERTEX
  8
0
 10
210.513944
 20
127.699237
 42
0.082399
  0
VERTEX
  8
0
 10
201.777918
 20
132.261943
 42
0.077105
  0
VERTEX
  8
0
 10
191.496721
 20
133.952638
 42
0.068051
  0
SEQEND
  0
POLYLINE
  8
0
 66
1
 70
1
  0
VERTEX
  8
0
 10
554.717502
 20
132.908424
 42
0.031223
  0
VERTEX
  8
0
 10
550.836072
 20
131.734559
 42
0.046001
  0
VERTEX
  8
0
 10
547.628464
 20
130.192817
 42
0.045208
  0
VERTEX
  8
0
 10
544.717070
 20
128.068552
 42
0.028855
  0
VERTEX
  8
0
 10
541.731285
 20
125.124325
 42
0.090577
  0
VERTEX
  8
0
 10
537.784291
 20
118.744756
 42
0.069089
  0
VERTEX
  8
0
 10
535.864895
 20
110.743278
 42
0.022801
  0
VERTEX
  8
0
 10
535.126458
 20
96.522419
 42
0.001571
  0
VERTEX
  8
0
 10
535.000000
 20
56.285748
 42
0.000000
  0
VERTEX
  8
0
 10
535.000000
 20
1.934498
 42
0.000000
  0
VERTEX
  8
0
 10
546.250000
 20
2.217249
 42
0.000000
  0
VERTEX
  8
0
 10
557.500000
 20
2.500000
 42
0.000000
  0
VERTEX
  8
0
 10
558.000000
 20
55.831076
 42
-0.000583
  0
VERTEX
  8
0
 10
558.357764
 20
89.766681
 42
-0.008212
  0
VERTEX
  8
0
 10
558.700412
 20
101.942948
 42
-0.017061
  0
VERTEX
  8
0
 10
559.215002
 20
108.470006
 42
-0.209691
  0
VERTEX
  8
0
 10
560.441130
 20
110.581076
 42
-0.100757
  0
VERTEX
  8
0
 10
562.760934
 20
111.646056
 42
-0.065441
  0
VERTEX
  8
0
 10
565.706647
 20
111.938189
 42
-0.065628
  0
VERTEX
  8
0
 10
568.617500
 20
111.459725
 42
-0.103214
  0
VERTEX
  8
0
 10
570.833554
 20
110.250000
 42
-0.102668
  0
VERTEX
  8
0
 10
572.062488
 20
108.669129
 42
-0.001189
  0
VERTEX
  8
0
 10
577.911821
 20
96.676562
 42
-0.003567
  0
VERTEX
  8
0
 10
584.553654
 20
82.723889
 42
-0.002314
  0
VERTEX
  8
0
 10
592.043867
 20
66.500000
 42
0.000331
  0
VERTEX
  8
0
 10
609.143634
 20
29.072308
 42
0.007306
  0
VERTEX
  8
0
 10
614.290415
 20
18.247619
 42
0.026276
  0
VERTEX
  8
0
 10
617.457518
 20
12.598597
 42
0.051862
  0
VERTEX
  8
0
 10
620.636622
 20
8.562291
 42
0.046455
  0
VERTEX
  8
0
 10
625.260726
 20
4.610441
 42
0.069351
  0
VERTEX
  8
0
 10
629.980965
 20
2.177905
 42
0.059718
  0
VERTEX
  8
0
 10
635.695614
 20
0.911567
 42
0.025760
  0
VERTEX
  8
0
 10
643.500000
 20
0.542385
 42
0.027438
  0
VERTEX
  8
0
 10
651.330406
 20
1.005711
 42
0.060332
  0
VERTEX
  8
0
 10
657.154738
 20
2.396998
 42
0.070129
  0
VERTEX
  8
0
 10
661.920325
 20
4.969763
 42
0.050299
  0
VERTEX
  8
0
 10
666.414243
 20
9.036757
 42
0.092871
  0
VERTEX
  8
0
 10
670.267046
 20
15.327883
 42
0.067262
  0
VERTEX
  8
0
 10
672.144673
 20
23.348167
 42
0.022341
  0
VERTEX
  8
0
 10
672.873944
 20
37.643107
 42
0.001574
  0
VERTEX
  8
0
 10
673.000000
 20
77.681501
 42
0.000000
  0
VERTEX
  8
0
 10
673.000000
 20
132.000000
 42
0.000000
  0
VERTEX
  8
0
 10
661.500000
 20
132.000000
 42
0.000000
  0
VERTEX
  8
0
 10
650.000000
 20
132.000000
 42
0.000000
  0
VERTEX
  8
0
 10
650.000000
 20
79.072580
 42
0.000000
  0
VERTEX
  8
0
 10
650.000000
 20
26.145160
 42
0.000000
  0
VERTEX
  8
0
 10
647.250313
 20
23.982256
 42
-0.098027
  0
VERTEX
  8
0
 10
644.710909
 20
22.688850
 42
-0.074537
  0
VERTEX
  8
0
 10
641.605798
 20
22.292814
 42
-0.076420
  0
VERTEX
  8
0
 10
638.599950
 20
22.822675
 42
-0.115097
  0
VERTEX
  8
0
 10
636.349972
 20
24.221456
 42
-0.086060
  0
VERTEX
  8
0
 10
635.542182
 20
25.368167
 42
-0.000437
  0
VERTEX
  8
0
 10
629.551943
 20
38.055017
 42
-0.001954
  0
VERTEX
  8
0
 10
622.793671
 20
52.547534
 42
-0.001235
  0
VERTEX
  8
0
 10
615.017177
 20
69.504996
 42
0.000446
  0
VERTEX
  8
0
 10
598.255891
 20
106.207459
 42
0.010594
  0
VERTEX
  8
0
 10
593.310580
 20
116.432627
 42
0.038784
  0
VERTEX
  8
0
 10
589.951982
 20
121.920579
 42
0.048050
  0
VERTEX
  8
0
 10
585.991713
 20
126.410982
 42
0.076110
  0
VERTEX
  8
0
 10
579.784879
 20
130.658178
 42
0.060906
  0
VERTEX
  8
0
 10
572.102016
 20
133.259789
 42
0.057189
  0
VERTEX
  8
0
 10
563.532968
 20
134.038185
 42
0.051945
  0
SEQEND
  0
POLYLINE
  8
0
 66
1
 70
1
  0
VERTEX
  8
0
 10
421.156284
 20
130.991976
 42
0.058419
  0
VERTEX
  8
0
 10
405.453268
 20
126.876924
 42
0.082888
  0
VERTEX
  8
0
 10
393.081108
 20
119.487625
 42
0.082420
  0
VERTEX
  8
0
 10
383.731662
 20
108.444478
 42
0.057082
  0
VERTEX
  8
0
 10
376.985560
 20
93.500000
 42
0.049965
  0
VERTEX
  8
0
 10
375.194844
 20
85.104307
 42
0.016283
  0
VERTEX
  8
0
 10
374.209605
 20
72.454847
 42
0.016737
  0
VERTEX
  8
0
 10
374.056621
 20
59.374970
 42
0.034400
  0
VERTEX
  8
0
 10
374.982363
 20
49.179117
 42
0.058501
  0
VERTEX
  8
0
 10
379.635242
 20
32.762945
 42
0.079915
  0
VERTEX
  8
0
 10
387.690039
 20
19.700115
 42
0.083392
  0
VERTEX
  8
0
 10
399.131477
 20
10.211686
 42
0.070293
  0
VERTEX
  8
0
 10
413.728678
 20
4.286358
 42
0.050471
  0
VERTEX
  8
0
 10
423.642451
 20
2.844884
 42
0.010884
  0
VERTEX
  8
0
 10
441.000000
 20
2.467010
 42
0.010884
  0
VERTEX
  8
0
 10
458.357549
 20
2.844884
 42
0.050471
  0
VERTEX
  8
0
 10
468.271322
 20
4.286358
 42
0.037582
  0
VERTEX
  8
0
 10
477.079363
 20
7.208911
 42
0.045135
  0
VERTEX
  8
0
 10
484.796996
 20
11.283005
 42
0.047206
  0
VERTEX
  8
0
 10
491.370301
 20
16.493572
 42
0.048659
  0
VERTEX
  8
0
 10
496.775850
 20
22.795958
 42
0.047328
  0
VERTEX
  8
0
 10
502.307604
 20
32.522237
 42
0.049565
  0
VERTEX
  8
0
 10
505.809631
 20
42.967895
 42
0.042050
  0
VERTEX
  8
0
 10
507.552644
 20
55.302117
 42
0.021776
  0
VERTEX
  8
0
 10
507.751849
 20
70.876745
 42
0.005561
  0
VERTEX
  8
0
 10
507.405881
 20
79.133495
 42
0.016600
  0
VERTEX
  8
0
 10
506.919058
 20
84.767432
 42
0.022959
  0
VERTEX
  8
0
 10
506.175745
 20
89.223111
 42
0.024411
  0
VERTEX
  8
0
 10
505.037899
 20
93.500000
 42
0.049613
  0
VERTEX
  8
0
 10
499.280438
 20
106.820337
 42
0.071449
  0
VERTEX
  8
0
 10
491.522021
 20
117.030710
 42
0.073307
  0
VERTEX
  8
0
 10
481.369287
 20
124.464505
 42
0.055482
  0
VERTEX
  8
0
 10
468.500000
 20
129.527318
 42
0.050093
  0
VERTEX
  8
0
 10
460.863393
 20
130.789922
 42
0.008206
  0
VERTEX
  8
0
 10
445.881026
 20
131.499699
 42
0.009184
  0
VERTEX
  8
0
 10
430.739425
 20
131.689874
 42
0.033457
  0
SEQEND
  0
POLYLINE
  8
0
 66
1
 70
1
  0
VERTEX
  8
0
 10
462.372540
 20
107.491183
 42
-0.090013
  0
VERTEX
  8
0
 10
472.729644
 20
102.686599
 42
-0.111011
  0
VERTEX
  8
0
 10
479.857303
 20
94.814226
 42
-0.088524
  0
VERTEX
  8
0
 10
483.950206
 20
83.172957
 42
-0.040034
  0
VERTEX
  8
0
 10
485.270797
 20
67.000000
 42
-0.040553
  0
VERTEX
  8
0
 10
483.974703
 20
50.754759
 42
-0.089758
  0
VERTEX
  8
0
 10
479.846920
 20
39.075004
 42
-0.112227
  0
VERTEX
  8
0
 10
472.622692
 20
31.199098
 42
-0.089666
  0
VERTEX
  8
0
 10
462.106484
 20
26.424993
 42
-0.028624
  0
VERTEX
  8
0
 10
458.033633
 20
25.641410
 42
-0.021135
  0
VERTEX
  8
0
 10
453.461161
 20
25.226133
 42
-0.014237
  0
VERTEX
  8
0
 10
447.370806
 20
25.105305
 42
-0.004285
  0
VERTEX
  8
0
 10
438.106484
 20
25.264701
 42
-0.007301
  0
VERTEX
  8
0
 10
425.539993
 20
25.772355
 42
-0.036924
  0
VERTEX
  8
0
 10
418.584520
 20
26.673147
 42
-0.061442
  0
VERTEX
  8
0
 10
413.613352
 20
28.350023
 42
-0.049031
  0
VERTEX
  8
0
 10
408.775256
 20
31.290030
 42
-0.106182
  0
VERTEX
  8
0
 10
402.582963
 20
38.419045
 42
-0.060387
  0
VERTEX
  8
0
 10
398.296153
 20
49.059107
 42
-0.053274
  0
VERTEX
  8
0
 10
396.268543
 20
61.957447
 42
-0.044338
  0
VERTEX
  8
0
 10
396.812049
 20
75.835426
 42
-0.009963
  0
VERTEX
  8
0
 10
397.897694
 20
83.132890
 42
-0.030291
  0
VERTEX
  8
0
 10
399.031589
 20
88.015756
 42
-0.039600
  0
VERTEX
  8
0
 10
400.552870
 20
91.962570
 42
-0.029739
  0
VERTEX
  8
0
 10
402.811962
 20
96.034520
 42
-0.049530
  0
VERTEX
  8
0
 10
405.830652
 20
99.884511
 42
-0.048791
  0
VERTEX
  8
0
 10
409.561680
 20
103.087258
 42
-0.047095
  0
VERTEX
  8
0
 10
413.970137
 20
105.598103
 42
-0.040417
  0
VERTEX
  8
0
 10
419.000000
 20
107.393314
 42
-0.053292
  0
VERTEX
  8
0
 10
426.897913
 20
108.631796
 42
-0.011702
  0
VERTEX
  8
0
 10
440.650795
 20
108.984763
 42
-0.011744
  0
VERTEX
  8
0
 10
454.410286
 20
108.692610
 42
-0.052571
  0
SEQEND
  0
ENDSEC
  0
EOF
