  0
SECTION
  2
HEADER
  9
$ACADVER
  1
AC1006
  9
$EXTMIN
 10
0.000000
 20
0.000000
 30
0.000000
  9
$EXTMAX
 10
600.000000
 20
487.000000
 30
0.000000
  0
ENDSEC
  0
SECTION
  2
ENTITIES
  0
POLYLINE
  8
0
 66
1
 70
1
  0
VERTEX
  8
0
 10
276.191999
 20
485.875322
 42
0.030062
  0
VERTEX
  8
0
 10
275.352760
 20
485.506145
 42
0.039906
  0
VERTEX
  8
0
 10
274.643900
 20
485.067341
 42
0.044820
  0
VERTEX
  8
0
 10
274.144270
 20
484.625902
 42
0.191691
  0
VERTEX
  8
0
 10
274.000000
 20
484.263423
 42
-0.039011
  0
VERTEX
  8
0
 10
273.951859
 20
483.647344
 42
-0.000273
  0
VERTEX
  8
0
 10
273.132655
 20
478.456018
 42
-0.001056
  0
VERTEX
  8
0
 10
272.179095
 20
472.515860
 42
-0.000676
  0
VERTEX
  8
0
 10
271.047337
 20
465.618378
 42
-0.007089
  0
VERTEX
  8
0
 10
268.363104
 20
450.711989
 42
-0.022090
  0
VERTEX
  8
0
 10
265.973250
 20
440.796608
 42
-0.030821
  0
VERTEX
  8
0
 10
263.630084
 20
434.220906
 42
-0.139086
  0
VERTEX
  8
0
 10
261.090912
 20
431.083061
 42
-0.044027
  0
VERTEX
  8
0
 10
253.377869
 20
426.604480
 42
-0.021118
  0
VERTEX
  8
0
 10
242.807062
 20
422.186915
 42
-0.017840
  0
VERTEX
  8
0
 10
232.464337
 20
418.783113
 42
-0.117317
  0
VERTEX
  8
0
 10
227.055228
 20
418.519511
 42
-0.074786
  0
VERTEX
  8
0
 10
221.197319
 20
420.553285
 42
-0.021598
  0
VERTEX
  8
0
 10
212.892654
 20
425.381803
 42
-0.018471
  0
VERTEX
  8
0
 10
202.811889
 20
432.379176
 42
-0.010330
  0
VERTEX
  8
0
 10
191.056050
 20
441.585599
 42
0.016851
  0
VERTEX
  8
0
 10
188.432752
 20
443.585361
 42
0.067366
  0
VERTEX
  8
0
 10
186.647647
 20
444.521758
 42
0.082355
  0
VERTEX
  8
0
 10
184.864457
 20
444.854052
 42
0.033046
  0
VERTEX
  8
0
 10
182.378375
 20
444.739181
 42
0.086154
  0
VERTEX
  8
0
 10
179.416672
 20
443.874286
 42
0.055460
  0
VERTEX
  8
0
 10
176.391624
 20
441.948886
 42
0.023325
  0
VERTEX
  8
0
 10
171.990314
 20
438.055315
 42
0.002662
  0
VERTEX
  8
0
 10
162.527391
 20
428.764364
 42
0.002627
  0
VERTEX
  8
0
 10
156.368619
 20
422.588221
 42
0.003392
  0
VERTEX
  8
0
 10
150.782682
 20
416.850019
 42
0.002581
  0
VERTEX
  8
0
 10
146.161391
 20
411.987886
 42
0.029812
  0
VERTEX
  8
0
 10
144.476022
 20
409.967500
 42
0.000000
  0
VERTEX
  8
0
 10
142.041913
 20
406.668251
 42
0.000000
  0
VERTEX
  8
0
 10
144.219894
 20
403.084125
 42
0.010944
  0
VERTEX
  8
0
 10
145.672790
 20
400.807046
 42
0.000936
  0
VERTEX
  8
0
 10
149.534186
 20
395.060953
 42
0.001237
  0
VERTEX
  8
0
 10
154.170541
 20
388.225991
 42
0.000958
  0
VERTEX
  8
0
 10
159.252659
 20
380.804226
 42
-0.001679
  0
VERTEX
  8
0
 10
167.731585
 20
368.383478
 42
-0.027944
  0
VERTEX
  8
0
 10
170.299897
 20
364.096437
 42
-0.098869
  0
VERTEX
  8
0
 10
171.059708
 20
361.519973
 42
-0.142688
  0
VERTEX
  8
0
 10
170.605021
 20
359.203088
 42
0.016695
  0
VERTEX
  8
0
 10
169.786342
 20
357.481391
 42
0.002748
  0
VERTEX
  8
0
 10
168.335333
 20
354.096509
 42
0.003019
  0
VERTEX
  8
0
 10
166.673599
 20
350.093161
 42
0.002662
  0
VERTEX
  8
0
 10
164.988210
 20
345.898862
 42
-0.007768
  0
VERTEX
  8
0
 10
163.180840
 20
341.530471
 42
-0.006726
  0
VERTEX
  8
0
 10
161.152429
 20
337.003879
 42
-0.006782
  0
VERTEX
  8
0
 10
159.203794
 20
332.952301
 42
-0.019585
  0
VERTEX
  8
0
 10
157.707882
 20
330.220726
 42
-0.066322
  0
VERTEX
  8
0
 10
154.614112
 20
326.336834
 42
-0.098254
  0
VERTEX
  8
0
 10
150.960146
 20
323.995655
 42
-0.041848
  0
VERTEX
  8
0
 10
144.730436
 20
322.134601
 42
-0.003931
  0
VERTEX
  8
0
 10
129.053859
 20
318.976574
 42
0.002816
  0
VERTEX
  8
0
 10
122.705713
 20
317.712480
 42
0.002888
  0
VERTEX
  8
0
 10
116.425676
 20
316.387290
 42
0.002797
  0
VERTEX
  8
0
 10
110.989859
 20
315.175532
 42
0.012157
  0
VERTEX
  8
0
 10
107.790932
 20
314.361302
 42
0.000000
  0
VERTEX
  8
0
 10
102.000000
 20
312.736449
 42
0.000000
  0
VERTEX
  8
0
 10
102.105887
 20
294.118225
 42
0.002799
  0
VERTEX
  8
0
 10
102.193704
 20
286.337126
 42
0.002590
  0
VERTEX
  8
0
 10
102.369878
 20
278.353673
 42
0.002584
  0
VERTEX
  8
0
 10
102.600261
 20
271.248108
 42
0.008660
  0
VERTEX
  8
0
 10
102.855887
 20
266.596406
 42
0.000000
  0
VERTEX
  8
0
 10
103.500000
 20
257.692812
 42
0.000000
  0
VERTEX
  8
0
 10
107.257551
 20
256.396140
 42
0.019958
  0
VERTEX
  8
0
 10
109.271656
 20
255.789884
 42
0.005522
  0
VERTEX
  8
0
 10
112.479415
 20
255.000049
 42
0.005568
  0
VERTEX
  8
0
 10
116.134887
 20
254.185517
 42
0.005803
  0
VERTEX
  8
0
 10
119.757551
 20
253.464350
 42
-0.001923
  0
VERTEX
  8
0
 10
136.830262
 20
250.203188
 42
-0.010183
  0
VERTEX
  8
0
 10
146.136133
 20
248.190955
 42
-0.014556
  0
VERTEX
  8
0
 10
151.881929
 20
246.647500
 42
-0.124096
  0
VERTEX
  8
0
 10
154.154404
 20
245.290040
 42
-0.097364
  0
VERTEX
  8
0
 10
155.882854
 20
242.715693
 42
-0.002811
  0
VERTEX
  8
0
 10
160.935405
 20
230.477714
 42
-0.006062
  0
VERTEX
  8
0
 10
165.608213
 20
218.564466
 42
-0.021536
  0
VERTEX
  8
0
 10
168.177127
 20
210.776208
 42
-0.026930
  0
VERTEX
  8
0
 10
168.537106
 20
209.179143
 42
-0.022755
  0
VERTEX
  8
0
 10
168.748478
 20
207.460101
 42
-0.023372
  0
VERTEX
  8
0
 10
168.796295
 20
205.872352
 42
-0.057382
  0
VERTEX
  8
0
 10
168.643691
 20
204.716487
 42
-0.077616
  0
VERTEX
  8
0
 10
168.001658
 20
203.201429
 42
-0.003474
  0
VERTEX
  8
0
 10
164.963433
 20
198.384279
 42
-0.005769
  0
VERTEX
  8
0
 10
161.240769
 20
192.716895
 42
-0.004088
  0
VERTEX
  8
0
 10
156.938442
 20
186.440278
 42
0.002699
  0
VERTEX
  8
0
 10
152.537187
 20
180.057434
 42
0.003338
  0
VERTEX
  8
0
 10
148.509333
 20
174.062502
 42
0.002747
  0
VERTEX
  8
0
 10
145.188862
 20
168.988092
 42
0.024673
  0
VERTEX
  8
0
 10
143.857471
 20
166.687389
 42
0.000000
  0
VERTEX
  8
0
 10
141.895468
 20
162.874777
 42
0.000000
  0
VERTEX
  8
0
 10
151.012334
 20
152.986622
 42
0.010345
  0
VERTEX
  8
0
 10
157.632279
 20
146.098215
 42
0.005908
  0
VERTEX
  8
0
 10
165.894705
 20
138.041991
 42
0.005572
  0
VERTEX
  8
0
 10
173.891248
 20
130.595385
 42
0.020670
  0
VERTEX
  8
0
 10
179.170998
 20
126.172407
 42
0.248801
  0
VERTEX
  8
0
 10
181.694698
 20
125.743640
 42
0.040726
  0
VERTEX
  8
0
 10
186.413148
 20
127.743116
 42
0.023230
  0
VERTEX
  8
0
 10
193.795595
 20
132.055482
 42
0.004518
  0
VERTEX
  8
0
 10
206.665085
 20
140.563917
 42
-0.005604
  0
VERTEX
  8
0
 10
212.742008
 20
144.562616
 42
-0.008194
  0
VERTEX
  8
0
 10
218.187705
 20
147.934401
 42
-0.004536
  0
VERTEX
  8
0
 10
222.830325
 20
150.647939
 42
-0.130702
  0
VERTEX
  8
0
 10
224.154128
 20
151.000000
 42
-0.090852
  0
VERTEX
  8
0
 10
225.342422
 20
150.782284
 42
-0.010842
  0
VERTEX
  8
0
 10
227.831751
 20
149.776167
 42
-0.012642
  0
VERTEX
  8
0
 10
230.760691
 20
148.429116
 42
-0.010072
  0
VERTEX
  8
0
 10
233.851513
 20
146.833760
 42
0.023278
  0
VERTEX
  8
0
 10
239.833097
 20
143.943687
 42
0.108450
  0
VERTEX
  8
0
 10
243.574345
 20
143.233926
 42
0.192886
  0
VERTEX
  8
0
 10
246.113679
 20
144.336582
 42
0.105684
  0
VERTEX
  8
0
 10
247.970712
 20
147.237280
 42
-0.006754
  0
VERTEX
  8
0
 10
248.783514
 20
149.318186
 42
-0.000599
  0
VERTEX
  8
0
 10
250.910264
 20
154.535326
 42
-0.000782
  0
VERTEX
  8
0
 10
253.464187
 20
160.751210
 42
-0.000609
  0
VERTEX
  8
0
 10
256.259043
 20
167.500000
 42
0.000537
  0
VERTEX
  8
0
 10
266.504897
 20
192.230765
 42
0.002567
  0
VERTEX
  8
0
 10
272.267136
 20
206.387169
 42
0.004427
  0
VERTEX
  8
0
 10
275.947755
 20
215.804678
 42
0.010752
  0
VERTEX
  8
0
 10
278.451584
 20
222.833334
 42
0.000000
  0
VERTEX
  8
0
 10
281.219750
 20
231.166667
 42
0.000000
  0
VERTEX
  8
0
 10
268.757162
 20
243.333334
 42
-0.009572
  0
VERTEX
  8
0
 10
260.346393
 20
251.864891
 42
-0.043677
  0
VERTEX
  8
0
 10
256.014523
 20
257.312185
 42
-0.057273
  0
VERTEX
  8
0
 10
253.272503
 20
262.708776
 42
-0.024513
  0
VERTEX
  8
0
 10
250.826752
 20
270.432371
 42
-0.099273
  0
VERTEX
  8
0
 10
249.521520
 20
292.249310
 42
-0.096728
  0
VERTEX
  8
0
 10
256.688234
 20
313.104564
 42
-0.099439
  0
VERTEX
  8
0
 10
270.946566
 20
329.293352
 42
-0.111686
  0
VERTEX
  8
0
 10
289.799221
 20
337.894916
 42
-0.046224
  0
VERTEX
  8
0
 10
300.162220
 20
339.073130
 42
-0.041372
  0
VERTEX
  8
0
 10
310.966815
 20
338.403792
 42
-0.041919
  0
VERTEX
  8
0
 10
321.360873
 20
335.988118
 42
-0.051101
  0
VERTEX
  8
0
 10
330.500000
 20
331.969619
 42
-0.043976
  0
VERTEX
  8
0
 10
338.527197
 20
326.427491
 42
-0.041596
  0
VERTEX
  8
0
 10
345.625199
 20
319.471328
 42
-0.042977
  0
VERTEX
  8
0
 10
351.246043
 20
311.704353
 42
-0.056565
  0
VERTEX
  8
0
 10
354.869757
 20
303.751355
 42
-0.080738
  0
VERTEX
  8
0
 10
357.705389
 20
285.411266
 42
-0.083236
  0
VERTEX
  8
0
 10
354.529103
 20
267.321774
 42
-0.081184
  0
VERTEX
  8
0
 10
345.514170
 20
250.894922
 42
-0.071894
  0
VERTEX
  8
0
 10
331.403972
 20
237.394224
 42
0.011252
  0
VERTEX
  8
0
 10
328.950748
 20
235.558946
 42
0.016433
  0
VERTEX
  8
0
 10
326.882805
 20
233.825414
 42
0.011886
  0
VERTEX
  8
0
 10
325.277947
 20
232.317426
 42
0.202068
  0
VERTEX
  8
0
 10
325.005577
 20
231.662222
 42
0.073644
  0
VERTEX
  8
0
 10
325.448763
 20
228.765557
 42
0.012703
  0
VERTEX
  8
0
 10
327.222459
 20
223.488450
 42
0.010108
  0
VERTEX
  8
0
 10
330.116570
 20
216.023855
 42
0.003294
  0
VERTEX
  8
0
 10
334.682917
 20
205.122426
 42
-0.001719
  0
VERTEX
  8
0
 10
337.991301
 20
197.293473
 42
-0.001151
  0
VERTEX
  8
0
 10
341.724888
 20
188.314936
 42
-0.001159
  0
VERTEX
  8
0
 10
345.302499
 20
179.598148
 42
-0.002283
  0
VERTEX
  8
0
 10
348.097749
 20
172.651826
 42
0.004520
  0
VERTEX
  8
0
 10
350.621250
 20
166.460942
 42
0.004152
  0
VERTEX
  8
0
 10
353.327437
 20
160.137892
 42
0.004150
  0
VERTEX
  8
0
 10
355.834924
 20
154.538002
 42
0.013632
  0
VERTEX
  8
0
 10
357.620929
 20
150.901826
 42
0.032177
  0
VERTEX
  8
0
 10
360.702803
 20
145.854328
 42
0.190642
  0
VERTEX
  8
0
 10
363.238749
 20
144.187254
 42
0.142560
  0
VERTEX
  8
0
 10
366.653979
 20
144.455658
 42
0.015619
  0
VERTEX
  8
0
 10
374.000000
 20
147.500000
 42
-0.012922
  0
VERTEX
  8
0
 10
379.998836
 20
150.024033
 42
-0.073684
  0
VERTEX
  8
0
 10
383.360727
 20
150.794635
 42
-0.124987
  0
VERTEX
  8
0
 10
385.938237
 20
150.350960
 42
-0.068706
  0
VERTEX
  8
0
 10
388.673275
 20
148.650126
 42
0.024015
  0
VERTEX
  8
0
 10
394.229705
 20
144.465257
 42
0.003279
  0
VERTEX
  8
0
 10
406.299814
 20
136.367226
 42
0.002257
  0
VERTEX
  8
0
 10
418.774468
 20
128.196634
 42
0.045694
  0
VERTEX
  8
0
 10
422.776872
 20
126.092422
 42
0.032369
  0
VERTEX
  8
0
 10
424.758616
 20
125.418087
 42
0.118371
  0
VERTEX
  8
0
 10
426.075799
 20
125.381693
 42
0.092996
  0
VERTEX
  8
0
 10
427.434814
 20
125.945863
 42
0.015733
  0
VERTEX
  8
0
 10
429.747764
 20
127.563817
 42
0.027201
  0
VERTEX
  8
0
 10
434.657143
 20
131.667609
 42
0.005275
  0
VERTEX
  8
0
 10
443.027738
 20
139.642513
 42
0.005988
  0
VERTEX
  8
0
 10
451.623862
 20
148.209831
 42
0.011940
  0
VERTEX
  8
0
 10
458.179029
 20
155.229095
 42
0.005710
  0
VERTEX
  8
0
 10
462.004328
 20
159.626594
 42
0.066264
  0
VERTEX
  8
0
 10
463.237364
 20
161.541151
 42
0.138816
  0
VERTEX
  8
0
 10
463.508793
 20
163.181689
 42
0.051764
  0
VERTEX
  8
0
 10
463.005067
 20
165.484648
 42
0.044224
  0
VERTEX
  8
0
 10
462.207750
 20
167.333433
 42
0.010529
  0
VERTEX
  8
0
 10
460.550844
 20
170.250140
 42
0.010746
  0
VERTEX
  8
0
 10
458.497181
 20
173.531897
 42
0.010431
  0
VERTEX
  8
0
 10
456.284591
 20
176.755553
 42
-0.008235
  0
VERTEX
  8
0
 10
449.495916
 20
186.553890
 42
-0.011806
  0
VERTEX
  8
0
 10
443.831786
 20
195.472516
 42
-0.010571
  0
VERTEX
  8
0
 10
439.560365
 20
202.914249
 42
-0.084967
  0
VERTEX
  8
0
 10
438.284498
 20
206.634270
 42
-0.054905
  0
VERTEX
  8
0
 10
438.183962
 20
208.597091
 42
-0.034742
  0
VERTEX
  8
0
 10
438.476782
 20
210.872583
 42
-0.028079
  0
VERTEX
  8
0
 10
439.173451
 20
213.560762
 42
-0.014978
  0
VERTEX
  8
0
 10
440.318057
 20
216.799831
 42
-0.000340
  0
VERTEX
  8
0
 10
446.026954
 20
231.505013
 42
-0.001931
  0
VERTEX
  8
0
 10
449.103038
 20
239.323054
 42
-0.001938
  0
VERTEX
  8
0
 10
451.108452
 20
244.306412
 42
-0.041801
  0
VERTEX
  8
0
 10
451.824672
 20
245.716314
 42
-0.185749
  0
VERTEX
  8
0
 10
452.567374
 20
246.280814
 42
-0.005825
  0
VERTEX
  8
0
 10
456.304728
 20
247.318980
 42
-0.010631
  0
VERTEX
  8
0
 10
460.819253
 20
248.414378
 42
-0.007084
  0
VERTEX
  8
0
 10
466.033502
 20
249.485523
 42
0.002674
  0
VERTEX
  8
0
 10
481.464905
 20
252.513947
 42
0.006339
  0
VERTEX
  8
0
 10
492.909477
 20
254.974976
 42
0.003580
  0
VERTEX
  8
0
 10
501.681291
 20
257.044118
 42
0.137316
  0
VERTEX
  8
0
 10
503.425087
 20
258.023503
 42
0.182303
  0
VERTEX
  8
0
 10
503.931620
 20
259.141247
 42
0.003482
  0
VERTEX
  8
0
 10
504.306289
 20
265.607090
 42
0.006874
  0
VERTEX
  8
0
 10
504.618654
 20
274.007026
 42
0.002794
  0
VERTEX
  8
0
 10
504.822738
 20
285.449352
 42
0.000000
  0
VERTEX
  8
0
 10
505.145476
 20
311.801872
 42
0.000000
  0
VERTEX
  8
0
 10
499.774546
 20
313.811395
 42
0.026285
  0
VERTEX
  8
0
 10
496.869479
 20
314.727463
 42
0.007099
  0
VERTEX
  8
0
 10
492.176734
 20
315.869444
 42
0.007167
  0
VERTEX
  8
0
 10
486.804352
 20
317.015541
 42
0.007373
  0
VERTEX
  8
0
 10
481.451808
 20
317.995637
 42
-0.004502
  0
VERTEX
  8
0
 10
469.449393
 20
320.122233
 42
-0.014526
  0
VERTEX
  8
0
 10
461.530596
 20
321.838359
 42
-0.020764
  0
VERTEX
  8
0
 10
456.135062
 20
323.413191
 42
-0.073448
  0
VERTEX
  8
0
 10
452.929708
 20
325.050052
 42
-0.120731
  0
VERTEX
  8
0
 10
448.857453
 20
329.771360
 42
-0.012790
  0
VERTEX
  8
0
 10
442.543537
 20
342.982055
 42
-0.011786
  0
VERTEX
  8
0
 10
436.860015
 20
356.549695
 42
-0.143605
  0
VERTEX
  8
0
 10
436.370751
 20
362.103755
 42
-0.084452
  0
VERTEX
  8
0
 10
437.057021
 20
363.894861
 42
-0.003198
  0
VERTEX
  8
0
 10
440.757282
 20
370.056622
 42
-0.005678
  0
VERTEX
  8
0
 10
445.280318
 20
377.294230
 42
-0.003959
  0
VERTEX
  8
0
 10
450.540342
 20
385.360948
 42
0.002734
  0
VERTEX
  8
0
 10
457.735166
 20
396.335974
 42
0.015143
  0
VERTEX
  8
0
 10
461.390575
 20
402.372004
 42
0.023750
  0
VERTEX
  8
0
 10
463.329621
 20
406.220187
 42
0.182985
  0
VERTEX
  8
0
 10
463.443191
 20
408.200202
 42
0.106385
  0
VERTEX
  8
0
 10
462.607334
 20
409.671491
 42
0.003020
  0
VERTEX
  8
0
 10
457.719854
 20
415.081974
 42
0.006016
  0
VERTEX
  8
0
 10
451.826949
 20
421.373092
 42
0.004086
  0
VERTEX
  8
0
 10
444.975040
 20
428.398008
 42
0.001749
  0
VERTEX
  8
0
 10
433.542879
 20
439.848389
 42
0.024053
  0
VERTEX
  8
0
 10
429.188711
 20
443.781232
 42
0.075910
  0
VERTEX
  8
0
 10
426.452159
 20
445.402968
 42
0.146240
  0
VERTEX
  8
0
 10
423.937747
 20
445.637549
 42
0.057885
  0
VERTEX
  8
0
 10
422.328774
 20
445.116757
 42
0.019463
  0
VERTEX
  8
0
 10
420.122427
 20
444.002662
 42
0.019066
  0
VERTEX
  8
0
 10
417.756474
 20
442.569448
 42
0.020702
  0
VERTEX
  8
0
 10
415.572705
 20
440.996631
 42
-0.015745
  0
VERTEX
  8
0
 10
409.417700
 20
436.470292
 42
-0.003177
  0
VERTEX
  8
0
 10
398.180248
 20
428.844143
 42
-0.002597
  0
VERTEX
  8
0
 10
386.807001
 20
421.316188
 42
-0.025569
  0
VERTEX
  8
0
 10
381.847458
 20
418.421117
 42
-0.071386
  0
VERTEX
  8
0
 10
379.693958
 20
417.672116
 42
-0.092875
  0
VERTEX
  8
0
 10
377.610078
 20
417.657589
 42
-0.038580
  0
VERTEX
  8
0
 10
374.521940
 20
418.463804
 42
-0.003662
  0
VERTEX
  8
0
 10
367.155678
 20
421.067980
 42
-0.006644
  0
VERTEX
  8
0
 10
362.206839
 20
422.933144
 42
-0.005466
  0
VERTEX
  8
0
 10
356.974551
 20
425.051223
 42
-0.005524
  0
VERTEX
  8
0
 10
352.211399
 20
427.102354
 42
-0.014595
  0
VERTEX
  8
0
 10
348.864070
 20
428.706362
 42
0.000000
  0
VERTEX
  8
0
 10
342.228140
 20
432.127852
 42
0.000000
  0
VERTEX
  8
0
 10
340.602204
 20
440.313926
 42
-0.000343
  0
VERTEX
  8
0
 10
339.778227
 20
444.477330
 42
-0.000117
  0
VERTEX
  8
0
 10
338.586292
 20
450.529156
 42
-0.000116
  0
VERTEX
  8
0
 10
337.272749
 20
457.214817
 42
-0.000133
  0
VERTEX
  8
0
 10
336.022755
 20
463.593839
 42
0.003833
  0
VERTEX
  8
0
 10
333.588501
 20
475.547124
 42
0.034045
  0
VERTEX
  8
0
 10
332.121518
 20
480.714238
 42
0.085830
  0
VERTEX
  8
0
 10
330.540345
 20
483.502052
 42
0.122480
  0
VERTEX
  8
0
 10
328.267933
 20
485.193534
 42
0.093814
  0
VERTEX
  8
0
 10
323.791516
 20
486.143219
 42
0.002220
  0
VERTEX
  8
0
 10
302.300326
 20
486.520044
 42
0.002300
  0
VERTEX
  8
0
 10
280.862425
 20
486.702105
 42
0.089792
  0
SEQEND
  0
POLYLINE
  8
0
 66
1
 70
1
  0
VERTEX
  8
0
 10
317.483437
 20
473.571367
 42
-0.132221
  0
VERTEX
  8
0
 10
320.145381
 20
471.510975
 42
-0.075892
  0
VERTEX
  8
0
 10
322.096012
 20
467.920688
 42
-0.037312
  0
VERTEX
  8
0
 10
323.827134
 20
461.704599
 42
-0.006775
  0
VERTEX
  8
0
 10
326.012484
 20
449.927240
 42
0.006697
  0
VERTEX
  8
0
 10
326.915695
 20
445.055381
 42
0.005183
  0
VERTEX
  8
0
 10
328.025481
 20
439.772806
 42
0.005243
  0
VERTEX
  8
0
 10
329.164399
 20
434.862732
 42
0.012543
  0
VERTEX
  8
0
 10
330.138376
 20
431.252305
 42
0.011811
  0
VERTEX
  8
0
 10
331.548338
 20
426.883792
 42
0.062409
  0
VERTEX
  8
0
 10
332.664412
 20
424.633840
 42
0.083508
  0
VERTEX
  8
0
 10
334.152968
 20
423.041621
 42
0.030588
  0
VERTEX
  8
0
 10
336.720036
 20
421.318182
 42
0.023233
  0
VERTEX
  8
0
 10
339.227009
 20
420.001429
 42
0.004977
  0
VERTEX
  8
0
 10
343.700765
 20
417.964704
 42
0.005190
  0
VERTEX
  8
0
 10
348.936127
 20
415.708604
 42
0.004926
  0
VERTEX
  8
0
 10
354.308831
 20
413.521105
 42
-0.003328
  0
VERTEX
  8
0
 10
359.773776
 20
411.316380
 42
-0.003192
  0
VERTEX
  8
0
 10
365.285908
 20
409.008599
 42
-0.003160
  0
VERTEX
  8
0
 10
370.122188
 20
406.911182
 42
-0.011495
  0
VERTEX
  8
0
 10
373.153834
 20
405.489450
 42
0.066917
  0
VERTEX
  8
0
 10
378.051407
 20
403.823579
 42
0.140658
  0
VERTEX
  8
0
 10
382.021234
 20
404.162829
 42
0.052817
  0
VERTEX
  8
0
 10
387.385929
 20
406.889719
 42
0.003460
  0
VERTEX
  8
0
 10
401.934942
 20
416.478499
 42
-0.003277
  0
VERTEX
  8
0
 10
408.521671
 20
420.823054
 42
-0.004270
  0
VERTEX
  8
0
 10
414.609975
 20
424.708274
 42
-0.003200
  0
VERTEX
  8
0
 10
419.754709
 20
427.884219
 42
-0.038859
  0
VERTEX
  8
0
 10
421.822418
 20
428.931890
 42
0.000000
  0
VERTEX
  8
0
 10
425.144837
 20
430.302634
 42
0.000000
  0
VERTEX
  8
0
 10
432.185230
 20
423.401317
 42
-0.007196
  0
VERTEX
  8
0
 10
435.196895
 20
420.362938
 42
-0.005401
  0
VERTEX
  8
0
 10
438.426449
 20
416.936243
 42
-0.005462
  0
VERTEX
  8
0
 10
441.395871
 20
413.645159
 42
-0.012472
  0
VERTEX
  8
0
 10
443.545421
 20
411.083767
 42
0.000000
  0
VERTEX
  8
0
 10
447.865218
 20
405.667534
 42
0.000000
  0
VERTEX
  8
0
 10
445.308982
 20
400.583767
 42
-0.018619
  0
VERTEX
  8
0
 10
443.843257
 20
397.920665
 42
-0.004912
  0
VERTEX
  8
0
 10
441.300890
 20
393.775758
 42
-0.004979
  0
VERTEX
  8
0
 10
438.312350
 20
389.112962
 42
-0.005095
  0
VERTEX
  8
0
 10
435.254024
 20
384.546474
 42
0.004216
  0
VERTEX
  8
0
 10
432.140765
 20
379.915592
 42
0.003773
  0
VERTEX
  8
0
 10
428.987357
 20
375.059172
 42
0.003785
  0
VERTEX
  8
0
 10
426.221305
 20
370.654950
 42
0.011780
  0
VERTEX
  8
0
 10
424.450810
 20
367.630824
 42
0.000000
  0
VERTEX
  8
0
 10
421.146317
 20
361.668701
 42
0.000000
  0
VERTEX
  8
0
 10
425.451160
 20
353.084350
 42
-0.005507
  0
VERTEX
  8
0
 10
427.404722
 20
349.079236
 42
-0.002935
  0
VERTEX
  8
0
 10
429.737602
 20
344.084153
 42
-0.002920
  0
VERTEX
  8
0
 10
432.061149
 20
338.953192
 42
-0.004542
  0
VERTEX
  8
0
 10
433.998204
 20
334.500000
 42
0.005512
  0
VERTEX
  8
0
 10
437.747519
 20
325.926007
 42
0.010199
  0
VERTEX
  8
0
 10
441.010112
 20
319.061057
 42
0.004836
  0
VERTEX
  8
0
 10
443.827839
 20
313.564780
 42
0.274890
  0
VERTEX
  8
0
 10
444.764395
 20
312.989449
 42
-0.049722
  0
VERTEX
  8
0
 10
447.114029
 20
312.721125
 42
-0.000423
  0
VERTEX
  8
0
 10
464.968795
 20
308.842390
 42
-0.000961
  0
VERTEX
  8
0
 10
481.826145
 20
305.131446
 42
-0.018869
  0
VERTEX
  8
0
 10
486.965984
 20
303.784276
 42
-0.022331
  0
VERTEX
  8
0
 10
489.439126
 20
302.912980
 42
-0.089697
  0
VERTEX
  8
0
 10
490.789896
 20
302.061788
 42
-0.109440
  0
VERTEX
  8
0
 10
491.615861
 20
300.883960
 42
-0.041823
  0
VERTEX
  8
0
 10
492.230194
 20
298.965874
 42
-0.047945
  0
VERTEX
  8
0
 10
492.874619
 20
294.057566
 42
-0.008760
  0
VERTEX
  8
0
 10
493.032435
 20
284.888082
 42
-0.007923
  0
VERTEX
  8
0
 10
492.884142
 20
275.710252
 42
-0.062206
  0
VERTEX
  8
0
 10
492.221670
 20
271.505099
 42
-0.164649
  0
VERTEX
  8
0
 10
490.373156
 20
268.842600
 42
-0.071209
  0
VERTEX
  8
0
 10
486.528465
 20
266.765273
 42
-0.036469
  0
VERTEX
  8
0
 10
479.821193
 20
264.834453
 42
-0.007538
  0
VERTEX
  8
0
 10
467.752816
 20
262.484531
 42
0.006492
  0
VERTEX
  8
0
 10
457.603351
 20
260.530274
 42
0.015229
  0
VERTEX
  8
0
 10
450.090957
 20
258.742278
 42
0.016632
  0
VERTEX
  8
0
 10
444.693305
 20
257.088103
 42
0.119485
  0
VERTEX
  8
0
 10
442.414231
 20
255.632179
 42
0.091912
  0
VERTEX
  8
0
 10
441.898601
 20
254.847160
 42
0.011212
  0
VERTEX
  8
0
 10
441.140315
 20
252.923203
 42
0.012983
  0
VERTEX
  8
0
 10
440.342663
 20
250.571825
 42
0.010374
  0
VERTEX
  8
0
 10
439.602192
 20
248.000000
 42
-0.019305
  0
VERTEX
  8
0
 10
438.538293
 20
244.538561
 42
-0.004888
  0
VERTEX
  8
0
 10
436.539160
 20
239.003125
 42
-0.004979
  0
VERTEX
  8
0
 10
434.128635
 20
232.719534
 42
-0.005014
  0
VERTEX
  8
0
 10
431.598973
 20
226.500000
 42
0.000405
  0
VERTEX
  8
0
 10
429.100558
 20
220.515945
 42
0.000502
  0
VERTEX
  8
0
 10
426.785196
 20
214.941914
 42
0.000409
  0
VERTEX
  8
0
 10
424.849027
 20
210.256669
 42
0.003769
  0
VERTEX
  8
0
 10
424.026087
 20
208.217155
 42
0.099262
  0
VERTEX
  8
0
 10
423.595159
 20
205.823283
 42
0.105028
  0
VERTEX
  8
0
 10
424.136786
 20
203.500202
 42
0.034896
  0
VERTEX
  8
0
 10
426.095153
 20
199.983538
 42
0.002459
  0
VERTEX
  8
0
 10
432.293833
 20
190.579766
 42
-0.004275
  0
VERTEX
  8
0
 10
436.183165
 20
184.632530
 42
-0.004305
  0
VERTEX
  8
0
 10
439.961135
 20
178.633327
 42
-0.004203
  0
VERTEX
  8
0
 10
443.164208
 20
173.349744
 42
-0.017278
  0
VERTEX
  8
0
 10
444.965430
 20
170.068482
 42
0.000000
  0
VERTEX
  8
0
 10
448.073343
 20
163.911742
 42
0.000000
  0
VERTEX
  8
0
 10
446.131620
 20
161.184844
 42
-0.042425
  0
VERTEX
  8
0
 10
442.294122
 20
156.661732
 42
-0.009731
  0
VERTEX
  8
0
 10
435.046094
 20
149.731902
 42
-0.006023
  0
VERTEX
  8
0
 10
427.435727
 20
142.901335
 42
-0.118931
  0
VERTEX
  8
0
 10
424.674358
 20
141.454405
 42
-0.134840
  0
VERTEX
  8
0
 10
421.833485
 20
141.517366
 42
-0.048062
  0
VERTEX
  8
0
 10
418.041242
 20
143.059688
 42
-0.030628
  0
VERTEX
  8
0
 10
412.897332
 20
146.168041
 42
-0.009150
  0
VERTEX
  8
0
 10
405.449924
 20
151.519684
 42
0.017243
  0
VERTEX
  8
0
 10
394.890693
 20
158.851306
 42
0.060395
  0
VERTEX
  8
0
 10
387.450768
 20
162.461620
 42
0.093847
  0
VERTEX
  8
0
 10
381.265380
 20
163.358522
 42
0.091028
  0
VERTEX
  8
0
 10
375.108348
 20
161.951264
 42
-0.016404
  0
VERTEX
  8
0
 10
373.092015
 20
161.161184
 42
-0.019049
  0
VERTEX
  8
0
 10
371.125468
 20
160.547354
 42
-0.018390
  0
VERTEX
  8
0
 10
369.438488
 20
160.156480
 42
-0.098316
  0
VERTEX
  8
0
 10
368.498361
 20
160.161270
 42
-0.241981
  0
VERTEX
  8
0
 10
366.291156
 20
161.931352
 42
-0.001945
  0
VERTEX
  8
0
 10
356.936743
 20
183.097578
 42
-0.007465
  0
VERTEX
  8
0
 10
347.978560
 20
204.445004
 42
-0.011435
  0
VERTEX
  8
0
 10
340.919575
 20
223.226046
 42
0.000000
  0
VERTEX
  8
0
 10
339.615547
 20
226.952092
 42
0.000000
  0
VERTEX
  8
0
 10
346.596421
 20
234.226046
 42
0.022864
  0
VERTEX
  8
0
 10
354.962910
 20
243.782142
 42
0.035705
  0
VERTEX
  8
0
 10
361.153351
 20
252.791563
 42
0.040650
  0
VERTEX
  8
0
 10
365.405485
 20
261.607978
 42
0.047221
  0
VERTEX
  8
0
 10
367.921910
 20
270.569359
 42
0.039754
  0
VERTEX
  8
0
 10
368.763763
 20
278.966583
 42
0.021306
  0
VERTEX
  8
0
 10
368.532826
 20
289.390283
 42
0.021310
  0
VERTEX
  8
0
 10
367.423239
 20
299.684784
 42
0.042477
  0
VERTEX
  8
0
 10
365.517370
 20
307.649065
 42
0.056199
  0
VERTEX
  8
0
 10
360.314486
 20
318.932075
 42
0.048569
  0
VERTEX
  8
0
 10
352.506079
 20
329.388808
 42
0.047780
  0
VERTEX
  8
0
 10
342.680344
 20
338.303820
 42
0.050278
  0
VERTEX
  8
0
 10
331.500000
 20
345.019054
 42
0.021792
  0
VERTEX
  8
0
 10
324.416152
 20
347.987636
 42
0.036330
  0
VERTEX
  8
0
 10
318.204877
 20
349.777921
 42
0.034502
  0
VERTEX
  8
0
 10
311.578656
 20
350.705077
 42
0.017512
  0
VERTEX
  8
0
 10
303.160878
 20
351.000000
 42
0.044950
  0
VERTEX
  8
0
 10
289.846139
 20
349.800580
 42
0.053749
  0
VERTEX
  8
0
 10
277.773028
 20
346.236246
 42
0.053580
  0
VERTEX
  8
0
 10
266.706725
 20
340.168741
 42
0.044232
  0
VERTEX
  8
0
 10
256.384791
 20
331.527649
 42
0.045748
  0
VERTEX
  8
0
 10
247.853842
 20
321.274435
 42
0.053073
  0
VERTEX
  8
0
 10
241.809947
 20
310.118227
 42
0.052867
  0
VERTEX
  8
0
 10
238.233400
 20
297.901822
 42
0.044823
  0
VERTEX
  8
0
 10
237.029562
 20
284.500000
 42
0.046668
  0
VERTEX
  8
0
 10
238.301876
 20
270.898010
 42
0.059351
  0
VERTEX
  8
0
 10
242.086036
 20
258.882154
 42
0.052610
  0
VERTEX
  8
0
 10
249.008125
 20
247.035034
 42
0.027596
  0
VERTEX
  8
0
 10
259.872694
 20
233.846682
 42
-0.007162
  0
VERTEX
  8
0
 10
262.220492
 20
231.222894
 42
-0.010540
  0
VERTEX
  8
0
 10
264.200104
 20
228.846395
 42
-0.006154
  0
VERTEX
  8
0
 10
265.783560
 20
226.810972
 42
-0.163648
  0
VERTEX
  8
0
 10
266.000000
 20
226.167386
 42
-0.084993
  0
VERTEX
  8
0
 10
265.868539
 20
225.399610
 42
-0.000665
  0
VERTEX
  8
0
 10
263.769043
 20
219.473583
 42
-0.002416
  0
VERTEX
  8
0
 10
261.316305
 20
212.683703
 42
-0.001547
  0
VERTEX
  8
0
 10
258.405254
 20
204.820704
 42
-0.007747
  0
VERTEX
  8
0
 10
252.555921
 20
189.880113
 42
-0.007816
  0
VERTEX
  8
0
 10
246.263019
 20
175.172114
 42
-0.003302
  0
VERTEX
  8
0
 10
240.230062
 20
161.895913
 42
-0.147070
  0
VERTEX
  8
0
 10
238.235811
 20
159.645740
 42
-0.206745
  0
VERTEX
  8
0
 10
237.542717
 20
159.543944
 42
-0.018603
  0
VERTEX
  8
0
 10
235.827511
 20
160.072861
 42
-0.021753
  0
VERTEX
  8
0
 10
233.755861
 20
160.899867
 42
-0.015235
  0
VERTEX
  8
0
 10
231.496729
 20
162.001720
 42
0.035729
  0
VERTEX
  8
0
 10
227.368067
 20
163.810059
 42
0.046008
  0
VERTEX
  8
0
 10
223.355984
 20
164.832153
 42
0.053611
  0
VERTEX
  8
0
 10
220.109200
 20
164.995858
 42
0.244844
  0
VERTEX
  8
0
 10
218.537006
 20
164.059878
 42
-0.102149
  0
VERTEX
  8
0
 10
217.215273
 20
162.661324
 42
-0.001290
  0
VERTEX
  8
0
 10
207.126655
 20
155.648287
 42
-0.004288
  0
VERTEX
  8
0
 10
197.286177
 20
148.969323
 42
-0.009621
  0
VERTEX
  8
0
 10
189.677871
 20
144.108869
 42
0.000000
  0
VERTEX
  8
0
 10
182.856623
 20
139.933805
 42
0.000000
  0
VERTEX
  8
0
 10
178.178312
 20
143.893130
 42
-0.010699
  0
VERTEX
  8
0
 10
175.850511
 20
145.950256
 42
-0.003688
  0
VERTEX
  8
0
 10
172.571946
 20
149.020033
 42
-0.003663
  0
VERTEX
  8
0
 10
169.006076
 20
152.458589
 42
-0.004240
  0
VERTEX
  8
0
 10
165.662355
 20
155.786513
 42
0.000000
  0
VERTEX
  8
0
 10
157.824711
 20
163.720571
 42
0.000000
  0
VERTEX
  8
0
 10
160.536823
 20
169.072667
 42
-0.017731
  0
VERTEX
  8
0
 10
162.126629
 20
171.952037
 42
-0.004093
  0
VERTEX
  8
0
 10
165.014649
 20
176.682385
 42
-0.004222
  0
VERTEX
  8
0
 10
168.433525
 20
182.078373
 42
-0.004116
  0
VERTEX
  8
0
 10
171.971988
 20
187.462381
 42
0.003187
  0
VERTEX
  8
0
 10
180.850435
 20
200.917015
 42
0.071471
  0
VERTEX
  8
0
 10
182.807345
 20
205.136920
 42
0.159373
  0
VERTEX
  8
0
 10
182.719610
 20
208.706823
 42
0.030725
  0
VERTEX
  8
0
 10
180.155754
 20
214.735764
 42
-0.013238
  0
VERTEX
  8
0
 10
178.220192
 20
218.878857
 42
-0.003759
  0
VERTEX
  8
0
 10
175.431262
 20
225.419524
 42
-0.003784
  0
VERTEX
  8
0
 10
172.392150
 20
232.855917
 42
-0.003998
  0
VERTEX
  8
0
 10
169.522130
 20
240.203040
 42
0.000000
  0
VERTEX
  8
0
 10
162.769389
 20
257.906079
 42
0.000000
  0
VERTEX
  8
0
 10
157.634694
 20
258.949513
 42
0.004685
  0
VERTEX
  8
0
 10
154.885285
 20
259.481454
 42
0.001240
  0
VERTEX
  8
0
 10
150.483316
 20
260.279136
 42
0.001258
  0
VERTEX
  8
0
 10
145.470828
 20
261.161616
 42
0.001293
  0
VERTEX
  8
0
 10
140.500000
 20
262.010640
 42
-0.011021
  0
VERTEX
  8
0
 10
129.684179
 20
264.075318
 42
-0.028949
  0
VERTEX
  8
0
 10
122.071572
 20
266.170279
 42
-0.038920
  0
VERTEX
  8
0
 10
117.002244
 20
268.338882
 42
-0.183376
  0
VERTEX
  8
0
 10
114.937409
 20
270.664626
 42
-0.060553
  0
VERTEX
  8
0
 10
113.926041
 20
274.755559
 42
-0.018780
  0
VERTEX
  8
0
 10
113.394341
 20
281.081930
 42
-0.018773
  0
VERTEX
  8
0
 10
113.332618
 20
288.135189
 42
-0.021944
  0
VERTEX
  8
0
 10
113.818741
 20
294.812677
 42
-0.003638
  0
VERTEX
  8
0
 10
114.218640
 20
298.025612
 42
-0.005635
  0
VERTEX
  8
0
 10
114.615281
 20
300.792666
 42
-0.002020
  0
VERTEX
  8
0
 10
114.992035
 20
303.162111
 42
-0.157194
  0
VERTEX
  8
0
 10
115.163633
 20
303.496966
 42
-0.146633
  0
VERTEX
  8
0
 10
115.515177
 20
303.686379
 42
-0.000382
  0
VERTEX
  8
0
 10
121.002157
 20
304.811509
 42
-0.002314
  0
VERTEX
  8
0
 10
127.213577
 20
306.050316
 42
-0.001435
  0
VERTEX
  8
0
 10
134.517622
 20
307.450167
 42
0.002331
  0
VERTEX
  8
0
 10
142.157270
 20
308.928524
 42
0.002702
  0
VERTEX
  8
0
 10
149.414379
 20
310.408791
 42
0.002409
  0
VERTEX
  8
0
 10
155.544490
 20
311.724585
 42
0.016022
  0
VERTEX
  8
0
 10
158.573881
 20
312.492614
 42
0.000000
  0
VERTEX
  8
0
 10
163.647762
 20
313.953472
 42
0.000000
  0
VERTEX
  8
0
 10
172.256802
 20
333.726736
 42
0.001251
  0
VERTEX
  8
0
 10
175.701565
 20
341.693059
 42
0.001459
  0
VERTEX
  8
0
 10
178.932558
 20
349.277584
 42
0.001290
  0
VERTEX
  8
0
 10
181.630084
 20
355.707663
 42
0.008845
  0
VERTEX
  8
0
 10
182.893494
 20
358.899083
 42
0.000000
  0
VERTEX
  8
0
 10
184.921147
 20
364.298166
 42
0.000000
  0
VERTEX
  8
0
 10
174.595153
 20
379.399083
 42
-0.004917
  0
VERTEX
  8
0
 10
165.958185
 20
392.300405
 42
-0.021460
  0
VERTEX
  8
0
 10
161.257528
 20
400.192497
 42
-0.032152
  0
VERTEX
  8
0
 10
158.870089
 20
405.398253
 42
-0.261951
  0
VERTEX
  8
0
 10
159.238931
 20
407.894888
 42
-0.021831
  0
VERTEX
  8
0
 10
166.070727
 20
415.961283
 42
-0.023545
  0
VERTEX
  8
0
 10
173.417469
 20
423.190580
 42
-0.020705
  0
VERTEX
  8
0
 10
180.147005
 20
428.731767
 42
-0.163291
  0
VERTEX
  8
0
 10
183.926802
 20
430.000000
 42
-0.121911
  0
VERTEX
  8
0
 10
184.964899
 20
429.743071
 42
-0.009693
  0
VERTEX
  8
0
 10
187.462598
 20
428.363507
 42
-0.012680
  0
VERTEX
  8
0
 10
190.403740
 20
426.562795
 42
-0.009373
  0
VERTEX
  8
0
 10
193.566793
 20
424.428959
 42
0.003780
  0
VERTEX
  8
0
 10
203.999258
 20
417.219989
 42
0.006028
  0
VERTEX
  8
0
 10
213.037143
 20
411.233177
 42
0.005775
  0
VERTEX
  8
0
 10
220.348493
 20
406.634587
 42
0.039309
  0
VERTEX
  8
0
 10
224.145067
 20
404.699756
 42
0.098520
  0
VERTEX
  8
0
 10
227.355881
 20
404.061134
 42
0.079026
  0
VERTEX
  8
0
 10
230.842764
 20
404.615964
 42
0.021097
  0
VERTEX
  8
0
 10
236.839026
 20
406.857299
 42
0.000961
  0
VERTEX
  8
0
 10
257.000000
 20
415.424469
 42
0.012198
  0
VERTEX
  8
0
 10
267.491944
 20
420.212653
 42
0.072015
  0
VERTEX
  8
0
 10
272.477915
 20
423.596832
 42
0.113647
  0
VERTEX
  8
0
 10
275.202426
 20
427.542086
 42
0.051756
  0
VERTEX
  8
0
 10
276.911881
 20
433.609346
 42
-0.004888
  0
VERTEX
  8
0
 10
277.468053
 20
436.648698
 42
-0.003339
  0
VERTEX
  8
0
 10
278.156779
 20
440.091495
 42
-0.003365
  0
VERTEX
  8
0
 10
278.865354
 20
443.402137
 42
-0.006785
  0
VERTEX
  8
0
 10
279.476771
 20
446.000000
 42
0.009931
  0
VERTEX
  8
0
 10
280.049550
 20
448.504246
 42
0.005949
  0
VERTEX
  8
0
 10
280.635319
 20
451.500000
 42
0.005955
  0
VERTEX
  8
0
 10
281.147494
 20
454.496489
 42
0.010303
  0
VERTEX
  8
0
 10
281.492062
 20
457.000000
 42
-0.012013
  0
VERTEX
  8
0
 10
281.842692
 20
459.484626
 42
-0.007189
  0
VERTEX
  8
0
 10
282.372544
 20
462.419779
 42
-0.007196
  0
VERTEX
  8
0
 10
282.984409
 20
465.328026
 42
-0.012403
  0
VERTEX
  8
0
 10
283.588164
 20
467.726907
 42
-0.017206
  0
VERTEX
  8
0
 10
284.507450
 20
470.639039
 42
-0.077618
  0
VERTEX
  8
0
 10
285.352380
 20
472.203817
 42
-0.108931
  0
VERTEX
  8
0
 10
286.484668
 20
473.164822
 42
-0.051414
  0
VERTEX
  8
0
 10
288.271222
 20
473.886719
 42
-0.060259
  0
VERTEX
  8
0
 10
293.743065
 20
474.774821
 42
-0.012831
  0
VERTEX
  8
0
 10
303.402880
 20
474.918441
 42
-0.011414
  0
VERTEX
  8
0
 10
313.036218
 20
474.594437
 42
-0.085037
  0
SEQEND
  0
POLYLINE
  8
0
 66
1
 70
1
  0
VERTEX
  8
0
 10
234.750000
 20
91.931914
 42
0.000000
  0
VERTEX
  8
0
 10
231.000000
 20
89.952221
 42
0.000000
  0
VERTEX
  8
0
 10
231.000000
 20
55.444726
 42
0.001611
  0
VERTEX
  8
0
 10
231.084283
 20
29.280678
 42
0.048963
  0
VERTEX
  8
0
 10
231.765722
 20
22.770377
 42
0.325834
  0
VERTEX
  8
0
 10
233.890016
 20
20.835826
 42
0.133878
  0
VERTEX
  8
0
 10
237.960256
 20
21.482078
 42
0.000000
  0
VERTEX
  8
0
 10
241.812960
 20
23.219405
 42
0.000000
  0
VERTEX
  8
0
 10
242.156480
 20
41.698929
 42
-0.001982
  0
VERTEX
  8
0
 10
242.424613
 20
53.586421
 42
-0.026341
  0
VERTEX
  8
0
 10
242.771050
 20
57.952185
 42
-0.078964
  0
VERTEX
  8
0
 10
243.484361
 20
60.347265
 42
-0.111281
  0
VERTEX
  8
0
 10
244.860784
 20
62.089226
 42
-0.095394
  0
VERTEX
  8
0
 10
247.623858
 20
63.563808
 42
-0.086846
  0
VERTEX
  8
0
 10
250.832289
 20
63.972680
 42
-0.087318
  0
VERTEX
  8
0
 10
253.973773
 20
63.267880
 42
-0.097938
  0
VERTEX
  8
0
 10
256.545455
 20
61.545455
 42
-0.088890
  0
VERTEX
  8
0
 10
257.982979
 20
59.480258
 42
-0.079482
  0
VERTEX
  8
0
 10
258.685667
 20
56.962231
 42
-0.026543
  0
VERTEX
  8
0
 10
258.953924
 20
52.528932
 42
-0.001841
  0
VERTEX
  8
0
 10
259.000000
 20
40.014070
 42
0.003939
  0
VERTEX
  8
0
 10
259.113441
 20
25.615332
 42
0.087396
  0
VERTEX
  8
0
 10
259.901551
 20
21.519730
 42
0.347614
  0
VERTEX
  8
0
 10
261.887851
 20
20.336503
 42
0.073076
  0
VERTEX
  8
0
 10
266.053776
 20
21.524250
 42
0.000000
  0
VERTEX
  8
0
 10
270.000000
 20
23.303749
 42
0.000000
  0
VERTEX
  8
0
 10
270.000000
 20
42.191712
 42
0.002820
  0
VERTEX
  8
0
 10
269.938390
 20
53.114602
 42
0.018651
  0
VERTEX
  8
0
 10
269.673357
 20
58.565988
 42
0.038008
  0
VERTEX
  8
0
 10
269.104141
 20
62.052004
 42
0.058544
  0
VERTEX
  8
0
 10
268.043850
 20
64.914047
 42
0.077741
  0
VERTEX
  8
0
 10
264.261349
 20
70.135618
 42
0.083929
  0
VERTEX
  8
0
 10
259.153502
 20
73.791772
 42
0.084240
  0
VERTEX
  8
0
 10
253.144401
 20
75.556836
 42
0.079074
  0
VERTEX
  8
0
 10
246.750000
 20
75.299599
 42
0.000000
  0
VERTEX
  8
0
 10
242.000000
 20
74.346484
 42
0.000000
  0
VERTEX
  8
0
 10
242.000000
 20
84.173242
 42
0.009730
  0
VERTEX
  8
0
 10
241.857596
 20
91.490397
 42
0.180059
  0
VERTEX
  8
0
 10
240.980727
 20
93.592349
 42
0.309039
  0
VERTEX
  8
0
 10
239.204327
 20
93.989252
 42
0.026530
  0
SEQEND
  0
POLYLINE
  8
0
 66
1
 70
1
  0
VERTEX
  8
0
 10
405.032272
 20
92.417585
 42
0.044038
  0
VERTEX
  8
0
 10
402.175082
 20
90.866771
 42
0.141064
  0
VERTEX
  8
0
 10
400.784250
 20
89.232895
 42
0.092889
  0
VERTEX
  8
0
 10
400.167518
 20
86.709337
 42
0.013078
  0
VERTEX
  8
0
 10
400.015313
 20
81.330607
 42
0.000000
  0
VERTEX
  8
0
 10
400.000000
 20
74.161215
 42
0.000000
  0
VERTEX
  8
0
 10
396.361365
 20
75.165890
 42
0.094764
  0
VERTEX
  8
0
 10
390.498760
 20
75.638478
 42
0.075861
  0
VERTEX
  8
0
 10
384.365156
 20
74.007079
 42
0.074631
  0
VERTEX
  8
0
 10
378.906333
 20
70.581822
 42
0.086229
  0
VERTEX
  8
0
 10
375.004126
 20
65.848057
 42
0.037654
  0
VERTEX
  8
0
 10
373.670431
 20
63.030478
 42
0.047516
  0
VERTEX
  8
0
 10
372.896284
 20
60.253462
 42
0.029943
  0
VERTEX
  8
0
 10
372.456295
 20
56.511257
 42
0.006409
  0
VERTEX
  8
0
 10
372.166145
 20
49.973509
 42
0.015259
  0
VERTEX
  8
0
 10
372.157084
 20
41.076006
 42
0.045232
  0
VERTEX
  8
0
 10
372.886636
 20
35.020578
 42
0.063603
  0
VERTEX
  8
0
 10
374.491103
 20
30.446130
 42
0.064128
  0
VERTEX
  8
0
 10
377.190523
 20
26.435787
 42
0.059962
  0
VERTEX
  8
0
 10
381.524927
 20
22.553087
 42
0.074780
  0
VERTEX
  8
0
 10
386.359659
 20
20.149174
 42
0.076691
  0
VERTEX
  8
0
 10
391.586791
 20
19.310688
 42
0.067353
  0
VERTEX
  8
0
 10
397.073585
 20
20.019815
 42
0.078518
  0
VERTEX
  8
0
 10
401.291590
 20
21.902185
 42
0.049322
  0
VERTEX
  8
0
 10
405.516035
 20
25.283721
 42
0.049505
  0
VERTEX
  8
0
 10
408.973657
 20
29.403143
 42
0.082323
  0
VERTEX
  8
0
 10
410.879302
 20
33.503300
 42
0.063794
  0
VERTEX
  8
0
 10
411.689649
 20
39.116261
 42
0.001811
  0
VERTEX
  8
0
 10
411.990086
 20
63.458132
 42
0.001325
  0
VERTEX
  8
0
 10
412.141115
 20
88.341650
 42
0.092721
  0
VERTEX
  8
0
 10
411.393011
 20
92.418213
 42
0.121806
  0
VERTEX
  8
0
 10
410.654409
 20
93.477640
 42
0.181880
  0
VERTEX
  8
0
 10
409.608967
 20
93.870823
 42
0.087071
  0
VERTEX
  8
0
 10
407.959246
 20
93.581174
 42
0.015439
  0
SEQEND
  0
POLYLINE
  8
0
 66
1
 70
1
  0
VERTEX
  8
0
 10
397.685549
 20
61.825686
 42
-0.078607
  0
VERTEX
  8
0
 10
398.982196
 20
60.153998
 42
-0.085082
  0
VERTEX
  8
0
 10
399.655469
 20
58.207895
 42
-0.036760
  0
VERTEX
  8
0
 10
399.940670
 20
55.041479
 42
-0.004085
  0
VERTEX
  8
0
 10
400.000000
 20
47.780231
 42
-0.004068
  0
VERTEX
  8
0
 10
399.940046
 20
40.411478
 42
-0.038374
  0
VERTEX
  8
0
 10
399.646617
 20
37.264806
 42
-0.086988
  0
VERTEX
  8
0
 10
398.938173
 20
35.282459
 42
-0.067258
  0
VERTEX
  8
0
 10
397.545455
 20
33.454545
 42
-0.088396
  0
VERTEX
  8
0
 10
395.086540
 20
31.739388
 42
-0.099763
  0
VERTEX
  8
0
 10
392.288869
 20
31.072925
 42
-0.096953
  0
VERTEX
  8
0
 10
389.387853
 20
31.536053
 42
-0.078890
  0
VERTEX
  8
0
 10
386.634859
 20
33.072580
 42
-0.072140
  0
VERTEX
  8
0
 10
385.100322
 20
34.686308
 42
-0.108566
  0
VERTEX
  8
0
 10
384.347157
 20
36.468036
 42
-0.042500
  0
VERTEX
  8
0
 10
384.053821
 20
39.430365
 42
-0.003438
  0
VERTEX
  8
0
 10
384.000000
 20
47.258129
 42
-0.004289
  0
VERTEX
  8
0
 10
384.061841
 20
54.466602
 42
-0.033118
  0
VERTEX
  8
0
 10
384.342644
 20
57.826978
 42
-0.072473
  0
VERTEX
  8
0
 10
384.978355
 20
59.924521
 42
-0.078969
  0
VERTEX
  8
0
 10
386.174314
 20
61.685549
 42
-0.109259
  0
VERTEX
  8
0
 10
388.673508
 20
63.391498
 42
-0.092544
  0
VERTEX
  8
0
 10
391.816168
 20
64.017872
 42
-0.091027
  0
VERTEX
  8
0
 10
395.018650
 20
63.470188
 42
-0.101157
  0
SEQEND
  0
POLYLINE
  8
0
 66
1
 70
1
  0
VERTEX
  8
0
 10
12.382970
 20
76.597842
 42
0.048798
  0
VERTEX
  8
0
 10
8.610868
 20
74.370996
 42
0.051867
  0
VERTEX
  8
0
 10
5.425751
 20
71.494949
 42
0.052150
  0
VERTEX
  8
0
 10
2.914833
 20
68.040283
 42
0.050346
  0
VERTEX
  8
0
 10
1.138103
 20
64.100777
 42
0.053728
  0
VERTEX
  8
0
 10
0.694907
 20
62.078330
 42
0.008929
  0
VERTEX
  8
0
 10
0.334318
 20
58.105578
 42
0.009707
  0
VERTEX
  8
0
 10
0.083475
 20
53.399058
 42
0.008458
  0
VERTEX
  8
0
 10
-0.000000
 20
48.464968
 42
0.005323
  0
VERTEX
  8
0
 10
0.079372
 20
41.009844
 42
0.034127
  0
VERTEX
  8
0
 10
0.416625
 20
37.252533
 42
0.054415
  0
VERTEX
  8
0
 10
1.206803
 20
34.357689
 42
0.026561
  0
VERTEX
  8
0
 10
2.798581
 20
30.871286
 42
0.106074
  0
VERTEX
  8
0
 10
8.788880
 20
23.654079
 42
0.114480
  0
VERTEX
  8
0
 10
17.058030
 20
19.774231
 42
0.115744
  0
VERTEX
  8
0
 10
26.117714
 20
19.952980
 42
0.110240
  0
VERTEX
  8
0
 10
34.335695
 20
24.125178
 42
0.054254
  0
VERTEX
  8
0
 10
38.402160
 20
28.293578
 42
0.091857
  0
VERTEX
  8
0
 10
40.653607
 20
32.603269
 42
0.061191
  0
VERTEX
  8
0
 10
41.718572
 20
38.591951
 42
0.013441
  0
VERTEX
  8
0
 10
42.000000
 20
49.059033
 42
0.011253
  0
VERTEX
  8
0
 10
41.765332
 20
59.485048
 42
0.059099
  0
VERTEX
  8
0
 10
40.836525
 20
65.130257
 42
0.090988
  0
VERTEX
  8
0
 10
38.800021
 20
69.213886
 42
0.048037
  0
VERTEX
  8
0
 10
34.967987
 20
73.409957
 42
0.066449
  0
VERTEX
  8
0
 10
29.831744
 20
76.939021
 42
0.082457
  0
VERTEX
  8
0
 10
24.307902
 20
78.676630
 42
0.081402
  0
VERTEX
  8
0
 10
18.462357
 20
78.546710
 42
0.062859
  0
SEQEND
  0
POLYLINE
  8
0
 66
1
 70
1
  0
VERTEX
  8
0
 10
26.000000
 20
62.000000
 42
-0.090510
  0
VERTEX
  8
0
 10
27.069313
 20
60.453206
 42
-0.068027
  0
VERTEX
  8
0
 10
27.659091
 20
58.465909
 42
-0.033007
  0
VERTEX
  8
0
 10
27.934995
 20
55.290089
 42
-0.005167
  0
VERTEX
  8
0
 10
28.000000
 20
49.000000
 42
-0.005167
  0
VERTEX
  8
0
 10
27.934995
 20
42.709911
 42
-0.033007
  0
VERTEX
  8
0
 10
27.659091
 20
39.534091
 42
-0.068027
  0
VERTEX
  8
0
 10
27.069313
 20
37.546794
 42
-0.090510
  0
VERTEX
  8
0
 10
26.000000
 20
36.000000
 42
-0.103159
  0
VERTEX
  8
0
 10
23.874138
 20
34.607788
 42
-0.086990
  0
VERTEX
  8
0
 10
21.233576
 20
34.070667
 42
-0.091132
  0
VERTEX
  8
0
 10
18.677686
 20
34.469069
 42
-0.130354
  0
VERTEX
  8
0
 10
16.787730
 20
35.750000
 42
-0.159218
  0
VERTEX
  8
0
 10
14.910264
 20
40.189113
 42
-0.023780
  0
VERTEX
  8
0
 10
14.548957
 20
50.006877
 42
-0.021268
  0
VERTEX
  8
0
 10
15.071445
 20
59.801175
 42
-0.231685
  0
VERTEX
  8
0
 10
17.081892
 20
63.071774
 42
-0.102331
  0
VERTEX
  8
0
 10
19.147294
 20
63.850017
 42
-0.069110
  0
VERTEX
  8
0
 10
21.672520
 20
63.896472
 42
-0.068720
  0
VERTEX
  8
0
 10
24.130647
 20
63.250894
 42
-0.098149
  0
SEQEND
  0
POLYLINE
  8
0
 66
1
 70
1
  0
VERTEX
  8
0
 10
63.624765
 20
77.530892
 42
0.036579
  0
VERTEX
  8
0
 10
61.899636
 20
76.769718
 42
0.020155
  0
VERTEX
  8
0
 10
59.907886
 20
75.605484
 42
0.020000
  0
VERTEX
  8
0
 10
57.972976
 20
74.255257
 42
0.030139
  0
VERTEX
  8
0
 10
56.413379
 20
72.916044
 42
0.067217
  0
VERTEX
  8
0
 10
52.641296
 20
68.123269
 42
0.094923
  0
VERTEX
  8
0
 10
50.817141
 20
63.019659
 42
0.035840
  0
VERTEX
  8
0
 10
50.123042
 20
54.609484
 42
0.002674
  0
VERTEX
  8
0
 10
50.000000
 20
31.598871
 42
0.002389
  0
VERTEX
  8
0
 10
50.061513
 20
18.723351
 42
0.004999
  0
VERTEX
  8
0
 10
50.257390
 20
8.707161
 42
0.001152
  0
VERTEX
  8
0
 10
50.522183
 20
0.398067
 42
0.404243
  0
VERTEX
  8
0
 10
50.934086
 20
0.000000
 42
0.085327
  0
VERTEX
  8
0
 10
51.547351
 20
0.105424
 42
0.004751
  0
VERTEX
  8
0
 10
53.375647
 20
0.772772
 42
0.007217
  0
VERTEX
  8
0
 10
55.542422
 20
1.622970
 42
0.005213
  0
VERTEX
  8
0
 10
57.934086
 20
2.630713
 42
0.000000
  0
VERTEX
  8
0
 10
64.000000
 20
5.261425
 42
0.000000
  0
VERTEX
  8
0
 10
64.000000
 20
12.453480
 42
0.000000
  0
VERTEX
  8
0
 10
64.000000
 20
19.645535
 42
0.000000
  0
VERTEX
  8
0
 10
70.250000
 20
19.572767
 42
0.018608
  0
VERTEX
  8
0
 10
73.641303
 20
19.659497
 42
0.043207
  0
VERTEX
  8
0
 10
76.155016
 20
20.037197
 42
0.047400
  0
VERTEX
  8
0
 10
78.422710
 20
20.814523
 42
0.026912
  0
VERTEX
  8
0
 10
81.000000
 20
22.152268
 42
0.064685
  0
VERTEX
  8
0
 10
86.527455
 20
26.457880
 42
0.100190
  0
VERTEX
  8
0
 10
89.832410
 20
31.500988
 42
0.073378
  0
VERTEX
  8
0
 10
91.514528
 20
38.560532
 42
0.021858
  0
VERTEX
  8
0
 10
92.000000
 20
49.660122
 42
0.005890
  0
VERTEX
  8
0
 10
91.919063
 20
56.530134
 42
0.025407
  0
VERTEX
  8
0
 10
91.615666
 20
60.602524
 42
0.040316
  0
VERTEX
  8
0
 10
90.987153
 20
63.613968
 42
0.038284
  0
VERTEX
  8
0
 10
89.876082
 20
66.540238
 42
0.089623
  0
VERTEX
  8
0
 10
85.320589
 20
72.945984
 42
0.094620
  0
VERTEX
  8
0
 10
78.888841
 20
77.207596
 42
0.094820
  0
VERTEX
  8
0
 10
71.351188
 20
78.793884
 42
0.090434
  0
SEQEND
  0
POLYLINE
  8
0
 66
1
 70
1
  0
VERTEX
  8
0
 10
75.421445
 20
62.086803
 42
-0.101344
  0
VERTEX
  8
0
 10
76.304607
 20
60.591731
 42
-0.046248
  0
VERTEX
  8
0
 10
76.844306
 20
58.378037
 42
-0.026592
  0
VERTEX
  8
0
 10
77.164286
 20
54.966960
 42
-0.006138
  0
VERTEX
  8
0
 10
77.326432
 20
49.194925
 42
-0.005272
  0
VERTEX
  8
0
 10
77.359116
 20
42.985383
 42
-0.031575
  0
VERTEX
  8
0
 10
77.138155
 20
39.760476
 42
-0.063094
  0
VERTEX
  8
0
 10
76.598409
 20
37.711407
 42
-0.088037
  0
VERTEX
  8
0
 10
75.595012
 20
36.108122
 42
-0.109496
  0
VERTEX
  8
0
 10
73.496741
 20
34.616946
 42
-0.097421
  0
VERTEX
  8
0
 10
70.872851
 20
34.070022
 42
-0.096197
  0
VERTEX
  8
0
 10
68.209136
 20
34.556212
 42
-0.103633
  0
VERTEX
  8
0
 10
66.000000
 20
36.000000
 42
-0.089620
  0
VERTEX
  8
0
 10
64.933105
 20
37.537480
 42
-0.068258
  0
VERTEX
  8
0
 10
64.342786
 20
39.504401
 42
-0.033480
  0
VERTEX
  8
0
 10
64.065737
 20
42.632747
 42
-0.005349
  0
VERTEX
  8
0
 10
64.000000
 20
48.777494
 42
-0.014647
  0
VERTEX
  8
0
 10
64.239204
 20
56.941205
 42
-0.085081
  0
VERTEX
  8
0
 10
65.210616
 20
61.121301
 42
-0.177389
  0
VERTEX
  8
0
 10
67.167137
 20
63.224788
 42
-0.118159
  0
VERTEX
  8
0
 10
70.401716
 20
64.000000
 42
-0.045632
  0
VERTEX
  8
0
 10
71.854587
 20
63.867130
 42
-0.045466
  0
VERTEX
  8
0
 10
73.261099
 20
63.472911
 42
-0.048056
  0
VERTEX
  8
0
 10
74.492299
 20
62.862643
 42
-0.069868
  0
SEQEND
  0
POLYLINE
  8
0
 66
1
 70
1
  0
VERTEX
  8
0
 10
111.168383
 20
76.396619
 42
0.067906
  0
VERTEX
  8
0
 10
105.109002
 20
72.269765
 42
0.106740
  0
VERTEX
  8
0
 10
101.440021
 20
67.180265
 42
0.078952
  0
VERTEX
  8
0
 10
99.550388
 20
59.912145
 42
0.024200
  0
VERTEX
  8
0
 10
99.000000
 20
48.547121
 42
0.005611
  0
VERTEX
  8
0
 10
99.081350
 20
41.298255
 42
0.031999
  0
VERTEX
  8
0
 10
99.413691
 20
37.462224
 42
0.050259
  0
VERTEX
  8
0
 10
100.170832
 20
34.507267
 42
0.027767
  0
VERTEX
  8
0
 10
101.646822
 20
31.081208
 42
0.081863
  0
VERTEX
  8
0
 10
105.824755
 20
25.298582
 42
0.085659
  0
VERTEX
  8
0
 10
111.578867
 20
21.269497
 42
0.087088
  0
VERTEX
  8
0
 10
118.265526
 20
19.446038
 42
0.088378
  0
VERTEX
  8
0
 10
125.137377
 20
20.023307
 42
0.078114
  0
VERTEX
  8
0
 10
131.351123
 20
22.768563
 42
0.081868
  0
VERTEX
  8
0
 10
136.309217
 20
27.253196
 42
0.078031
  0
VERTEX
  8
0
 10
139.737280
 20
33.291059
 42
0.062678
  0
VERTEX
  8
0
 10
141.481952
 20
40.563985
 42
0.027546
  0
VERTEX
  8
0
 10
141.777611
 20
45.917992
 42
0.252662
  0
VERTEX
  8
0
 10
140.708591
 20
47.898865
 42
0.235586
  0
VERTEX
  8
0
 10
138.400437
 20
48.173006
 42
0.024314
  0
VERTEX
  8
0
 10
133.186077
 20
46.010478
 42
0.011604
  0
VERTEX
  8
0
 10
129.850790
 20
44.337355
 42
0.058992
  0
VERTEX
  8
0
 10
128.145945
 20
43.155892
 42
0.110086
  0
VERTEX
  8
0
 10
127.299598
 20
41.989348
 42
0.102446
  0
VERTEX
  8
0
 10
127.000000
 20
40.542463
 42
-0.163273
  0
VERTEX
  8
0
 10
125.826609
 20
37.044909
 42
-0.133187
  0
VERTEX
  8
0
 10
122.687294
 20
34.615495
 42
-0.136414
  0
VERTEX
  8
0
 10
118.811014
 20
34.137738
 42
-0.173385
  0
VERTEX
  8
0
 10
115.654988
 20
35.828741
 42
-0.014002
  0
VERTEX
  8
0
 10
115.021202
 20
36.569751
 42
-0.018256
  0
VERTEX
  8
0
 10
114.486153
 20
37.283814
 42
-0.016038
  0
VERTEX
  8
0
 10
114.087397
 20
37.899844
 42
-0.136438
  0
VERTEX
  8
0
 10
114.000000
 20
38.214164
 42
-0.284207
  0
VERTEX
  8
0
 10
114.193655
 20
38.527339
 42
-0.001343
  0
VERTEX
  8
0
 10
117.745312
 20
40.289158
 42
-0.005532
  0
VERTEX
  8
0
 10
121.861813
 20
42.261112
 42
-0.003402
  0
VERTEX
  8
0
 10
126.750000
 20
44.496248
 42
0.002937
  0
VERTEX
  8
0
 10
131.731976
 20
46.768672
 42
0.004128
  0
VERTEX
  8
0
 10
136.148470
 20
48.859048
 42
0.002467
  0
VERTEX
  8
0
 10
139.841101
 20
50.666802
 42
0.055315
  0
VERTEX
  8
0
 10
140.840537
 20
51.308408
 42
0.132571
  0
VERTEX
  8
0
 10
141.434653
 20
52.130198
 42
0.066197
  0
VERTEX
  8
0
 10
141.729603
 20
53.388997
 42
0.041874
  0
VERTEX
  8
0
 10
141.755832
 20
55.228521
 42
0.013465
  0
VERTEX
  8
0
 10
141.492982
 20
57.947584
 42
0.025321
  0
VERTEX
  8
0
 10
140.593080
 20
63.069249
 42
0.055210
  0
VERTEX
  8
0
 10
139.284190
 20
66.830713
 42
0.060795
  0
VERTEX
  8
0
 10
137.276046
 20
69.987151
 42
0.037175
  0
VERTEX
  8
0
 10
134.223649
 20
73.183453
 42
0.064061
  0
VERTEX
  8
0
 10
128.856792
 20
76.903875
 42
0.085140
  0
VERTEX
  8
0
 10
123.208992
 20
78.702725
 42
0.085451
  0
VERTEX
  8
0
 10
117.300560
 20
78.513516
 42
0.065042
  0
SEQEND
  0
POLYLINE
  8
0
 66
1
 70
1
  0
VERTEX
  8
0
 10
124.065741
 20
62.964816
 42
-0.037872
  0
VERTEX
  8
0
 10
124.805905
 20
62.493413
 42
-0.043240
  0
VERTEX
  8
0
 10
125.431812
 20
61.934138
 42
-0.048108
  0
VERTEX
  8
0
 10
125.865896
 20
61.373660
 42
-0.141648
  0
VERTEX
  8
0
 10
126.000000
 20
60.909787
 42
-0.275974
  0
VERTEX
  8
0
 10
125.512003
 20
60.092989
 42
-0.005004
  0
VERTEX
  8
0
 10
120.846235
 20
57.641941
 42
-0.008509
  0
VERTEX
  8
0
 10
116.300982
 20
55.408782
 42
-0.110359
  0
VERTEX
  8
0
 10
114.471487
 20
55.000000
 42
-0.335094
  0
VERTEX
  8
0
 10
114.286940
 20
55.139326
 42
-0.025694
  0
VERTEX
  8
0
 10
114.138499
 20
55.784682
 42
-0.027083
  0
VERTEX
  8
0
 10
114.034008
 20
56.647256
 42
-0.016601
  0
VERTEX
  8
0
 10
114.000000
 20
57.671259
 42
-0.128115
  0
VERTEX
  8
0
 10
114.859986
 20
60.972464
 42
-0.145249
  0
VERTEX
  8
0
 10
117.196231
 20
63.249803
 42
-0.136662
  0
VERTEX
  8
0
 10
120.518572
 20
63.966657
 42
-0.108489
  0
SEQEND
  0
POLYLINE
  8
0
 66
1
 70
1
  0
VERTEX
  8
0
 10
162.624765
 20
77.588089
 42
0.035357
  0
VERTEX
  8
0
 10
160.899639
 20
76.804980
 42
0.019518
  0
VERTEX
  8
0
 10
158.907886
 20
75.622286
 42
0.019377
  0
VERTEX
  8
0
 10
156.972882
 20
74.259404
 42
0.029359
  0
VERTEX
  8
0
 10
155.413379
 20
72.916044
 42
0.056800
  0
VERTEX
  8
0
 10
151.744723
 20
68.448666
 42
0.094066
  0
VERTEX
  8
0
 10
149.911678
 20
63.944327
 42
0.044861
  0
VERTEX
  8
0
 10
149.156235
 20
57.056573
 42
0.004895
  0
VERTEX
  8
0
 10
149.000000
 20
41.098871
 42
0.002557
  0
VERTEX
  8
0
 10
149.088070
 20
23.879427
 42
0.102604
  0
VERTEX
  8
0
 10
149.888238
 20
20.210339
 42
0.378465
  0
VERTEX
  8
0
 10
151.982050
 20
19.255206
 42
0.035036
  0
VERTEX
  8
0
 10
157.750000
 20
21.463764
 42
0.000000
  0
VERTEX
  8
0
 10
163.000000
 20
23.907990
 42
0.000000
  0
VERTEX
  8
0
 10
163.000000
 20
41.953995
 42
-0.002356
  0
VERTEX
  8
0
 10
163.051531
 20
52.890108
 42
-0.022508
  0
VERTEX
  8
0
 10
163.305414
 20
57.549663
 42
-0.057009
  0
VERTEX
  8
0
 10
163.878952
 20
60.197173
 42
-0.115045
  0
VERTEX
  8
0
 10
165.000000
 20
62.000000
 42
-0.097710
  0
VERTEX
  8
0
 10
166.821152
 20
63.220936
 42
-0.064317
  0
VERTEX
  8
0
 10
169.261719
 20
63.889392
 42
-0.065282
  0
VERTEX
  8
0
 10
171.744896
 20
63.910506
 42
-0.111583
  0
VERTEX
  8
0
 10
173.687439
 20
63.214335
 42
-0.172972
  0
VERTEX
  8
0
 10
175.357037
 20
61.071389
 42
-0.047291
  0
VERTEX
  8
0
 10
176.327161
 20
56.828987
 42
-0.026743
  0
VERTEX
  8
0
 10
176.860268
 20
49.903160
 42
-0.005837
  0
VERTEX
  8
0
 10
177.000000
 20
37.934900
 42
0.003232
  0
VERTEX
  8
0
 10
177.095152
 20
23.214104
 42
0.119411
  0
VERTEX
  8
0
 10
177.922024
 20
19.984214
 42
0.365372
  0
VERTEX
  8
0
 10
179.955063
 20
19.167782
 42
0.029255
  0
VERTEX
  8
0
 10
185.750000
 20
21.463764
 42
0.000000
  0
VERTEX
  8
0
 10
191.000000
 20
23.907990
 42
0.000000
  0
VERTEX
  8
0
 10
191.000000
 20
42.304772
 42
0.006320
  0
VERTEX
  8
0
 10
190.840319
 20
54.937868
 42
0.034585
  0
VERTEX
  8
0
 10
190.196944
 20
61.731542
 42
0.061713
  0
VERTEX
  8
0
 10
188.814306
 20
66.419001
 42
0.057201
  0
VERTEX
  8
0
 10
186.303965
 20
70.759231
 42
0.094255
  0
VERTEX
  8
0
 10
181.792672
 20
74.913211
 42
0.068974
  0
VERTEX
  8
0
 10
175.557898
 20
77.686292
 42
0.068600
  0
VERTEX
  8
0
 10
168.766158
 20
78.669639
 42
0.090809
  0
SEQEND
  0
POLYLINE
  8
0
 66
1
 70
1
  0
VERTEX
  8
0
 10
290.500000
 20
74.104137
 42
0.070158
  0
VERTEX
  8
0
 10
285.510501
 20
70.880017
 42
0.066446
  0
VERTEX
  8
0
 10
281.500977
 20
66.348218
 42
0.067967
  0
VERTEX
  8
0
 10
278.892661
 20
61.029021
 42
0.080216
  0
VERTEX
  8
0
 10
278.000000
 20
55.500734
 42
0.067473
  0
VERTEX
  8
0
 10
278.361228
 20
52.836092
 42
0.215715
  0
VERTEX
  8
0
 10
279.481972
 20
51.490282
 42
0.169417
  0
VERTEX
  8
0
 10
281.460855
 20
51.260043
 42
0.039945
  0
VERTEX
  8
0
 10
284.688934
 20
52.257436
 42
0.038384
  0
VERTEX
  8
0
 10
286.564170
 20
53.177772
 42
0.071354
  0
VERTEX
  8
0
 10
287.883601
 20
54.234839
 42
0.070072
  0
VERTEX
  8
0
 10
288.867640
 20
55.633911
 42
0.035804
  0
VERTEX
  8
0
 10
289.708434
 20
57.614408
 42
-0.044122
  0
VERTEX
  8
0
 10
291.064252
 20
60.666123
 42
-0.098464
  0
VERTEX
  8
0
 10
292.698463
 20
62.596234
 42
-0.108048
  0
VERTEX
  8
0
 10
294.840748
 20
63.648754
 42
-0.060425
  0
VERTEX
  8
0
 10
297.736584
 20
64.000000
 42
-0.103784
  0
VERTEX
  8
0
 10
300.426412
 20
63.435598
 42
-0.058028
  0
VERTEX
  8
0
 10
303.324395
 20
61.739251
 42
-0.061164
  0
VERTEX
  8
0
 10
305.494397
 20
59.644807
 42
-0.256058
  0
VERTEX
  8
0
 10
305.807230
 20
57.921689
 42
-0.191999
  0
VERTEX
  8
0
 10
305.345748
 20
57.375055
 42
-0.005264
  0
VERTEX
  8
0
 10
302.528015
 20
55.908989
 42
-0.010151
  0
VERTEX
  8
0
 10
299.111086
 20
54.262944
 42
-0.006703
  0
VERTEX
  8
0
 10
295.122091
 20
52.504383
 42
0.009292
  0
VERTEX
  8
0
 10
288.016698
 20
49.327907
 42
0.039675
  0
VERTEX
  8
0
 10
283.984101
 20
47.028140
 42
0.063915
  0
VERTEX
  8
0
 10
281.388580
 20
44.727445
 42
0.060231
  0
VERTEX
  8
0
 10
279.397621
 20
41.802020
 42
0.178062
  0
VERTEX
  8
0
 10
278.297874
 20
33.037136
 42
0.143948
  0
VERTEX
  8
0
 10
282.987571
 20
24.722338
 42
0.132521
  0
VERTEX
  8
0
 10
291.808084
 20
19.813767
 42
0.145029
  0
VERTEX
  8
0
 10
301.574083
 20
20.241216
 42
-0.021394
  0
VERTEX
  8
0
 10
303.472225
 20
20.805601
 42
-0.043010
  0
VERTEX
  8
0
 10
305.013712
 20
21.054780
 42
-0.056406
  0
VERTEX
  8
0
 10
306.243530
 20
21.007534
 42
-0.103279
  0
VERTEX
  8
0
 10
307.179695
 20
20.658448
 42
0.104883
  0
VERTEX
  8
0
 10
308.110306
 20
20.314794
 42
0.062456
  0
VERTEX
  8
0
 10
309.295943
 20
20.291086
 42
0.046701
  0
VERTEX
  8
0
 10
310.776340
 20
20.588237
 42
0.022119
  0
VERTEX
  8
0
 10
312.616039
 20
21.230031
 42
0.000000
  0
VERTEX
  8
0
 10
316.500000
 20
22.780833
 42
0.000000
  0
VERTEX
  8
0
 10
316.500000
 20
43.299662
 42
0.000000
  0
VERTEX
  8
0
 10
316.500000
 20
63.818491
 42
0.000000
  0
VERTEX
  8
0
 10
313.442034
 20
67.659245
 42
0.055910
  0
VERTEX
  8
0
 10
310.238588
 20
70.870911
 42
0.044982
  0
VERTEX
  8
0
 10
306.169563
 20
73.566400
 42
0.046478
  0
VERTEX
  8
0
 10
301.881420
 20
75.390923
 42
0.079063
  0
VERTEX
  8
0
 10
298.038110
 20
75.978038
 42
0.039396
  0
VERTEX
  8
0
 10
296.396328
 20
75.838219
 42
0.019988
  0
VERTEX
  8
0
 10
294.364320
 20
75.418520
 42
0.019724
  0
VERTEX
  8
0
 10
292.290030
 20
74.815092
 42
0.027772
  0
SEQEND
  0
POLYLINE
  8
0
 66
1
 70
1
  0
VERTEX
  8
0
 10
305.951968
 20
34.750000
 42
0.000000
  0
VERTEX
  8
0
 10
305.903937
 20
24.500000
 42
0.000000
  0
VERTEX
  8
0
 10
304.188558
 20
28.000000
 42
0.027416
  0
VERTEX
  8
0
 10
303.008334
 20
30.107380
 42
0.142708
  0
VERTEX
  8
0
 10
302.019007
 20
30.978512
 42
0.112258
  0
VERTEX
  8
0
 10
300.597493
 20
31.288742
 42
0.014045
  0
VERTEX
  8
0
 10
297.423850
 20
31.171902
 42
-0.041272
  0
VERTEX
  8
0
 10
293.789471
 20
31.235908
 42
-0.124999
  0
VERTEX
  8
0
 10
291.481928
 20
32.075127
 42
-0.177819
  0
VERTEX
  8
0
 10
290.321590
 20
33.695947
 42
-0.104314
  0
VERTEX
  8
0
 10
290.173236
 20
36.105987
 42
-0.138414
  0
VERTEX
  8
0
 10
290.731078
 20
37.350210
 42
-0.065866
  0
VERTEX
  8
0
 10
292.034764
 20
38.547055
 42
-0.039186
  0
VERTEX
  8
0
 10
294.283328
 20
39.873067
 42
-0.010901
  0
VERTEX
  8
0
 10
298.000000
 20
41.589726
 42
-0.000394
  0
VERTEX
  8
0
 10
300.893083
 20
42.847497
 42
-0.000627
  0
VERTEX
  8
0
 10
303.370313
 20
43.918462
 42
-0.000119
  0
VERTEX
  8
0
 10
305.557385
 20
44.860111
 42
-0.032133
  0
VERTEX
  8
0
 10
305.750000
 20
44.928697
 42
-0.491193
  0
VERTEX
  8
0
 10
305.851612
 20
44.853779
 42
-0.000621
  0
VERTEX
  8
0
 10
305.912453
 20
41.968117
 42
-0.003848
  0
VERTEX
  8
0
 10
305.952438
 20
38.675505
 42
-0.002283
  0
SEQEND
  0
POLYLINE
  8
0
 66
1
 70
1
  0
VERTEX
  8
0
 10
335.898537
 20
73.215655
 42
0.024643
  0
VERTEX
  8
0
 10
333.057461
 20
71.548392
 42
0.051403
  0
VERTEX
  8
0
 10
331.068690
 20
69.931310
 42
0.051403
  0
VERTEX
  8
0
 10
329.451608
 20
67.942539
 42
0.024643
  0
VERTEX
  8
0
 10
327.784345
 20
65.101463
 42
0.034305
  0
VERTEX
  8
0
 10
326.133025
 20
61.331315
 42
0.058117
  0
VERTEX
  8
0
 10
325.354472
 20
57.978173
 42
0.025814
  0
VERTEX
  8
0
 10
325.055881
 20
53.042662
 42
0.002202
  0
VERTEX
  8
0
 10
325.000000
 20
40.354424
 42
0.003688
  0
VERTEX
  8
0
 10
325.107317
 20
25.806384
 42
0.081488
  0
VERTEX
  8
0
 10
325.852678
 20
21.648233
 42
0.329488
  0
VERTEX
  8
0
 10
327.783523
 20
20.343536
 42
0.080224
  0
VERTEX
  8
0
 10
331.787558
 20
21.165364
 42
0.034869
  0
VERTEX
  8
0
 10
334.070355
 20
22.218538
 42
0.148762
  0
VERTEX
  8
0
 10
335.107217
 20
23.280426
 42
0.089198
  0
VERTEX
  8
0
 10
335.645314
 20
25.018762
 42
0.008160
  0
VERTEX
  8
0
 10
336.125790
 20
29.536766
 42
0.009001
  0
VERTEX
  8
0
 10
336.375191
 20
33.012714
 42
0.003371
  0
VERTEX
  8
0
 10
336.604240
 20
37.894669
 42
0.003339
  0
VERTEX
  8
0
 10
336.782411
 20
43.217041
 42
0.004045
  0
VERTEX
  8
0
 10
336.875790
 20
48.211045
 42
-0.004435
  0
VERTEX
  8
0
 10
337.011272
 20
55.166796
 42
-0.034588
  0
VERTEX
  8
0
 10
337.326665
 20
58.391569
 42
-0.077121
  0
VERTEX
  8
0
 10
337.982487
 20
60.366749
 42
-0.086781
  0
VERTEX
  8
0
 10
339.188561
 20
61.961045
 42
-0.057816
  0
VERTEX
  8
0
 10
340.360412
 20
62.823599
 42
-0.046962
  0
VERTEX
  8
0
 10
341.782136
 20
63.467326
 42
-0.044140
  0
VERTEX
  8
0
 10
343.390186
 20
63.866103
 42
-0.038735
  0
VERTEX
  8
0
 10
345.115981
 20
64.000000
 42
-0.100114
  0
VERTEX
  8
0
 10
348.251874
 20
63.365751
 42
-0.108802
  0
VERTEX
  8
0
 10
350.789327
 20
61.569992
 42
-0.103152
  0
VERTEX
  8
0
 10
352.430535
 20
58.785473
 42
-0.081936
  0
VERTEX
  8
0
 10
353.000000
 20
55.333757
 42
0.071473
  0
VERTEX
  8
0
 10
353.375395
 20
52.721055
 42
0.242852
  0
VERTEX
  8
0
 10
354.526960
 20
51.514029
 42
0.168620
  0
VERTEX
  8
0
 10
356.548533
 20
51.517402
 42
0.034008
  0
VERTEX
  8
0
 10
359.903048
 20
52.950539
 42
0.021855
  0
VERTEX
  8
0
 10
362.078290
 20
54.182885
 42
0.083962
  0
VERTEX
  8
0
 10
363.236431
 20
55.212427
 42
0.112788
  0
VERTEX
  8
0
 10
363.810872
 20
56.395697
 42
0.056893
  0
VERTEX
  8
0
 10
364.000000
 20
58.052442
 42
0.119253
  0
VERTEX
  8
0
 10
362.404400
 20
64.647308
 42
0.092306
  0
VERTEX
  8
0
 10
357.864480
 20
70.510737
 42
0.087851
  0
VERTEX
  8
0
 10
351.282269
 20
74.569863
 42
0.094083
  0
VERTEX
  8
0
 10
343.864192
 20
75.994423
 42
0.066135
  0
VERTEX
  8
0
 10
342.500690
 20
75.816215
 42
0.018403
  0
VERTEX
  8
0
 10
340.437010
 20
75.180460
 42
0.018236
  0
VERTEX
  8
0
 10
338.132483
 20
74.281017
 42
0.018210
  0
SEQEND
  0
POLYLINE
  8
0
 66
1
 70
1
  0
VERTEX
  8
0
 10
419.500000
 20
73.701871
 42
0.000000
  0
VERTEX
  8
0
 10
415.500000
 20
71.438623
 42
0.000000
  0
VERTEX
  8
0
 10
415.199915
 20
53.969312
 42
0.005024
  0
VERTEX
  8
0
 10
415.099132
 20
39.830252
 42
0.032646
  0
VERTEX
  8
0
 10
415.583899
 20
32.732118
 42
0.066614
  0
VERTEX
  8
0
 10
416.820553
 20
28.201959
 42
0.080426
  0
VERTEX
  8
0
 10
419.160345
 20
24.470158
 42
0.062743
  0
VERTEX
  8
0
 10
422.482661
 20
21.527085
 42
0.082583
  0
VERTEX
  8
0
 10
426.148859
 20
19.824213
 42
0.083047
  0
VERTEX
  8
0
 10
430.152588
 20
19.405005
 42
0.064250
  0
VERTEX
  8
0
 10
434.466641
 20
20.233400
 42
-0.018570
  0
VERTEX
  8
0
 10
437.122847
 20
20.999799
 42
-0.057779
  0
VERTEX
  8
0
 10
438.967586
 20
21.237855
 42
-0.062197
  0
VERTEX
  8
0
 10
440.742978
 20
21.039383
 42
-0.024062
  0
VERTEX
  8
0
 10
443.124257
 20
20.345146
 42
0.093649
  0
VERTEX
  8
0
 10
448.642038
 20
19.539194
 42
0.095526
  0
VERTEX
  8
0
 10
454.031846
 20
20.813633
 42
0.095424
  0
VERTEX
  8
0
 10
458.565892
 20
24.002417
 42
0.093221
  0
VERTEX
  8
0
 10
461.635974
 20
28.671190
 42
0.093370
  0
VERTEX
  8
0
 10
462.748802
 20
33.903069
 42
0.003839
  0
VERTEX
  8
0
 10
463.051681
 20
53.194496
 42
0.001843
  0
VERTEX
  8
0
 10
463.139560
 20
73.468086
 42
0.260106
  0
VERTEX
  8
0
 10
462.011527
 20
75.492876
 42
0.179105
  0
VERTEX
  8
0
 10
461.376639
 20
75.620994
 42
0.022833
  0
VERTEX
  8
0
 10
459.988156
 20
75.338106
 42
0.024405
  0
VERTEX
  8
0
 10
458.311537
 20
74.827820
 42
0.018058
  0
VERTEX
  8
0
 10
456.511527
 20
74.108124
 42
0.000000
  0
VERTEX
  8
0
 10
452.000000
 20
72.112461
 42
0.000000
  0
VERTEX
  8
0
 10
451.888070
 20
61.306230
 42
-0.004038
  0
VERTEX
  8
0
 10
451.799055
 20
56.477798
 42
-0.002602
  0
VERTEX
  8
0
 10
451.621587
 20
50.883705
 42
-0.002615
  0
VERTEX
  8
0
 10
451.390901
 20
45.413654
 42
-0.004922
  0
VERTEX
  8
0
 10
451.138070
 20
41.000000
 42
-0.003879
  0
VERTEX
  8
0
 10
450.677098
 20
34.850696
 42
-0.059183
  0
VERTEX
  8
0
 10
450.252303
 20
32.763807
 42
-0.200221
  0
VERTEX
  8
0
 10
449.452328
 20
31.841067
 42
-0.115845
  0
VERTEX
  8
0
 10
448.000000
 20
31.500000
 42
0.000000
  0
VERTEX
  8
0
 10
445.500000
 20
31.500000
 42
0.000000
  0
VERTEX
  8
0
 10
445.229186
 20
52.422616
 42
0.003772
  0
VERTEX
  8
0
 10
445.047120
 20
61.308783
 42
0.008153
  0
VERTEX
  8
0
 10
444.744115
 20
68.138881
 42
0.004939
  0
VERTEX
  8
0
 10
444.369535
 20
73.441918
 42
0.154289
  0
VERTEX
  8
0
 10
443.879999
 20
74.644593
 42
0.105207
  0
VERTEX
  8
0
 10
443.152248
 20
75.219298
 42
0.127250
  0
VERTEX
  8
0
 10
442.302833
 20
75.396481
 42
0.071497
  0
VERTEX
  8
0
 10
441.110071
 20
75.166786
 42
0.015623
  0
VERTEX
  8
0
 10
439.150812
 20
74.419816
 42
0.012154
  0
VERTEX
  8
0
 10
437.679805
 20
73.763276
 42
0.013083
  0
VERTEX
  8
0
 10
436.278676
 20
73.051092
 42
0.012690
  0
VERTEX
  8
0
 10
435.110752
 20
72.379583
 42
0.059004
  0
VERTEX
  8
0
 10
434.500000
 20
71.900610
 42
0.177595
  0
VERTEX
  8
0
 10
434.076958
 20
70.993424
 42
0.003108
  0
VERTEX
  8
0
 10
433.644490
 20
65.502871
 42
0.007295
  0
VERTEX
  8
0
 10
433.265529
 20
58.953539
 42
0.004456
  0
VERTEX
  8
0
 10
433.000000
 20
51.214819
 42
-0.001925
  0
VERTEX
  8
0
 10
432.651268
 20
39.290817
 42
-0.020981
  0
VERTEX
  8
0
 10
432.291167
 20
34.501321
 42
-0.058594
  0
VERTEX
  8
0
 10
431.713245
 20
32.077402
 42
-0.263424
  0
VERTEX
  8
0
 10
430.643780
 20
31.168268
 42
-0.246331
  0
VERTEX
  8
0
 10
428.444352
 20
31.833353
 42
-0.149928
  0
VERTEX
  8
0
 10
427.120031
 20
34.278012
 42
-0.040136
  0
VERTEX
  8
0
 10
426.442081
 20
39.967661
 42
-0.003674
  0
VERTEX
  8
0
 10
426.000000
 20
54.215735
 42
0.003734
  0
VERTEX
  8
0
 10
425.729587
 20
62.897605
 42
0.007815
  0
VERTEX
  8
0
 10
425.363245
 20
69.645731
 42
0.002978
  0
VERTEX
  8
0
 10
424.949838
 20
75.087696
 42
0.305095
  0
VERTEX
  8
0
 10
424.500000
 20
75.650819
 42
0.151965
  0
VERTEX
  8
0
 10
423.895109
 20
75.652574
 42
0.018240
  0
VERTEX
  8
0
 10
422.618750
 20
75.207964
 42
0.020375
  0
VERTEX
  8
0
 10
421.104919
 20
74.545650
 42
0.015436
  0
SEQEND
  0
POLYLINE
  8
0
 66
1
 70
1
  0
VERTEX
  8
0
 10
479.007140
 20
74.407017
 42
0.066732
  0
VERTEX
  8
0
 10
474.352806
 20
71.601577
 42
0.068767
  0
VERTEX
  8
0
 10
470.655492
 20
67.694078
 42
0.065536
  0
VERTEX
  8
0
 10
468.024463
 20
62.756233
 42
0.052506
  0
VERTEX
  8
0
 10
466.510596
 20
56.919226
 42
0.042625
  0
VERTEX
  8
0
 10
466.255827
 20
52.922145
 42
0.236850
  0
VERTEX
  8
0
 10
467.231989
 20
51.077275
 42
0.234730
  0
VERTEX
  8
0
 10
469.302692
 20
50.747604
 42
0.041954
  0
VERTEX
  8
0
 10
473.036952
 20
52.269898
 42
0.026566
  0
VERTEX
  8
0
 10
475.089799
 20
53.456392
 42
0.051456
  0
VERTEX
  8
0
 10
476.562176
 20
54.647065
 42
0.063260
  0
VERTEX
  8
0
 10
477.555252
 20
55.922370
 42
0.071094
  0
VERTEX
  8
0
 10
478.150718
 20
57.357450
 42
-0.058732
  0
VERTEX
  8
0
 10
479.282822
 20
60.287607
 42
-0.095599
  0
VERTEX
  8
0
 10
480.947300
 20
62.360116
 42
-0.101915
  0
VERTEX
  8
0
 10
483.178967
 20
63.580462
 42
-0.074457
  0
VERTEX
  8
0
 10
485.980674
 20
64.000000
 42
-0.095077
  0
VERTEX
  8
0
 10
488.904527
 20
63.438945
 42
-0.073854
  0
VERTEX
  8
0
 10
491.710709
 20
61.807516
 42
-0.085840
  0
VERTEX
  8
0
 10
493.569113
 20
59.711947
 42
-0.236644
  0
VERTEX
  8
0
 10
493.740592
 20
57.800881
 42
-0.170425
  0
VERTEX
  8
0
 10
493.158811
 20
57.127917
 42
-0.008976
  0
VERTEX
  8
0
 10
490.627986
 20
55.737475
 42
-0.013306
  0
VERTEX
  8
0
 10
487.488951
 20
54.190747
 42
-0.009219
  0
VERTEX
  8
0
 10
483.864078
 20
52.603291
 42
0.010008
  0
VERTEX
  8
0
 10
476.138219
 20
49.205330
 42
0.047859
  0
VERTEX
  8
0
 10
471.986922
 20
46.772935
 42
0.078975
  0
VERTEX
  8
0
 10
469.431483
 20
44.228289
 42
0.062401
  0
VERTEX
  8
0
 10
467.540557
 20
40.809759
 42
0.089646
  0
VERTEX
  8
0
 10
466.424607
 20
35.354925
 42
0.099359
  0
VERTEX
  8
0
 10
467.360805
 20
30.062653
 42
0.097813
  0
VERTEX
  8
0
 10
470.287022
 20
25.478825
 42
0.084169
  0
VERTEX
  8
0
 10
474.880728
 20
22.060848
 42
0.035120
  0
VERTEX
  8
0
 10
478.969469
 20
20.324760
 42
0.055050
  0
VERTEX
  8
0
 10
482.692315
 20
19.487044
 42
0.059675
  0
VERTEX
  8
0
 10
486.281600
 20
19.515275
 42
0.051224
  0
VERTEX
  8
0
 10
489.961559
 20
20.374712
 42
-0.010670
  0
VERTEX
  8
0
 10
492.481391
 20
21.183141
 42
-0.070031
  0
VERTEX
  8
0
 10
493.790035
 20
21.379959
 42
-0.142130
  0
VERTEX
  8
0
 10
494.665611
 20
21.134877
 42
-0.096329
  0
VERTEX
  8
0
 10
495.430184
 20
20.426366
 42
0.118005
  0
VERTEX
  8
0
 10
496.200445
 20
19.771635
 42
0.154487
  0
VERTEX
  8
0
 10
497.106802
 20
19.622552
 42
0.070310
  0
VERTEX
  8
0
 10
498.457398
 20
20.016648
 42
0.010671
  0
VERTEX
  8
0
 10
501.000233
 20
21.231334
 42
0.000000
  0
VERTEX
  8
0
 10
505.500000
 20
23.500000
 42
0.000000
  0
VERTEX
  8
0
 10
505.500000
 20
42.500000
 42
0.002162
  0
VERTEX
  8
0
 10
505.446181
 20
54.944593
 42
0.026628
  0
VERTEX
  8
0
 10
505.152779
 20
59.678953
 42
0.063312
  0
VERTEX
  8
0
 10
504.384190
 20
62.798144
 42
0.040872
  0
VERTEX
  8
0
 10
502.764501
 20
66.153326
 42
0.091362
  0
VERTEX
  8
0
 10
498.304464
 20
71.303980
 42
0.085343
  0
VERTEX
  8
0
 10
492.199706
 20
74.675928
 42
0.086856
  0
VERTEX
  8
0
 10
485.417899
 20
75.777987
 42
0.099576
  0
SEQEND
  0
POLYLINE
  8
0
 66
1
 70
1
  0
VERTEX
  8
0
 10
493.918426
 20
34.750000
 42
-0.001856
  0
VERTEX
  8
0
 10
493.843136
 20
28.741644
 42
-0.056882
  0
VERTEX
  8
0
 10
493.649275
 20
27.257462
 42
-0.660490
  0
VERTEX
  8
0
 10
493.240187
 20
27.191509
 42
-0.037721
  0
VERTEX
  8
0
 10
492.423103
 20
28.731511
 42
0.028637
  0
VERTEX
  8
0
 10
491.449549
 20
30.649697
 42
0.155088
  0
VERTEX
  8
0
 10
490.595141
 20
31.423840
 42
0.125596
  0
VERTEX
  8
0
 10
489.355904
 20
31.647480
 42
0.016221
  0
VERTEX
  8
0
 10
486.654532
 20
31.366127
 42
-0.047624
  0
VERTEX
  8
0
 10
483.007635
 20
31.216369
 42
-0.095943
  0
VERTEX
  8
0
 10
480.226457
 20
31.913009
 42
-0.144959
  0
VERTEX
  8
0
 10
478.605928
 20
33.347700
 42
-0.176718
  0
VERTEX
  8
0
 10
478.189316
 20
35.317661
 42
-0.133128
  0
VERTEX
  8
0
 10
478.701505
 20
36.508755
 42
-0.057268
  0
VERTEX
  8
0
 10
479.934250
 20
37.741938
 42
-0.038558
  0
VERTEX
  8
0
 10
481.952853
 20
39.105487
 42
-0.014069
  0
VERTEX
  8
0
 10
485.000000
 20
40.726389
 42
-0.006813
  0
VERTEX
  8
0
 10
487.580757
 20
41.963856
 42
-0.009102
  0
VERTEX
  8
0
 10
489.957812
 20
43.011962
 42
-0.006756
  0
VERTEX
  8
0
 10
491.964049
 20
43.821589
 42
-0.088018
  0
VERTEX
  8
0
 10
492.750000
 20
43.976389
 42
-0.333808
  0
VERTEX
  8
0
 10
493.347434
 20
43.544924
 42
-0.043779
  0
VERTEX
  8
0
 10
493.700675
 20
41.915383
 42
-0.026921
  0
VERTEX
  8
0
 10
493.897337
 20
39.193967
 42
-0.006782
  0
SEQEND
  0
POLYLINE
  8
0
 66
1
 70
1
  0
VERTEX
  8
0
 10
525.491423
 20
74.196838
 42
0.057512
  0
VERTEX
  8
0
 10
521.778734
 20
71.899972
 42
0.045542
  0
VERTEX
  8
0
 10
518.355231
 20
68.646487
 42
0.047369
  0
VERTEX
  8
0
 10
515.763846
 20
65.056008
 42
0.094874
  0
VERTEX
  8
0
 10
514.597085
 20
61.771381
 42
0.025268
  0
VERTEX
  8
0
 10
514.379241
 20
59.634827
 42
0.002018
  0
VERTEX
  8
0
 10
514.112230
 20
53.963995
 42
0.002726
  0
VERTEX
  8
0
 10
513.857762
 20
47.192609
 42
0.002088
  0
VERTEX
  8
0
 10
513.650837
 20
39.786900
 42
0.003984
  0
VERTEX
  8
0
 10
513.422445
 20
25.324848
 42
0.085692
  0
VERTEX
  8
0
 10
514.112961
 20
21.129871
 42
0.363308
  0
VERTEX
  8
0
 10
516.049722
 20
19.969641
 42
0.077631
  0
VERTEX
  8
0
 10
520.078487
 20
21.269898
 42
0.000000
  0
VERTEX
  8
0
 10
524.500000
 20
23.500000
 42
0.000000
  0
VERTEX
  8
0
 10
525.000000
 20
41.648410
 42
-0.006748
  0
VERTEX
  8
0
 10
525.559849
 20
55.282607
 42
-0.073962
  0
VERTEX
  8
0
 10
526.657462
 20
60.637081
 42
-0.202995
  0
VERTEX
  8
0
 10
528.959332
 20
63.106037
 42
-0.105352
  0
VERTEX
  8
0
 10
533.154988
 20
64.000000
 42
-0.077796
  0
VERTEX
  8
0
 10
536.393699
 20
63.493016
 42
-0.112286
  0
VERTEX
  8
0
 10
538.879511
 20
62.022502
 42
-0.104142
  0
VERTEX
  8
0
 10
540.608075
 20
59.525083
 42
-0.059904
  0
VERTEX
  8
0
 10
541.617285
 20
55.991904
 42
0.015712
  0
VERTEX
  8
0
 10
541.921305
 20
54.410987
 42
0.020981
  0
VERTEX
  8
0
 10
542.301741
 20
53.000016
 42
0.018767
  0
VERTEX
  8
0
 10
542.702342
 20
51.877719
 42
0.160570
  0
VERTEX
  8
0
 10
543.041015
 20
51.474651
 42
0.191944
  0
VERTEX
  8
0
 10
543.570189
 20
51.381471
 42
0.016293
  0
VERTEX
  8
0
 10
544.939109
 20
51.712926
 42
0.019746
  0
VERTEX
  8
0
 10
546.594570
 20
52.242536
 42
0.013962
  0
VERTEX
  8
0
 10
548.409663
 20
52.961277
 42
0.059262
  0
VERTEX
  8
0
 10
551.648507
 20
54.830126
 42
0.193706
  0
VERTEX
  8
0
 10
552.909508
 20
56.903620
 42
0.133826
  0
VERTEX
  8
0
 10
552.611591
 20
59.804168
 42
0.023475
  0
VERTEX
  8
0
 10
550.377091
 20
64.870805
 42
0.053625
  0
VERTEX
  8
0
 10
547.555823
 20
69.277691
 42
0.072436
  0
VERTEX
  8
0
 10
544.096705
 20
72.497457
 42
0.073149
  0
VERTEX
  8
0
 10
539.890880
 20
74.575567
 42
0.055999
  0
VERTEX
  8
0
 10
534.858553
 20
75.600907
 42
0.022380
  0
VERTEX
  8
0
 10
532.113147
 20
75.722790
 42
0.037117
  0
VERTEX
  8
0
 10
529.802711
 20
75.550144
 42
0.040129
  0
VERTEX
  8
0
 10
527.674628
 20
75.054113
 42
0.032489
  0
SEQEND
  0
POLYLINE
  8
0
 66
1
 70
1
  0
VERTEX
  8
0
 10
573.637261
 20
74.588353
 42
0.030744
  0
VERTEX
  8
0
 10
571.951372
 20
73.843411
 42
0.019252
  0
VERTEX
  8
0
 10
570.074621
 20
72.778700
 42
0.019307
  0
VERTEX
  8
0
 10
568.300495
 20
71.582715
 42
0.033068
  0
VERTEX
  8
0
 10
566.933396
 20
70.436189
 42
0.055613
  0
VERTEX
  8
0
 10
563.782448
 20
66.662450
 42
0.082895
  0
VERTEX
  8
0
 10
562.035821
 20
62.742621
 42
0.052475
  0
VERTEX
  8
0
 10
561.213815
 20
57.263438
 42
0.011015
  0
VERTEX
  8
0
 10
561.000000
 20
47.559033
 42
0.004829
  0
VERTEX
  8
0
 10
561.073312
 20
39.968223
 42
0.023428
  0
VERTEX
  8
0
 10
561.358020
 20
35.671331
 42
0.040676
  0
VERTEX
  8
0
 10
561.946397
 20
32.681586
 42
0.049070
  0
VERTEX
  8
0
 10
562.990769
 20
30.018094
 42
0.087113
  0
VERTEX
  8
0
 10
566.847800
 20
24.897080
 42
0.079457
  0
VERTEX
  8
0
 10
572.334215
 20
21.200558
 42
0.080767
  0
VERTEX
  8
0
 10
578.613034
 20
19.441661
 42
0.094976
  0
VERTEX
  8
0
 10
584.763130
 20
19.918871
 42
0.087489
  0
VERTEX
  8
0
 10
590.596381
 20
22.674725
 42
0.074603
  0
VERTEX
  8
0
 10
595.511123
 20
27.391238
 42
0.074759
  0
VERTEX
  8
0
 10
598.816995
 20
33.331889
 42
0.088547
  0
VERTEX
  8
0
 10
599.978038
 20
39.643011
 42
0.045234
  0
VERTEX
  8
0
 10
599.714535
 20
42.731718
 42
0.236691
  0
VERTEX
  8
0
 10
598.725383
 20
44.059311
 42
0.190589
  0
VERTEX
  8
0
 10
596.893494
 20
44.222725
 42
0.029186
  0
VERTEX
  8
0
 10
593.382862
 20
42.956955
 42
0.028645
  0
VERTEX
  8
0
 10
591.402399
 20
41.971603
 42
0.061001
  0
VERTEX
  8
0
 10
590.033325
 20
40.950561
 42
0.074591
  0
VERTEX
  8
0
 10
589.125083
 20
39.778459
 42
0.066840
  0
VERTEX
  8
0
 10
588.558732
 20
38.347432
 42
-0.111006
  0
VERTEX
  8
0
 10
586.360188
 20
33.959435
 42
-0.140303
  0
VERTEX
  8
0
 10
582.646721
 20
31.383716
 42
-0.149335
  0
VERTEX
  8
0
 10
578.313389
 20
31.248631
 42
-0.130758
  0
VERTEX
  8
0
 10
574.380682
 20
33.528409
 42
-0.028970
  0
VERTEX
  8
0
 10
573.441641
 20
34.583060
 42
-0.036866
  0
VERTEX
  8
0
 10
572.710659
 20
35.661098
 42
-0.040211
  0
VERTEX
  8
0
 10
572.258335
 20
36.617483
 42
-0.172467
  0
VERTEX
  8
0
 10
572.246031
 20
37.238094
 42
-0.189317
  0
VERTEX
  8
0
 10
572.786685
 20
37.885275
 42
-0.004129
  0
VERTEX
  8
0
 10
576.469217
 20
39.860761
 42
-0.008843
  0
VERTEX
  8
0
 10
580.894348
 20
42.088766
 42
-0.005784
  0
VERTEX
  8
0
 10
586.069895
 20
44.507508
 42
0.000000
  0
VERTEX
  8
0
 10
599.500000
 20
50.595647
 42
0.000000
  0
VERTEX
  8
0
 10
599.493375
 20
56.721108
 42
0.018252
  0
VERTEX
  8
0
 10
599.364382
 20
60.151868
 42
0.051973
  0
VERTEX
  8
0
 10
598.941730
 20
62.502084
 42
0.057292
  0
VERTEX
  8
0
 10
598.070487
 20
64.584537
 42
0.026078
  0
VERTEX
  8
0
 10
596.493375
 20
67.084226
 42
0.080656
  0
VERTEX
  8
0
 10
591.948120
 20
71.716143
 42
0.079327
  0
VERTEX
  8
0
 10
586.145944
 20
74.704113
 42
0.080651
  0
VERTEX
  8
0
 10
579.789695
 20
75.705619
 42
0.087705
  0
SEQEND
  0
POLYLINE
  8
0
 66
1
 70
1
  0
VERTEX
  8
0
 10
586.000000
 20
62.000000
 42
-0.024320
  0
VERTEX
  8
0
 10
586.765540
 20
61.156132
 42
-0.027506
  0
VERTEX
  8
0
 10
587.412500
 20
60.274636
 42
-0.028308
  0
VERTEX
  8
0
 10
587.872254
 20
59.474518
 42
-0.116761
  0
VERTEX
  8
0
 10
588.000000
 20
58.934932
 42
-0.277721
  0
VERTEX
  8
0
 10
587.460761
 20
58.038984
 42
-0.003088
  0
VERTEX
  8
0
 10
580.934236
 20
54.632544
 42
-0.005494
  0
VERTEX
  8
0
 10
574.619058
 20
51.473125
 42
-0.113709
  0
VERTEX
  8
0
 10
572.565540
 20
51.000000
 42
-0.419609
  0
VERTEX
  8
0
 10
571.756663
 20
51.823888
 42
-0.031510
  0
VERTEX
  8
0
 10
572.039058
 20
55.286088
 42
-0.035266
  0
VERTEX
  8
0
 10
572.846884
 20
58.987356
 42
-0.095571
  0
VERTEX
  8
0
 10
574.072580
 20
61.365141
 42
-0.121754
  0
VERTEX
  8
0
 10
576.534736
 20
63.283792
 42
-0.091875
  0
VERTEX
  8
0
 10
579.881094
 20
64.089989
 42
-0.091446
  0
VERTEX
  8
0
 10
583.308375
 20
63.644679
 42
-0.119009
  0
SEQEND
  0
ENDSEC
  0
EOF
